<?xml version="1.0" encoding="UTF-8" standalone="no"?>
<!-- Created with matplotlib (http://matplotlib.org/) -->

<svg
   xmlns:dc="http://purl.org/dc/elements/1.1/"
   xmlns:cc="http://creativecommons.org/ns#"
   xmlns:rdf="http://www.w3.org/1999/02/22-rdf-syntax-ns#"
   xmlns:svg="http://www.w3.org/2000/svg"
   xmlns="http://www.w3.org/2000/svg"
   xmlns:xlink="http://www.w3.org/1999/xlink"
   xmlns:sodipodi="http://sodipodi.sourceforge.net/DTD/sodipodi-0.dtd"
   xmlns:inkscape="http://www.inkscape.org/namespaces/inkscape"
   height="432pt"
   version="1.1"
   viewBox="0 0 432 432"
   width="432pt"
   id="svg129708"
   inkscape:version="0.48.4 r9939"
   sodipodi:docname="utility_1d_goods_compare.svg">
  <metadata
     id="metadata130116">
    <rdf:RDF>
      <cc:Work
         rdf:about="">
        <dc:format>image/svg+xml</dc:format>
        <dc:type
           rdf:resource="http://purl.org/dc/dcmitype/StillImage" />
      </cc:Work>
    </rdf:RDF>
  </metadata>
  <sodipodi:namedview
     pagecolor="#ffffff"
     bordercolor="#666666"
     borderopacity="1"
     objecttolerance="10"
     gridtolerance="10"
     guidetolerance="10"
     inkscape:pageopacity="0"
     inkscape:pageshadow="2"
     inkscape:window-width="1871"
     inkscape:window-height="1056"
     id="namedview130114"
     showgrid="false"
     inkscape:zoom="1.2361274"
     inkscape:cx="270"
     inkscape:cy="270"
     inkscape:window-x="49"
     inkscape:window-y="24"
     inkscape:window-maximized="1"
     inkscape:current-layer="svg129708" />
  <defs
     id="defs129710">
    <style
       type="text/css"
       id="style129712">
*{stroke-linecap:butt;stroke-linejoin:round;}
  </style>
    <defs
       id="defs129997">
      <path
         style="stroke-linecap:butt;stroke-linejoin:round"
         inkscape:connector-curvature="0"
         id="BitstreamVeraSans-Roman-64"
         d="m 45.4062,46.3906 0,29.5938 8.9844,0 0,-75.9844 -8.9844,0 0,8.20312 Q 42.5781,3.32812 38.25,0.953125 33.9375,-1.42188 27.875,-1.42188 q -9.9062,0 -16.1406,7.90626 -6.21878,7.92182 -6.21878,20.81252 0,12.8906 6.21878,20.7969 Q 17.9688,56 27.875,56 q 6.0625,0 10.375,-2.375 4.3281,-2.3594 7.1562,-7.2344 M 14.7969,27.2969 q 0,-9.9063 4.0781,-15.5469 4.0781,-5.64062 11.2031,-5.64062 7.125,0 11.2188,5.64062 4.1093,5.6406 4.1093,15.5469 0,9.9062 -4.1093,15.5469 -4.0938,5.6406 -11.2188,5.6406 -7.125,0 -11.2031,-5.6406 -4.0781,-5.6407 -4.0781,-15.5469" />
      <path
         style="stroke-linecap:butt;stroke-linejoin:round"
         inkscape:connector-curvature="0"
         d=""
         id="BitstreamVeraSans-Roman-20" />
      <path
         style="stroke-linecap:butt;stroke-linejoin:round"
         inkscape:connector-curvature="0"
         id="BitstreamVeraSans-Roman-6e"
         d="m 54.8906,33.0156 0,-33.0156 -8.9844,0 0,32.7188 q 0,7.7656 -3.0312,11.6093 -3.0312,3.8594 -9.0781,3.8594 -7.2813,0 -11.4844,-4.6406 -4.2031,-4.625 -4.2031,-12.6407 l 0,-30.9062 -9.03128,0 0,54.6875 9.03128,0 0,-8.5 q 3.2344,4.9375 7.5937,7.375 Q 30.0781,56 35.7969,56 q 9.4219,0 14.25,-5.8281 4.8437,-5.8281 4.8437,-17.1563" />
      <path
         style="stroke-linecap:butt;stroke-linejoin:round"
         inkscape:connector-curvature="0"
         id="BitstreamVeraSans-Roman-6d"
         d="M 52,44.1875 Q 55.375,50.25 60.0625,53.125 64.75,56 71.0938,56 q 8.5468,0 13.1874,-5.9844 4.6407,-5.9687 4.6407,-17 l 0,-33.0156 -9.0313,0 0,32.7188 q 0,7.8593 -2.7968,11.6562 -2.7813,3.8125 -8.4844,3.8125 -6.9844,0 -11.0469,-4.6406 -4.0469,-4.625 -4.0469,-12.6407 l 0,-30.9062 -9.0312,0 0,32.7188 q 0,7.9062 -2.7813,11.6874 -2.7812,3.7813 -8.5937,3.7813 -6.8906,0 -10.9532,-4.6563 -4.0468,-4.6562 -4.0468,-12.625 l 0,-30.9062 -9.03128,0 0,54.6875 9.03128,0 0,-8.5 q 3.0781,5.0313 7.375,7.4219 Q 29.7812,56 35.6875,56 41.6562,56 45.8281,52.9688 50,49.9531 52,44.1875" />
      <path
         style="stroke-linecap:butt;stroke-linejoin:round"
         inkscape:connector-curvature="0"
         id="BitstreamVeraSans-Roman-6f"
         d="m 30.6094,48.3906 q -7.2188,0 -11.4219,-5.6406 -4.2031,-5.6406 -4.2031,-15.4531 0,-9.8125 4.1718,-15.4531 4.1876,-5.64068 11.4532,-5.64068 7.1875,0 11.375,5.65628 4.2031,5.6718 4.2031,15.4375 0,9.7187 -4.2031,15.4062 -4.1875,5.6875 -11.375,5.6875 m 0,7.6094 q 11.7187,0 18.4062,-7.625 6.7032,-7.6094 6.7032,-21.0781 0,-13.4219 -6.7032,-21.07815 -6.6875,-7.64063 -18.4062,-7.64063 -11.7656,0 -18.4375,7.64063 -6.65628,7.65625 -6.65628,21.07815 0,13.4687 6.65628,21.0781 Q 18.8438,56 30.6094,56" />
      <path
         style="stroke-linecap:butt;stroke-linejoin:round"
         inkscape:connector-curvature="0"
         id="BitstreamVeraSans-Roman-74"
         d="m 18.3125,70.2188 0,-15.5313 18.5,0 0,-6.9844 -18.5,0 0,-29.6875 q 0,-6.6875 1.8281,-8.59372 1.8282,-1.90626 7.4532,-1.90626 l 9.2187,0 0,-7.51562 -9.2187,0 Q 17.1875,0 13.2344,3.875 9.28125,7.76562 9.28125,18.0156 l 0,29.6875 -6.59375,0 0,6.9844 6.59375,0 0,15.5313 z" />
      <path
         style="stroke-linecap:butt;stroke-linejoin:round"
         inkscape:connector-curvature="0"
         id="BitstreamVeraSans-Roman-6c"
         d="m 9.42188,75.9844 8.98432,0 0,-75.9844 -8.98432,0 z" />
      <path
         style="stroke-linecap:butt;stroke-linejoin:round"
         inkscape:connector-curvature="0"
         id="BitstreamVeraSans-Roman-50"
         d="m 19.6719,64.7969 0,-27.3907 12.4062,0 q 6.8907,0 10.6407,3.5626 3.7656,3.5624 3.7656,10.1562 0,6.5469 -3.7656,10.1094 -3.75,3.5625 -10.6407,3.5625 z m -9.8594,8.1093 22.2656,0 q 12.2657,0 18.5313,-5.5468 6.2812,-5.5469 6.2812,-16.2344 0,-10.7969 -6.2812,-16.3125 -6.2656,-5.5156 -18.5313,-5.5156 l -12.4062,0 0,-29.2969 -9.8594,0 z" />
      <path
         style="stroke-linecap:butt;stroke-linejoin:round"
         inkscape:connector-curvature="0"
         id="BitstreamVeraSans-Roman-44"
         d="m 19.6719,64.7969 0,-56.68752 11.9219,0 q 15.0937,0 22.0937,6.82812 7,6.8437 7,21.5937 0,14.6407 -7,21.4532 -7,6.8125 -22.0937,6.8125 z m -9.8594,8.1093 20.2656,0 q 21.1875,0 31.0938,-8.8124 9.9219,-8.8126 9.9219,-27.5626 0,-18.8593 -9.9688,-27.70308 Q 51.1719,0 30.0781,0 L 9.8125,0 z" />
      <path
         style="stroke-linecap:butt;stroke-linejoin:round"
         inkscape:connector-curvature="0"
         id="BitstreamVeraSans-Roman-43"
         d="m 64.4062,67.2812 0,-10.3906 q -4.9843,4.6406 -10.625,6.9219 -5.6406,2.2969 -11.9843,2.2969 -12.5,0 -19.1407,-7.6406 -6.6406,-7.6407 -6.6406,-22.0938 0,-14.4062 6.6406,-22.0469 6.6407,-7.6406 19.1407,-7.6406 6.3437,0 11.9843,2.29688 5.6407,2.29682 10.625,6.93752 l 0,-10.31252 Q 59.2344,2.09375 53.4375,0.328125 47.6562,-1.42188 41.2188,-1.42188 q -16.5626,0 -26.0938,10.125 Q 5.60938,18.8438 5.60938,36.375 q 0,17.5781 9.51562,27.7031 9.5312,10.1407 26.0938,10.1407 6.5312,0 12.3124,-1.7344 5.7969,-1.7344 10.875,-5.2032" />
      <path
         style="stroke-linecap:butt;stroke-linejoin:round"
         inkscape:connector-curvature="0"
         id="BitstreamVeraSans-Roman-55"
         d="m 8.6875,72.9062 9.9219,0 0,-44.2968 q 0,-11.7188 4.2344,-16.875 4.25,-5.14065 13.7812,-5.14065 9.4688,0 13.7188,5.14065 4.25,5.1562 4.25,16.875 l 0,44.2968 9.9062,0 0,-45.5156 q 0,-14.25 -7.0625,-21.53122 -7.0469,-7.28126 -20.8125,-7.28126 -13.8281,0 -20.8906,7.28126 Q 8.6875,13.1406 8.6875,27.3906 z" />
      <path
         style="stroke-linecap:butt;stroke-linejoin:round"
         inkscape:connector-curvature="0"
         id="BitstreamVeraSans-Roman-47"
         d="m 59.5156,10.4062 0,19.5782 -16.1094,0 0,8.1094 25.875,0 0,-31.31255 Q 63.5781,2.73438 56.6875,0.65625 49.8125,-1.42188 42,-1.42188 q -17.0938,0 -26.75,9.98438 -9.64062,10 -9.64062,27.8125 0,17.875 9.64062,27.8594 9.6562,9.9844 26.75,9.9844 7.125,0 13.5469,-1.7657 6.4219,-1.75 11.8437,-5.1719 l 0,-10.5 q -5.4687,4.6407 -11.625,6.9844 -6.1562,2.3438 -12.9375,2.3438 -13.3906,0 -20.1093,-7.4688 -6.7032,-7.4687 -6.7032,-22.2656 0,-14.75 6.7032,-22.2188 6.7187,-7.4687 20.1093,-7.4687 5.2188,0 9.3125,0.90625 Q 56.25,8.5 59.5156,10.4062" />
      <path
         style="stroke-linecap:butt;stroke-linejoin:round"
         inkscape:connector-curvature="0"
         id="BitstreamVeraSans-Roman-79"
         d="M 32.1719,-5.07812 Q 28.375,-14.8438 24.75,-17.8125 q -3.6094,-2.9844 -9.6562,-2.9844 l -7.18755,0 0,7.5157 5.28125,0 q 3.7031,0 5.75,1.7656 2.0625,1.74998 4.5469,8.29685 L 25.0938,0.875 2.98438,54.6875 l 9.51562,0 17.0938,-42.7656 17.0937,42.7656 9.5156,0 z" />
      <path
         style="stroke-linecap:butt;stroke-linejoin:round"
         inkscape:connector-curvature="0"
         id="BitstreamVeraSans-Roman-65"
         d="m 56.2031,29.5938 0,-4.3907 -41.3125,0 q 0.5938,-9.2812 5.5938,-14.1406 5,-4.85938 13.9375,-4.85938 5.1719,0 10.0312,1.26563 4.8594,1.26563 9.6563,3.81245 l 0,-8.49995 q -4.8438,-2.046875 -9.9219,-3.125 -5.0781,-1.07813 -10.2969,-1.07813 -13.0937,0 -20.7344,7.60938 -7.64058,7.625 -7.64058,20.625 0,13.4219 7.24998,21.2969 Q 20.0156,56 32.3281,56 q 11.0313,0 17.4531,-7.1094 6.4219,-7.0937 6.4219,-19.2968 m -8.9843,2.6406 q -0.0938,7.3594 -4.125,11.75 -4.0313,4.4062 -10.6719,4.4062 -7.5157,0 -12.0313,-4.25 -4.5156,-4.25 -5.2031,-11.9687 z" />
      <path
         style="stroke-linecap:butt;stroke-linejoin:round"
         inkscape:connector-curvature="0"
         id="BitstreamVeraSans-Roman-69"
         d="m 9.42188,54.6875 8.98432,0 0,-54.6875 -8.98432,0 z m 0,21.2969 8.98432,0 0,-11.3906 -8.98432,0 z" />
      <path
         style="stroke-linecap:butt;stroke-linejoin:round"
         inkscape:connector-curvature="0"
         id="BitstreamVeraSans-Roman-61"
         d="m 34.2812,27.4844 q -10.8906,0 -15.0937,-2.4844 -4.2031,-2.4844 -4.2031,-8.5 0,-4.7812 3.1562,-7.59375 3.1563,-2.79687 8.5625,-2.79687 7.4844,0 12,5.29682 4.5157,5.2969 4.5157,14.0782 l 0,2 z m 17.9219,3.7187 0,-31.2031 -8.9843,0 0,8.29688 Q 40.1406,3.32812 35.5469,0.953125 30.9531,-1.42188 24.3125,-1.42188 q -8.3906,0 -13.3594,4.71876 Q 6,8.01562 6,15.9219 q 0,9.2187 6.1719,13.9062 6.1875,4.6875 18.4375,4.6875 l 12.6094,0 0,0.8906 q 0,6.2032 -4.0782,9.5938 -4.0781,3.3906 -11.4531,3.3906 -4.6875,0 -9.1406,-1.125 -4.4375,-1.125 -8.5313,-3.375 l 0,8.3125 q 4.9219,1.9063 9.5625,2.8438 Q 24.2188,56 28.6094,56 q 11.875,0 17.7344,-6.1562 5.8593,-6.1407 5.8593,-18.6407" />
      <path
         style="stroke-linecap:butt;stroke-linejoin:round"
         inkscape:connector-curvature="0"
         id="BitstreamVeraSans-Roman-72"
         d="m 41.1094,46.2969 q -1.5156,0.875 -3.2969,1.2812 Q 36.0312,48 33.8906,48 26.2656,48 22.1875,43.0469 18.1094,38.0938 18.1094,28.8125 l 0,-28.8125 -9.03128,0 0,54.6875 9.03128,0 0,-8.5 q 2.8437,4.9844 7.375,7.3906 Q 30.0312,56 36.5312,56 q 0.9219,0 2.0469,-0.125 1.125,-0.1094 2.4844,-0.3594 z" />
      <path
         style="stroke-linecap:butt;stroke-linejoin:round"
         inkscape:connector-curvature="0"
         id="BitstreamVeraSans-Roman-73"
         d="m 44.2812,53.0781 0,-8.5 q -3.7968,1.9531 -7.9062,2.9219 -4.0938,0.9844 -8.5,0.9844 -6.6875,0 -10.0312,-2.0469 Q 14.5,44.3906 14.5,40.2812 q 0,-3.125 2.3906,-4.9062 2.3906,-1.7812 9.625,-3.3906 l 3.0782,-0.6875 q 9.5624,-2.0469 13.5937,-5.7813 4.0313,-3.7344 4.0313,-10.4218 0,-7.62505 -6.0313,-12.07818 -6.0313,-4.4375 -16.5781,-4.4375 -4.3906,0 -9.1563,0.85938 Q 10.6875,0.296875 5.42188,2 l 0,9.2812 q 4.98432,-2.5937 9.81252,-3.89058 4.8281,-1.28124 9.5781,-1.28124 6.3437,0 9.75,2.17187 3.4219,2.17185 3.4219,6.12495 0,3.6563 -2.4688,5.6094 -2.4531,1.9532 -10.8125,3.7656 l -3.125,0.7344 q -8.3437,1.75 -12.06248,5.3906 -3.70312,3.6407 -3.70312,9.9844 0,7.7188 5.4687,11.9063 Q 16.75,56 26.8125,56 q 4.9687,0 9.3594,-0.7344 4.4062,-0.7187 8.1093,-2.1875" />
      <path
         style="stroke-linecap:butt;stroke-linejoin:round"
         inkscape:connector-curvature="0"
         id="BitstreamVeraSans-Roman-70"
         d="m 18.1094,8.20312 0,-29.00002 -9.03128,0 0,75.4844 9.03128,0 0,-8.2969 q 2.8437,4.875 7.1562,7.2344 Q 29.5938,56 35.5938,56 q 9.9687,0 16.1874,-7.9062 6.2344,-7.9063 6.2344,-20.7969 0,-12.8907 -6.2344,-20.81252 -6.2187,-7.90626 -16.1874,-7.90626 -6,0 -10.3282,2.375005 Q 20.9531,3.32812 18.1094,8.20312 M 48.6875,27.2969 q 0,9.9062 -4.0781,15.5469 -4.0782,5.6406 -11.2032,5.6406 -7.1406,0 -11.2187,-5.6406 -4.0781,-5.6407 -4.0781,-15.5469 0,-9.9063 4.0781,-15.5469 4.0781,-5.64062 11.2187,-5.64062 7.125,0 11.2032,5.64062 4.0781,5.6406 4.0781,15.5469" />
      <path
         style="stroke-linecap:butt;stroke-linejoin:round"
         inkscape:connector-curvature="0"
         id="BitstreamVeraSans-Roman-2d"
         d="m 4.89062,31.3906 26.31248,0 0,-8 -26.31248,0 z" />
    </defs>
    <defs
       id="defs129731">
      <path
         style="stroke-linecap:butt;stroke-linejoin:round"
         inkscape:connector-curvature="0"
         id="C1_0_3d37e36b75"
         d="m 54,-54 0,0 3.3818,-36.7034 3.3818,-33.7856 3.3819,-30.995 3.3818,-28.333 3.3818,-25.794 3.3818,-23.375 3.3818,-21.077 3.3818,-18.893 3.3819,-16.824 3.3818,-14.865 3.3818,-13.014 3.3818,-11.27 3.3818,-9.628 3.3814,-8.088 3.382,-6.645 3.382,-5.297 3.382,-4.043 3.382,-2.879 3.382,-1.802 3.381,-0.811 3.382,0.097 3.382,0.927 3.382,1.677 3.382,2.355 3.381,2.958 3.382,3.494 3.382,3.96 3.382,4.364 3.382,4.705 3.382,4.987 3.381,5.211 3.382,5.382 3.382,5.502 3.382,5.571 3.382,5.595 3.381,5.575 3.382,5.513 3.382,5.413 3.382,5.277 3.382,5.106 3.382,4.905 3.381,4.676 3.382,4.421 3.382,4.142 3.382,3.843 3.382,3.526 3.381,3.193 3.382,2.847 3.382,2.491 3.382,2.127 3.382,1.757 3.382,1.387 3.381,1.014 3.382,0.645 3.382,0.28 3.382,-0.075 3.382,-0.422 3.381,-0.756 3.382,-1.073 3.382,-1.373 3.382,-1.653 3.382,-1.909 3.382,-2.14 3.381,-2.342 3.382,-2.513 3.382,-2.651 3.382,-2.753 3.382,-2.816 3.381,-2.838 3.382,-2.816 3.382,-2.748 3.382,-2.631 3.382,-2.462 3.382,-2.24 3.381,-1.96 3.382,-1.621 3.382,-1.222 3.382,-0.756 3.382,-0.224 3.381,0.377 3.382,1.05 3.382,1.799 3.382,2.624 3.382,3.53 3.382,4.518 3.381,5.591 3.382,6.751 3.382,8.002 3.382,9.346 3.382,10.785 3.381,12.321 3.382,13.959 3.382,15.699 3.382,17.545 3.382,19.5 3.382,21.564 3.381,23.744 3.382,26.0372 3.382,28.4508 0,0 0,0 -3.382,0 -3.382,0 -3.381,0 -3.382,0 -3.382,0 -3.382,0 -3.382,0 -3.382,0 -3.381,0 -3.382,0 -3.382,0 -3.382,0 -3.382,0 -3.381,0 -3.382,0 -3.382,0 -3.382,0 -3.382,0 -3.382,0 -3.381,0 -3.382,0 -3.382,0 -3.382,0 -3.382,0 -3.381,0 -3.382,0 -3.382,0 -3.382,0 -3.382,0 -3.382,0 -3.381,0 -3.382,0 -3.382,0 -3.382,0 -3.382,0 -3.381,0 -3.382,0 -3.382,0 -3.382,0 -3.382,0 -3.382,0 -3.381,0 -3.382,0 -3.382,0 -3.382,0 -3.382,0 -3.381,0 -3.382,0 -3.382,0 -3.382,0 -3.382,0 -3.382,0 -3.381,0 -3.382,0 -3.382,0 -3.382,0 -3.382,0 -3.381,0 -3.382,0 -3.382,0 -3.382,0 -3.382,0 -3.382,0 -3.381,0 -3.382,0 -3.382,0 -3.382,0 -3.382,0 -3.381,0 -3.382,0 -3.382,0 -3.382,0 -3.382,0 -3.382,0 -3.381,0 -3.382,0 -3.382,0 -3.382,0 -3.382,0 -3.381,0 -3.382,0 -3.382,0 -3.382,0 -3.382,0 -3.382,0 -3.3814,0 -3.3818,0 -3.3818,0 -3.3818,0 -3.3818,0 -3.3819,0 -3.3818,0 -3.3818,0 -3.3818,0 -3.3818,0 -3.3818,0 -3.3819,0 -3.3818,0 L 54,-54 z" />
    </defs>
    <defs
       id="defs129723">
      <path
         style="stroke-linecap:butt;stroke-linejoin:round"
         inkscape:connector-curvature="0"
         id="C0_0_60b56f680d"
         d="m 54,-54 0,0 3.3818,-12.2747 3.3818,-12.0243 3.3819,-11.7737 3.3818,-11.5233 3.3818,-11.273 3.3818,-11.022 3.3818,-10.772 3.3818,-10.521 3.3819,-10.271 3.3818,-10.02 3.3818,-9.769 3.3818,-9.52 3.3818,-9.268 3.3814,-9.019 3.382,-8.767 3.382,-8.517 3.382,-8.267 3.382,-8.016 3.382,-7.766 3.381,-7.515 3.382,-7.265 3.382,-7.014 3.382,-6.763 3.382,-6.514 3.381,-6.262 3.382,-6.012 3.382,-5.762 3.382,-5.511 3.382,-5.261 3.382,-5.01 3.381,-4.759 3.382,-4.509 3.382,-4.259 3.382,-4.008 3.382,-3.758 3.381,-3.507 3.382,-3.256 3.382,-3.006 3.382,-2.756 3.382,-2.505 3.382,-2.255 3.381,-2.004 3.382,-1.753 3.382,-1.503 3.382,-1.253 3.382,-1.002 3.381,-0.751 3.382,-0.501 3.382,-0.251 3.382,0 3.382,0.251 3.382,0.501 3.381,0.751 3.382,1.002 3.382,1.253 3.382,1.503 3.382,1.753 3.381,2.004 3.382,2.255 3.382,2.505 3.382,2.756 3.382,3.006 3.382,3.256 3.381,3.507 3.382,3.758 3.382,4.008 3.382,4.259 3.382,4.509 3.381,4.759 3.382,5.01 3.382,5.261 3.382,5.511 3.382,5.762 3.382,6.012 3.381,6.262 3.382,6.514 3.382,6.763 3.382,7.014 3.382,7.265 3.381,7.515 3.382,7.766 3.382,8.016 3.382,8.267 3.382,8.517 3.382,8.767 3.381,9.019 3.382,9.268 3.382,9.52 3.382,9.769 3.382,10.02 3.381,10.271 3.382,10.521 3.382,10.772 3.382,11.022 3.382,11.273 3.382,11.5233 3.381,11.7737 3.382,12.0243 3.382,12.2747 0,0 0,0 -3.382,0 -3.382,0 -3.381,0 -3.382,0 -3.382,0 -3.382,0 -3.382,0 -3.382,0 -3.381,0 -3.382,0 -3.382,0 -3.382,0 -3.382,0 -3.381,0 -3.382,0 -3.382,0 -3.382,0 -3.382,0 -3.382,0 -3.381,0 -3.382,0 -3.382,0 -3.382,0 -3.382,0 -3.381,0 -3.382,0 -3.382,0 -3.382,0 -3.382,0 -3.382,0 -3.381,0 -3.382,0 -3.382,0 -3.382,0 -3.382,0 -3.381,0 -3.382,0 -3.382,0 -3.382,0 -3.382,0 -3.382,0 -3.381,0 -3.382,0 -3.382,0 -3.382,0 -3.382,0 -3.381,0 -3.382,0 -3.382,0 -3.382,0 -3.382,0 -3.382,0 -3.381,0 -3.382,0 -3.382,0 -3.382,0 -3.382,0 -3.381,0 -3.382,0 -3.382,0 -3.382,0 -3.382,0 -3.382,0 -3.381,0 -3.382,0 -3.382,0 -3.382,0 -3.382,0 -3.381,0 -3.382,0 -3.382,0 -3.382,0 -3.382,0 -3.382,0 -3.381,0 -3.382,0 -3.382,0 -3.382,0 -3.382,0 -3.381,0 -3.382,0 -3.382,0 -3.382,0 -3.382,0 -3.382,0 -3.3814,0 -3.3818,0 -3.3818,0 -3.3818,0 -3.3818,0 -3.3819,0 -3.3818,0 -3.3818,0 -3.3818,0 -3.3818,0 -3.3818,0 -3.3819,0 -3.3818,0 L 54,-54 z" />
    </defs>
    <defs
       id="defs129828">
      <path
         d="M 54.8906,54.6875 35.1094,28.0781 55.9062,0 45.3125,0 29.3906,21.4844 13.4844,0 2.875,0 24.125,28.6094 4.6875,54.6875 l 10.5937,0 14.5,-19.4844 14.5,19.4844 z"
         id="BitstreamVeraSans-Roman-78"
         inkscape:connector-curvature="0"
         style="stroke-linecap:butt;stroke-linejoin:round" />
    </defs>
    <defs
       id="defs129969">
      <path
         d="m 8.01562,75.875 7.81248,0 Q 23.1406,64.3594 26.7812,53.3125 30.4219,42.2812 30.4219,31.3906 30.4219,20.4531 26.7812,9.375 23.1406,-1.70312 15.8281,-13.1875 l -7.81248,0 Q 14.5,-2 17.7031,9.0625 q 3.2031,11.0625 3.2031,22.3281 0,11.2813 -3.2031,22.2656 -3.2031,11 -9.68748,22.2188"
         id="BitstreamVeraSans-Roman-29"
         inkscape:connector-curvature="0"
         style="stroke-linecap:butt;stroke-linejoin:round" />
      <path
         d="M 31,75.875 Q 24.4688,64.6562 21.2812,53.6562 18.1094,42.6719 18.1094,31.3906 18.1094,20.125 21.3125,9.0625 24.5156,-2 31,-13.1875 l -7.8125,0 Q 15.875,-1.70312 12.2344,9.375 8.59375,20.4531 8.59375,31.3906 q 0,10.8906 3.60935,21.9219 3.625,11.0469 10.9844,22.5625 z"
         id="BitstreamVeraSans-Roman-28"
         inkscape:connector-curvature="0"
         style="stroke-linecap:butt;stroke-linejoin:round" />
      <path
         d="m 8.5,21.5781 0,33.1094 8.9844,0 0,-32.7656 q 0,-7.7657 3.0156,-11.6563 3.0312,-3.87498 9.0938,-3.87498 7.2656,0 11.4843,4.64058 4.2344,4.6407 4.2344,12.6563 l 0,31 8.9844,0 0,-54.6875 -8.9844,0 0,8.40625 Q 42.0469,3.42188 37.7188,1 33.4062,-1.42188 27.6875,-1.42188 18.2656,-1.42188 13.375,4.4375 8.5,10.2969 8.5,21.5781"
         id="BitstreamVeraSans-Roman-75"
         inkscape:connector-curvature="0"
         style="stroke-linecap:butt;stroke-linejoin:round" />
      <path
         d="m 37.1094,75.9844 0,-7.4844 -8.5938,0 q -4.8281,0 -6.7187,-1.9531 -1.875,-1.9531 -1.875,-7.0313 l 0,-4.8281 14.7969,0 0,-6.9844 -14.7969,0 0,-47.7031 -9.0313,0 0,47.7031 -8.59372,0 0,6.9844 8.59372,0 0,3.8125 q 0,9.125 4.25,13.2969 4.25,4.1875 13.4688,4.1875 z"
         id="BitstreamVeraSans-Roman-66"
         inkscape:connector-curvature="0"
         style="stroke-linecap:butt;stroke-linejoin:round" />
      <path
         d="m 10.5938,45.4062 62.5937,0 0,-8.2031 -62.5937,0 z m 0,-19.9218 62.5937,0 0,-8.2969 -62.5937,0 z"
         id="BitstreamVeraSans-Roman-3d"
         inkscape:connector-curvature="0"
         style="stroke-linecap:butt;stroke-linejoin:round" />
    </defs>
    <defs
       id="defs129838">
      <path
         inkscape:connector-curvature="0"
         style="stroke:#000000;stroke-width:0.5;stroke-linecap:butt;stroke-linejoin:round"
         id="m728421d6d4"
         d="M 0,0 4,0" />
    </defs>
    <defs
       id="defs129857">
      <path
         style="stroke-linecap:butt;stroke-linejoin:round"
         inkscape:connector-curvature="0"
         id="BitstreamVeraSans-Roman-32"
         d="m 19.1875,8.29688 34.4219,0 0,-8.29688 -46.28128,0 0,8.29688 Q 12.9375,14.1094 22.625,23.8906 q 9.7031,9.7969 12.1875,12.6406 4.7344,5.3126 6.6094,9 1.8906,3.6876 1.8906,7.25 0,5.8126 -4.0781,9.4688 -4.0782,3.6719 -10.625,3.6719 -4.6406,0 -9.7969,-1.6094 -5.1406,-1.6094 -11,-4.8906 l 0,9.9687 q 5.9531,2.3906 11.125,3.6094 5.1875,1.2188 9.4844,1.2188 11.3281,0 18.0625,-5.6719 6.7344,-5.6563 6.7344,-15.125 0,-4.5 -1.6876,-8.5313 Q 49.8594,40.875 45.4062,35.4062 44.1875,33.9844 37.6406,27.2188 31.1094,20.4531 19.1875,8.29688" />
    </defs>
    <defs
       id="defs129877">
      <path
         style="stroke-linecap:butt;stroke-linejoin:round"
         inkscape:connector-curvature="0"
         id="BitstreamVeraSans-Roman-34"
         d="m 37.7969,64.3125 -24.9063,-38.9219 24.9063,0 z m -2.5938,8.5937 12.4063,0 0,-47.5156 10.4062,0 0,-8.2031 -10.4062,0 0,-17.1875 -9.8125,0 0,17.1875 -32.90628,0 0,9.5156 z" />
    </defs>
    <defs
       id="defs129897">
      <path
         style="stroke-linecap:butt;stroke-linejoin:round"
         inkscape:connector-curvature="0"
         id="BitstreamVeraSans-Roman-36"
         d="m 33.0156,40.375 q -6.6406,0 -10.5312,-4.5469 -3.875,-4.5312 -3.875,-12.4375 0,-7.8594 3.875,-12.4375 3.8906,-4.56248 10.5312,-4.56248 6.6406,0 10.5156,4.56248 3.875,4.5781 3.875,12.4375 0,7.9063 -3.875,12.4375 -3.875,4.5469 -10.5156,4.5469 m 19.5782,30.9219 0,-8.9844 q -3.7188,1.75 -7.5,2.6719 -3.7813,0.9375 -7.5,0.9375 -9.7657,0 -14.9219,-6.5938 -5.1407,-6.5937 -5.875,-19.9219 2.875,4.25 7.2187,6.5157 4.3594,2.2656 9.5782,2.2656 10.9843,0 17.3593,-6.6719 6.375,-6.6562 6.375,-18.125 0,-11.2344 -6.6406,-18.03122 -6.6406,-6.78126 -17.6719,-6.78126 -12.6562,0 -19.3437,9.6875 -6.68752,9.70318 -6.68752,28.10938 0,17.2812 8.20312,27.5625 8.2031,10.2813 22.0156,10.2813 3.7188,0 7.5,-0.7344 3.7813,-0.7344 7.8907,-2.1875" />
    </defs>
    <defs
       id="defs129917">
      <path
         style="stroke-linecap:butt;stroke-linejoin:round"
         inkscape:connector-curvature="0"
         id="BitstreamVeraSans-Roman-38"
         d="m 31.7812,34.625 q -7.0312,0 -11.0624,-3.7656 -4.0157,-3.7656 -4.0157,-10.3438 0,-6.5937 4.0157,-10.3594 4.0312,-3.76558 11.0624,-3.76558 7.0313,0 11.0782,3.78128 4.0625,3.7969 4.0625,10.3437 0,6.5782 -4.0313,10.3438 -4.0156,3.7656 -11.1094,3.7656 m -9.8593,4.1875 Q 15.5781,40.375 12.0312,44.7188 8.5,49.0781 8.5,55.3281 q 0,8.7344 6.2188,13.8125 6.2343,5.0782 17.0624,5.0782 10.8907,0 17.0938,-5.0782 6.2031,-5.0781 6.2031,-13.8125 0,-6.25 -3.5469,-10.6093 Q 48,40.375 41.7031,38.8125 q 7.125,-1.6563 11.0938,-6.5 3.9843,-4.8281 3.9843,-11.7969 0,-10.60935 -6.4687,-16.28122 -6.4687,-5.65626 -18.5313,-5.65626 -12.0468,0 -18.5312,5.65626 -6.46875,5.67187 -6.46875,16.28122 0,6.9688 3.99995,11.7969 4.0157,4.8437 11.1407,6.5 m -3.6094,15.5781 q 0,-5.6562 3.5313,-8.8281 3.5468,-3.1719 9.9374,-3.1719 6.3594,0 9.9376,3.1719 3.5937,3.1719 3.5937,8.8281 0,5.6719 -3.5937,8.8438 -3.5782,3.1718 -9.9376,3.1718 -6.3906,0 -9.9374,-3.1718 -3.5313,-3.1719 -3.5313,-8.8438" />
    </defs>
    <defs
       id="defs129755">
      <path
         style="stroke-linecap:butt;stroke-linejoin:round"
         inkscape:connector-curvature="0"
         id="BitstreamVeraSans-Roman-2212"
         d="m 10.5938,35.5 62.5937,0 0,-8.2969 -62.5937,0 z" />
      <path
         style="stroke-linecap:butt;stroke-linejoin:round"
         inkscape:connector-curvature="0"
         id="BitstreamVeraSans-Roman-30"
         d="m 31.7812,66.4062 q -7.6093,0 -11.4531,-7.5 Q 16.5,51.4219 16.5,36.375 q 0,-14.9844 3.8281,-22.4844 3.8438,-7.49998 11.4531,-7.49998 7.6719,0 11.5,7.49998 3.8438,7.5 3.8438,22.4844 0,15.0469 -3.8438,22.5312 -3.8281,7.5 -11.5,7.5 m 0,7.8126 q 12.2657,0 18.7344,-9.7032 6.4688,-9.6875 6.4688,-28.1406 0,-18.4062 -6.4688,-28.10938 -6.4687,-9.6875 -18.7344,-9.6875 -12.25,0 -18.7187,9.6875 -6.46875,9.70318 -6.46875,28.10938 0,18.4531 6.46875,28.1406 6.4687,9.7032 18.7187,9.7032" />
      <path
         style="stroke-linecap:butt;stroke-linejoin:round"
         inkscape:connector-curvature="0"
         id="BitstreamVeraSans-Roman-31"
         d="m 12.4062,8.29688 16.1094,0 0,55.62502 -17.5312,-3.5157 0,8.9844 17.4375,3.5156 9.8593,0 0,-64.60932 16.1094,0 0,-8.29688 -41.9844,0 z" />
    </defs>
    <defs
       id="defs129747">
      <path
         inkscape:connector-curvature="0"
         style="stroke:#000000;stroke-width:0.5;stroke-linecap:butt;stroke-linejoin:round"
         id="m93b0483c22"
         d="M 0,0 0,-4" />
    </defs>
    <defs
       id="defs129777">
      <path
         style="stroke-linecap:butt;stroke-linejoin:round"
         inkscape:connector-curvature="0"
         id="BitstreamVeraSans-Roman-35"
         d="m 10.7969,72.9062 38.7187,0 0,-8.3124 -29.6875,0 0,-17.8594 q 2.1407,0.7344 4.2813,1.0937 2.1562,0.3594 4.3125,0.3594 12.2031,0 19.3281,-6.6875 7.1406,-6.6875 7.1406,-18.1094 0,-11.7656 -7.3281,-18.29685 -7.3281,-6.51563 -20.6563,-6.51563 -4.5937,0 -9.3593,0.781255 -4.75,0.78125 -9.82815,2.343745 l 0,9.92188 q 4.39065,-2.39062 9.07815,-3.5625 4.6875,-1.17188 9.9062,-1.17188 8.4531,0 13.375,4.43748 4.9375,4.4375 4.9375,12.0625 0,7.6094 -4.9375,12.0469 -4.9219,4.4531 -13.375,4.4531 -3.9531,0 -7.8906,-0.875 -3.9219,-0.875 -8.0156,-2.7344 z" />
    </defs>
  </defs>
  <path
     d="M 0,432 432,432 432,0 0,0 z"
     style="fill:#ffffff;stroke-linecap:butt;stroke-linejoin:round"
     id="path129716"
     inkscape:connector-curvature="0" />
  <path
     inkscape:connector-curvature="0"
     id="path129720"
     style="fill:#ffffff;stroke-linecap:butt;stroke-linejoin:round"
     d="m 54,378 334.8,0 0,-334.8 -334.8,0 z" />
  <use
     style="fill:#0000ff;fill-opacity:0.3;stroke:#000000;stroke-linecap:butt;stroke-linejoin:round;stroke-opacity:0.3"
     x="0"
     xlink:href="#C0_0_60b56f680d"
     y="432"
     id="use129728"
     width="432"
     height="432" />
  <use
     style="fill:#ff0000;fill-opacity:0.3;stroke:#ff0000;stroke-linecap:butt;stroke-linejoin:round;stroke-opacity:0.3"
     x="0"
     xlink:href="#C1_0_3d37e36b75"
     y="432"
     id="use129736"
     width="432"
     height="432" />
  <path
     sodipodi:type="inkscape:offset"
     inkscape:radius="0"
     inkscape:original="M 219.71875 71.125 L 216.3125 71.375 L 212.9375 71.875 L 209.5625 72.625 L 206.1875 73.625 L 202.8125 74.875 L 199.40625 76.40625 L 196.03125 78.15625 L 192.65625 80.15625 L 189.28125 82.40625 L 185.90625 84.90625 L 182.5 87.65625 L 179.125 90.65625 L 175.75 93.9375 L 172.375 97.4375 L 168.96875 101.1875 L 165.59375 105.1875 L 162.21875 109.46875 L 158.84375 113.96875 L 155.46875 118.71875 L 152.0625 123.75 L 148.6875 129 L 145.3125 134.5 L 141.9375 140.28125 L 138.53125 146.28125 L 135.15625 152.53125 L 131.78125 159.0625 L 128.40625 165.8125 L 125.03125 172.84375 L 121.625 180.09375 L 118.25 187.625 L 114.875 195.375 L 111.5 203.40625 L 108.09375 211.65625 L 104.71875 220.1875 L 101.34375 228.9375 L 97.96875 237.96875 L 94.59375 247.25 L 91.1875 256.75 L 87.8125 266.53125 L 84.4375 276.53125 L 81.0625 286.8125 L 77.6875 297.34375 L 74.28125 308.09375 L 70.90625 319.125 L 67.53125 330.40625 L 64.15625 341.9375 L 60.75 353.6875 L 57.375 365.71875 L 54 378 L 388.8125 378 L 385.40625 365.71875 L 382.03125 353.6875 L 378.65625 341.9375 L 375.28125 330.40625 L 371.90625 319.125 L 368.5 308.09375 L 365.125 297.34375 L 361.75 286.8125 L 358.375 276.53125 L 354.96875 266.53125 L 351.59375 256.75 L 348.21875 247.25 L 344.84375 237.96875 L 341.46875 228.9375 L 338.0625 220.1875 L 334.6875 211.65625 L 331.3125 203.40625 L 327.9375 195.375 L 324.53125 187.625 L 321.15625 180.09375 L 317.78125 172.84375 L 314.40625 165.8125 L 311.03125 159.0625 L 307.625 152.53125 L 304.25 146.28125 L 300.875 140.28125 L 297.5 134.5 L 294.09375 129 L 290.71875 123.75 L 287.34375 118.71875 L 283.96875 113.96875 L 280.59375 109.46875 L 277.1875 105.1875 L 273.8125 101.1875 L 270.4375 97.4375 L 267.0625 93.9375 L 263.6875 90.65625 L 260.28125 87.65625 L 256.90625 84.90625 L 253.53125 82.40625 L 250.15625 80.15625 L 246.75 78.15625 L 243.375 76.40625 L 240 74.875 L 236.625 73.625 L 233.25 72.625 L 229.84375 71.875 L 226.46875 71.375 L 223.09375 71.125 L 219.71875 71.125 z "
     style="fill:none;stroke:#0000ff;stroke-width:4;stroke-linecap:square;stroke-linejoin:round"
     id="path131160"
     d="m 219.71875,71.125 -3.40625,0.25 -3.375,0.5 -3.375,0.75 -3.375,1 -3.375,1.25 -3.40625,1.53125 -3.375,1.75 -3.375,2 -3.375,2.25 -3.375,2.5 -3.40625,2.75 -3.375,3 -3.375,3.28125 -3.375,3.5 -3.40625,3.75 -3.375,4 -3.375,4.28125 -3.375,4.5 -3.375,4.75 -3.40625,5.03125 -3.375,5.25 -3.375,5.5 -3.375,5.78125 -3.40625,6 -3.375,6.25 -3.375,6.53125 -3.375,6.75 -3.375,7.03125 -3.40625,7.25 -3.375,7.53125 -3.375,7.75 -3.375,8.03125 -3.40625,8.25 -3.375,8.53125 -3.375,8.75 -3.375,9.03125 -3.375,9.28125 -3.40625,9.5 -3.375,9.78125 -3.375,10 -3.375,10.28125 -3.375,10.53125 -3.40625,10.75 -3.375,11.03125 -3.375,11.28125 -3.375,11.53125 -3.40625,11.75 -3.375,12.03125 L 54,378 l 334.8125,0 -3.40625,-12.28125 -3.375,-12.03125 -3.375,-11.75 -3.375,-11.53125 -3.375,-11.28125 -3.40625,-11.03125 -3.375,-10.75 -3.375,-10.53125 -3.375,-10.28125 -3.40625,-10 -3.375,-9.78125 -3.375,-9.5 -3.375,-9.28125 -3.375,-9.03125 -3.40625,-8.75 -3.375,-8.53125 -3.375,-8.25 -3.375,-8.03125 -3.40625,-7.75 -3.375,-7.53125 -3.375,-7.25 -3.375,-7.03125 -3.375,-6.75 -3.40625,-6.53125 -3.375,-6.25 -3.375,-6 -3.375,-5.78125 -3.40625,-5.5 -3.375,-5.25 -3.375,-5.03125 -3.375,-4.75 -3.375,-4.5 -3.40625,-4.28125 -3.375,-4 -3.375,-3.75 -3.375,-3.5 -3.375,-3.28125 -3.40625,-3 -3.375,-2.75 -3.375,-2.5 -3.375,-2.25 -3.40625,-2 -3.375,-1.75 L 240,74.875 l -3.375,-1.25 -3.375,-1 -3.40625,-0.75 -3.375,-0.5 -3.375,-0.25 -3.375,0 z" />
  <path
     inkscape:connector-curvature="0"
     id="path129742"
     style="fill:none;stroke:#ff0000;stroke-width:4;stroke-linecap:square;stroke-linejoin:round"
     d="m 54,378 3.3818,-36.703 3.3818,-33.786 3.3819,-30.995 3.3818,-28.333 3.3818,-25.794 3.3818,-23.375 3.3818,-21.077 3.3818,-18.893 3.3819,-16.824 3.3818,-14.865 3.3818,-13.014 3.3818,-11.27 3.3818,-9.6283 3.3814,-8.0876 3.382,-6.6448 3.382,-5.2975 3.382,-4.043 3.382,-2.8788 3.382,-1.8024 3.381,-0.811 3.382,0.0977 3.382,0.9264 3.382,1.6778 3.382,2.3543 3.381,2.9587 3.382,3.4932 3.382,3.9607 3.382,4.3638 3.382,4.7048 3.382,4.9866 3.381,5.2115 3.382,5.3819 3.382,5.502 3.382,5.571 3.382,5.595 3.381,5.575 3.382,5.513 3.382,5.413 3.382,5.277 3.382,5.106 3.382,4.905 3.381,4.676 3.382,4.421 3.382,4.142 3.382,3.843 3.382,3.526 3.381,3.193 3.382,2.847 3.382,2.491 3.382,2.127 3.382,1.757 3.382,1.387 3.381,1.014 3.382,0.645 3.382,0.28 3.382,-0.075 3.382,-0.422 3.381,-0.756 3.382,-1.073 3.382,-1.373 3.382,-1.653 3.382,-1.909 3.382,-2.14 3.381,-2.342 3.382,-2.513 3.382,-2.651 3.382,-2.753 3.382,-2.816 3.381,-2.838 3.382,-2.816 3.382,-2.748 3.382,-2.631 3.382,-2.462 3.382,-2.24 3.381,-1.96 3.382,-1.621 3.382,-1.222 3.382,-0.756 3.382,-0.224 3.381,0.377 3.382,1.05 3.382,1.799 3.382,2.624 3.382,3.53 3.382,4.518 3.381,5.591 3.382,6.751 3.382,8.002 3.382,9.346 3.382,10.785 3.381,12.321 3.382,13.959 3.382,15.699 3.382,17.545 3.382,19.5 3.382,21.564 3.381,23.744 3.382,26.037 L 388.8,378"
     clip-path="url(#p7b0b5c6bc8)" />
  <use
     style="stroke:#000000;stroke-width:0.5;stroke-linecap:butt;stroke-linejoin:round"
     x="54"
     xlink:href="#m93b0483c22"
     y="378"
     id="use129752"
     width="432"
     height="432" />
  <use
     xlink:href="#BitstreamVeraSans-Roman-2212"
     id="use129762"
     style="stroke-linecap:butt;stroke-linejoin:round"
     x="0"
     y="0"
     width="432"
     height="432"
     transform="matrix(0.1,0,0,-0.1,41.128125,389.59844)" />
  <use
     x="83.789062"
     xlink:href="#BitstreamVeraSans-Roman-31"
     id="use129764"
     style="stroke-linecap:butt;stroke-linejoin:round"
     y="0"
     width="432"
     height="432"
     transform="matrix(0.1,0,0,-0.1,41.128125,389.59844)" />
  <use
     x="147.41211"
     xlink:href="#BitstreamVeraSans-Roman-30"
     id="use129766"
     style="stroke-linecap:butt;stroke-linejoin:round"
     y="0"
     width="432"
     height="432"
     transform="matrix(0.1,0,0,-0.1,41.128125,389.59844)" />
  <use
     x="211.03516"
     xlink:href="#BitstreamVeraSans-Roman-30"
     id="use129768"
     style="stroke-linecap:butt;stroke-linejoin:round"
     y="0"
     width="432"
     height="432"
     transform="matrix(0.1,0,0,-0.1,41.128125,389.59844)" />
  <use
     style="stroke:#000000;stroke-width:0.5;stroke-linecap:butt;stroke-linejoin:round"
     x="137.7"
     xlink:href="#m93b0483c22"
     y="378"
     id="use129774"
     width="432"
     height="432" />
  <use
     xlink:href="#BitstreamVeraSans-Roman-2212"
     id="use129782"
     style="stroke-linecap:butt;stroke-linejoin:round"
     x="0"
     y="0"
     width="432"
     height="432"
     transform="matrix(0.1,0,0,-0.1,128.00937,389.59844)" />
  <use
     x="83.789062"
     xlink:href="#BitstreamVeraSans-Roman-35"
     id="use129784"
     style="stroke-linecap:butt;stroke-linejoin:round"
     y="0"
     width="432"
     height="432"
     transform="matrix(0.1,0,0,-0.1,128.00937,389.59844)" />
  <use
     x="147.41211"
     xlink:href="#BitstreamVeraSans-Roman-30"
     id="use129786"
     style="stroke-linecap:butt;stroke-linejoin:round"
     y="0"
     width="432"
     height="432"
     transform="matrix(0.1,0,0,-0.1,128.00937,389.59844)" />
  <use
     style="stroke:#000000;stroke-width:0.5;stroke-linecap:butt;stroke-linejoin:round"
     x="221.39999"
     xlink:href="#m93b0483c22"
     y="378"
     id="use129792"
     width="432"
     height="432" />
  <use
     xlink:href="#BitstreamVeraSans-Roman-30"
     id="use129797"
     style="stroke-linecap:butt;stroke-linejoin:round"
     x="0"
     y="0"
     width="432"
     height="432"
     transform="matrix(0.1,0,0,-0.1,218.88047,389.59844)" />
  <use
     style="stroke:#000000;stroke-width:0.5;stroke-linecap:butt;stroke-linejoin:round"
     x="305.10001"
     xlink:href="#m93b0483c22"
     y="378"
     id="use129803"
     width="432"
     height="432" />
  <use
     xlink:href="#BitstreamVeraSans-Roman-35"
     id="use129808"
     style="stroke-linecap:butt;stroke-linejoin:round"
     x="0"
     y="0"
     width="432"
     height="432"
     transform="matrix(0.1,0,0,-0.1,299.45547,389.59844)" />
  <use
     x="63.623047"
     xlink:href="#BitstreamVeraSans-Roman-30"
     id="use129810"
     style="stroke-linecap:butt;stroke-linejoin:round"
     y="0"
     width="432"
     height="432"
     transform="matrix(0.1,0,0,-0.1,299.45547,389.59844)" />
  <use
     style="stroke:#000000;stroke-width:0.5;stroke-linecap:butt;stroke-linejoin:round"
     x="388.79999"
     xlink:href="#m93b0483c22"
     y="378"
     id="use129816"
     width="432"
     height="432" />
  <use
     xlink:href="#BitstreamVeraSans-Roman-31"
     id="use129821"
     style="stroke-linecap:butt;stroke-linejoin:round"
     x="0"
     y="0"
     width="432"
     height="432"
     transform="matrix(0.1,0,0,-0.1,380.1375,389.59844)" />
  <use
     x="63.623047"
     xlink:href="#BitstreamVeraSans-Roman-30"
     id="use129823"
     style="stroke-linecap:butt;stroke-linejoin:round"
     y="0"
     width="432"
     height="432"
     transform="matrix(0.1,0,0,-0.1,380.1375,389.59844)" />
  <use
     x="127.24609"
     xlink:href="#BitstreamVeraSans-Roman-30"
     id="use129825"
     style="stroke-linecap:butt;stroke-linejoin:round"
     y="0"
     width="432"
     height="432"
     transform="matrix(0.1,0,0,-0.1,380.1375,389.59844)" />
  <use
     height="432"
     width="432"
     y="0"
     x="0"
     style="stroke-linecap:butt;stroke-linejoin:round"
     id="use129833"
     xlink:href="#BitstreamVeraSans-Roman-78"
     transform="matrix(0.1,0,0,-0.1,218.74844,404.27656)" />
  <use
     style="stroke:#000000;stroke-width:0.5;stroke-linecap:butt;stroke-linejoin:round"
     x="54"
     xlink:href="#m728421d6d4"
     y="378"
     id="use129843"
     width="432"
     height="432" />
  <use
     xlink:href="#BitstreamVeraSans-Roman-30"
     id="use129848"
     style="stroke-linecap:butt;stroke-linejoin:round"
     x="0"
     y="0"
     width="432"
     height="432"
     transform="matrix(0.1,0,0,-0.1,44.960937,380.75937)" />
  <use
     style="stroke:#000000;stroke-width:0.5;stroke-linecap:butt;stroke-linejoin:round"
     x="54"
     xlink:href="#m728421d6d4"
     y="322.20001"
     id="use129854"
     width="432"
     height="432" />
  <use
     xlink:href="#BitstreamVeraSans-Roman-32"
     id="use129862"
     style="stroke-linecap:butt;stroke-linejoin:round"
     x="0"
     y="0"
     width="432"
     height="432"
     transform="matrix(0.1,0,0,-0.1,25.946875,324.95938)" />
  <use
     x="63.623047"
     xlink:href="#BitstreamVeraSans-Roman-30"
     id="use129864"
     style="stroke-linecap:butt;stroke-linejoin:round"
     y="0"
     width="432"
     height="432"
     transform="matrix(0.1,0,0,-0.1,25.946875,324.95938)" />
  <use
     x="127.24609"
     xlink:href="#BitstreamVeraSans-Roman-30"
     id="use129866"
     style="stroke-linecap:butt;stroke-linejoin:round"
     y="0"
     width="432"
     height="432"
     transform="matrix(0.1,0,0,-0.1,25.946875,324.95938)" />
  <use
     x="190.86914"
     xlink:href="#BitstreamVeraSans-Roman-30"
     id="use129868"
     style="stroke-linecap:butt;stroke-linejoin:round"
     y="0"
     width="432"
     height="432"
     transform="matrix(0.1,0,0,-0.1,25.946875,324.95938)" />
  <use
     style="stroke:#000000;stroke-width:0.5;stroke-linecap:butt;stroke-linejoin:round"
     x="54"
     xlink:href="#m728421d6d4"
     y="266.39999"
     id="use129874"
     width="432"
     height="432" />
  <use
     xlink:href="#BitstreamVeraSans-Roman-34"
     id="use129882"
     style="stroke-linecap:butt;stroke-linejoin:round"
     x="0"
     y="0"
     width="432"
     height="432"
     transform="matrix(0.1,0,0,-0.1,25.703125,269.15937)" />
  <use
     x="63.623047"
     xlink:href="#BitstreamVeraSans-Roman-30"
     id="use129884"
     style="stroke-linecap:butt;stroke-linejoin:round"
     y="0"
     width="432"
     height="432"
     transform="matrix(0.1,0,0,-0.1,25.703125,269.15937)" />
  <use
     x="127.24609"
     xlink:href="#BitstreamVeraSans-Roman-30"
     id="use129886"
     style="stroke-linecap:butt;stroke-linejoin:round"
     y="0"
     width="432"
     height="432"
     transform="matrix(0.1,0,0,-0.1,25.703125,269.15937)" />
  <use
     x="190.86914"
     xlink:href="#BitstreamVeraSans-Roman-30"
     id="use129888"
     style="stroke-linecap:butt;stroke-linejoin:round"
     y="0"
     width="432"
     height="432"
     transform="matrix(0.1,0,0,-0.1,25.703125,269.15937)" />
  <use
     style="stroke:#000000;stroke-width:0.5;stroke-linecap:butt;stroke-linejoin:round"
     x="54"
     xlink:href="#m728421d6d4"
     y="210.60001"
     id="use129894"
     width="432"
     height="432" />
  <use
     xlink:href="#BitstreamVeraSans-Roman-36"
     id="use129902"
     style="stroke-linecap:butt;stroke-linejoin:round"
     x="0"
     y="0"
     width="432"
     height="432"
     transform="matrix(0.1,0,0,-0.1,25.9125,213.35937)" />
  <use
     x="63.623047"
     xlink:href="#BitstreamVeraSans-Roman-30"
     id="use129904"
     style="stroke-linecap:butt;stroke-linejoin:round"
     y="0"
     width="432"
     height="432"
     transform="matrix(0.1,0,0,-0.1,25.9125,213.35937)" />
  <use
     x="127.24609"
     xlink:href="#BitstreamVeraSans-Roman-30"
     id="use129906"
     style="stroke-linecap:butt;stroke-linejoin:round"
     y="0"
     width="432"
     height="432"
     transform="matrix(0.1,0,0,-0.1,25.9125,213.35937)" />
  <use
     x="190.86914"
     xlink:href="#BitstreamVeraSans-Roman-30"
     id="use129908"
     style="stroke-linecap:butt;stroke-linejoin:round"
     y="0"
     width="432"
     height="432"
     transform="matrix(0.1,0,0,-0.1,25.9125,213.35937)" />
  <use
     style="stroke:#000000;stroke-width:0.5;stroke-linecap:butt;stroke-linejoin:round"
     x="54"
     xlink:href="#m728421d6d4"
     y="154.8"
     id="use129914"
     width="432"
     height="432" />
  <use
     xlink:href="#BitstreamVeraSans-Roman-38"
     id="use129922"
     style="stroke-linecap:butt;stroke-linejoin:round"
     x="0"
     y="0"
     width="432"
     height="432"
     transform="matrix(0.1,0,0,-0.1,25.892187,157.55937)" />
  <use
     x="63.623047"
     xlink:href="#BitstreamVeraSans-Roman-30"
     id="use129924"
     style="stroke-linecap:butt;stroke-linejoin:round"
     y="0"
     width="432"
     height="432"
     transform="matrix(0.1,0,0,-0.1,25.892187,157.55937)" />
  <use
     x="127.24609"
     xlink:href="#BitstreamVeraSans-Roman-30"
     id="use129926"
     style="stroke-linecap:butt;stroke-linejoin:round"
     y="0"
     width="432"
     height="432"
     transform="matrix(0.1,0,0,-0.1,25.892187,157.55937)" />
  <use
     x="190.86914"
     xlink:href="#BitstreamVeraSans-Roman-30"
     id="use129928"
     style="stroke-linecap:butt;stroke-linejoin:round"
     y="0"
     width="432"
     height="432"
     transform="matrix(0.1,0,0,-0.1,25.892187,157.55937)" />
  <use
     style="stroke:#000000;stroke-width:0.5;stroke-linecap:butt;stroke-linejoin:round"
     x="54"
     xlink:href="#m728421d6d4"
     y="99"
     id="use129934"
     width="432"
     height="432" />
  <use
     xlink:href="#BitstreamVeraSans-Roman-31"
     id="use129939"
     style="stroke-linecap:butt;stroke-linejoin:round"
     x="0"
     y="0"
     width="432"
     height="432"
     transform="matrix(0.1,0,0,-0.1,19.95,101.75938)" />
  <use
     x="63.623047"
     xlink:href="#BitstreamVeraSans-Roman-30"
     id="use129941"
     style="stroke-linecap:butt;stroke-linejoin:round"
     y="0"
     width="432"
     height="432"
     transform="matrix(0.1,0,0,-0.1,19.95,101.75938)" />
  <use
     x="127.24609"
     xlink:href="#BitstreamVeraSans-Roman-30"
     id="use129943"
     style="stroke-linecap:butt;stroke-linejoin:round"
     y="0"
     width="432"
     height="432"
     transform="matrix(0.1,0,0,-0.1,19.95,101.75938)" />
  <use
     x="190.86914"
     xlink:href="#BitstreamVeraSans-Roman-30"
     id="use129945"
     style="stroke-linecap:butt;stroke-linejoin:round"
     y="0"
     width="432"
     height="432"
     transform="matrix(0.1,0,0,-0.1,19.95,101.75938)" />
  <use
     x="254.49219"
     xlink:href="#BitstreamVeraSans-Roman-30"
     id="use129947"
     style="stroke-linecap:butt;stroke-linejoin:round"
     y="0"
     width="432"
     height="432"
     transform="matrix(0.1,0,0,-0.1,19.95,101.75938)" />
  <use
     style="stroke:#000000;stroke-width:0.5;stroke-linecap:butt;stroke-linejoin:round"
     x="54"
     xlink:href="#m728421d6d4"
     y="43.200001"
     id="use129953"
     width="432"
     height="432" />
  <use
     xlink:href="#BitstreamVeraSans-Roman-31"
     id="use129958"
     style="stroke-linecap:butt;stroke-linejoin:round"
     x="0"
     y="0"
     width="432"
     height="432"
     transform="matrix(0.1,0,0,-0.1,19.95,45.959375)" />
  <use
     x="63.623047"
     xlink:href="#BitstreamVeraSans-Roman-32"
     id="use129960"
     style="stroke-linecap:butt;stroke-linejoin:round"
     y="0"
     width="432"
     height="432"
     transform="matrix(0.1,0,0,-0.1,19.95,45.959375)" />
  <use
     x="127.24609"
     xlink:href="#BitstreamVeraSans-Roman-30"
     id="use129962"
     style="stroke-linecap:butt;stroke-linejoin:round"
     y="0"
     width="432"
     height="432"
     transform="matrix(0.1,0,0,-0.1,19.95,45.959375)" />
  <use
     x="190.86914"
     xlink:href="#BitstreamVeraSans-Roman-30"
     id="use129964"
     style="stroke-linecap:butt;stroke-linejoin:round"
     y="0"
     width="432"
     height="432"
     transform="matrix(0.1,0,0,-0.1,19.95,45.959375)" />
  <use
     x="254.49219"
     xlink:href="#BitstreamVeraSans-Roman-30"
     id="use129966"
     style="stroke-linecap:butt;stroke-linejoin:round"
     y="0"
     width="432"
     height="432"
     transform="matrix(0.1,0,0,-0.1,19.95,45.959375)" />
  <use
     height="432"
     width="432"
     y="0"
     x="0"
     style="stroke-linecap:butt;stroke-linejoin:round"
     id="use129978"
     xlink:href="#BitstreamVeraSans-Roman-75"
     transform="matrix(0,-0.1,-0.1,0,12.870313,225.725)" />
  <use
     height="432"
     width="432"
     y="0"
     style="stroke-linecap:butt;stroke-linejoin:round"
     id="use129980"
     xlink:href="#BitstreamVeraSans-Roman-3d"
     x="63.378906"
     transform="matrix(0,-0.1,-0.1,0,12.870313,225.725)" />
  <use
     height="432"
     width="432"
     y="0"
     style="stroke-linecap:butt;stroke-linejoin:round"
     id="use129982"
     xlink:href="#BitstreamVeraSans-Roman-66"
     x="147.16797"
     transform="matrix(0,-0.1,-0.1,0,12.870313,225.725)" />
  <use
     height="432"
     width="432"
     y="0"
     style="stroke-linecap:butt;stroke-linejoin:round"
     id="use129984"
     xlink:href="#BitstreamVeraSans-Roman-28"
     x="182.37305"
     transform="matrix(0,-0.1,-0.1,0,12.870313,225.725)" />
  <use
     height="432"
     width="432"
     y="0"
     style="stroke-linecap:butt;stroke-linejoin:round"
     id="use129986"
     xlink:href="#BitstreamVeraSans-Roman-78"
     x="221.38672"
     transform="matrix(0,-0.1,-0.1,0,12.870313,225.725)" />
  <use
     height="432"
     width="432"
     y="0"
     style="stroke-linecap:butt;stroke-linejoin:round"
     id="use129988"
     xlink:href="#BitstreamVeraSans-Roman-29"
     x="280.56641"
     transform="matrix(0,-0.1,-0.1,0,12.870313,225.725)" />
  <path
     inkscape:connector-curvature="0"
     id="path129991"
     style="fill:none;stroke:#000000;stroke-linecap:butt;stroke-linejoin:round"
     d="m 54,378 334.8,0" />
  <path
     inkscape:connector-curvature="0"
     id="path129994"
     style="fill:none;stroke:#000000;stroke-linecap:butt;stroke-linejoin:round"
     d="M 54,378 54,43.2" />
  <use
     xlink:href="#BitstreamVeraSans-Roman-43"
     id="use130021"
     style="stroke-linecap:butt;stroke-linejoin:round"
     x="0"
     y="0"
     width="432"
     height="432"
     transform="matrix(0.12,0,0,-0.12,91.33875,38.2)" />
  <use
     x="69.824219"
     xlink:href="#BitstreamVeraSans-Roman-6f"
     id="use130023"
     style="stroke-linecap:butt;stroke-linejoin:round"
     y="0"
     width="432"
     height="432"
     transform="matrix(0.12,0,0,-0.12,91.33875,38.2)" />
  <use
     x="131.00586"
     xlink:href="#BitstreamVeraSans-Roman-6d"
     id="use130025"
     style="stroke-linecap:butt;stroke-linejoin:round"
     y="0"
     width="432"
     height="432"
     transform="matrix(0.12,0,0,-0.12,91.33875,38.2)" />
  <use
     x="228.41797"
     xlink:href="#BitstreamVeraSans-Roman-70"
     id="use130027"
     style="stroke-linecap:butt;stroke-linejoin:round"
     y="0"
     width="432"
     height="432"
     transform="matrix(0.12,0,0,-0.12,91.33875,38.2)" />
  <use
     x="291.89453"
     xlink:href="#BitstreamVeraSans-Roman-61"
     id="use130029"
     style="stroke-linecap:butt;stroke-linejoin:round"
     y="0"
     width="432"
     height="432"
     transform="matrix(0.12,0,0,-0.12,91.33875,38.2)" />
  <use
     x="353.17383"
     xlink:href="#BitstreamVeraSans-Roman-72"
     id="use130031"
     style="stroke-linecap:butt;stroke-linejoin:round"
     y="0"
     width="432"
     height="432"
     transform="matrix(0.12,0,0,-0.12,91.33875,38.2)" />
  <use
     x="394.28711"
     xlink:href="#BitstreamVeraSans-Roman-69"
     id="use130033"
     style="stroke-linecap:butt;stroke-linejoin:round"
     y="0"
     width="432"
     height="432"
     transform="matrix(0.12,0,0,-0.12,91.33875,38.2)" />
  <use
     x="422.07031"
     xlink:href="#BitstreamVeraSans-Roman-73"
     id="use130035"
     style="stroke-linecap:butt;stroke-linejoin:round"
     y="0"
     width="432"
     height="432"
     transform="matrix(0.12,0,0,-0.12,91.33875,38.2)" />
  <use
     x="474.16992"
     xlink:href="#BitstreamVeraSans-Roman-6f"
     id="use130037"
     style="stroke-linecap:butt;stroke-linejoin:round"
     y="0"
     width="432"
     height="432"
     transform="matrix(0.12,0,0,-0.12,91.33875,38.2)" />
  <use
     x="535.35156"
     xlink:href="#BitstreamVeraSans-Roman-6e"
     id="use130039"
     style="stroke-linecap:butt;stroke-linejoin:round"
     y="0"
     width="432"
     height="432"
     transform="matrix(0.12,0,0,-0.12,91.33875,38.2)" />
  <use
     x="598.73047"
     xlink:href="#BitstreamVeraSans-Roman-20"
     id="use130041"
     style="stroke-linecap:butt;stroke-linejoin:round"
     y="0"
     width="432"
     height="432"
     transform="matrix(0.12,0,0,-0.12,91.33875,38.2)" />
  <use
     x="630.51758"
     xlink:href="#BitstreamVeraSans-Roman-6f"
     id="use130043"
     style="stroke-linecap:butt;stroke-linejoin:round"
     y="0"
     width="432"
     height="432"
     transform="matrix(0.12,0,0,-0.12,91.33875,38.2)" />
  <use
     x="691.69922"
     xlink:href="#BitstreamVeraSans-Roman-66"
     id="use130045"
     style="stroke-linecap:butt;stroke-linejoin:round"
     y="0"
     width="432"
     height="432"
     transform="matrix(0.12,0,0,-0.12,91.33875,38.2)" />
  <use
     x="726.9043"
     xlink:href="#BitstreamVeraSans-Roman-20"
     id="use130047"
     style="stroke-linecap:butt;stroke-linejoin:round"
     y="0"
     width="432"
     height="432"
     transform="matrix(0.12,0,0,-0.12,91.33875,38.2)" />
  <use
     x="758.69141"
     xlink:href="#BitstreamVeraSans-Roman-55"
     id="use130049"
     style="stroke-linecap:butt;stroke-linejoin:round"
     y="0"
     width="432"
     height="432"
     transform="matrix(0.12,0,0,-0.12,91.33875,38.2)" />
  <use
     x="831.88477"
     xlink:href="#BitstreamVeraSans-Roman-74"
     id="use130051"
     style="stroke-linecap:butt;stroke-linejoin:round"
     y="0"
     width="432"
     height="432"
     transform="matrix(0.12,0,0,-0.12,91.33875,38.2)" />
  <use
     x="871.09375"
     xlink:href="#BitstreamVeraSans-Roman-69"
     id="use130053"
     style="stroke-linecap:butt;stroke-linejoin:round"
     y="0"
     width="432"
     height="432"
     transform="matrix(0.12,0,0,-0.12,91.33875,38.2)" />
  <use
     x="898.87695"
     xlink:href="#BitstreamVeraSans-Roman-6c"
     id="use130055"
     style="stroke-linecap:butt;stroke-linejoin:round"
     y="0"
     width="432"
     height="432"
     transform="matrix(0.12,0,0,-0.12,91.33875,38.2)" />
  <use
     x="926.66016"
     xlink:href="#BitstreamVeraSans-Roman-69"
     id="use130057"
     style="stroke-linecap:butt;stroke-linejoin:round"
     y="0"
     width="432"
     height="432"
     transform="matrix(0.12,0,0,-0.12,91.33875,38.2)" />
  <use
     x="954.44336"
     xlink:href="#BitstreamVeraSans-Roman-74"
     id="use130059"
     style="stroke-linecap:butt;stroke-linejoin:round"
     y="0"
     width="432"
     height="432"
     transform="matrix(0.12,0,0,-0.12,91.33875,38.2)" />
  <use
     x="993.65234"
     xlink:href="#BitstreamVeraSans-Roman-79"
     id="use130061"
     style="stroke-linecap:butt;stroke-linejoin:round"
     y="0"
     width="432"
     height="432"
     transform="matrix(0.12,0,0,-0.12,91.33875,38.2)" />
  <use
     x="1052.832"
     xlink:href="#BitstreamVeraSans-Roman-20"
     id="use130063"
     style="stroke-linecap:butt;stroke-linejoin:round"
     y="0"
     width="432"
     height="432"
     transform="matrix(0.12,0,0,-0.12,91.33875,38.2)" />
  <use
     x="1084.6191"
     xlink:href="#BitstreamVeraSans-Roman-50"
     id="use130065"
     style="stroke-linecap:butt;stroke-linejoin:round"
     y="0"
     width="432"
     height="432"
     transform="matrix(0.12,0,0,-0.12,91.33875,38.2)" />
  <use
     x="1143.1719"
     xlink:href="#BitstreamVeraSans-Roman-72"
     id="use130067"
     style="stroke-linecap:butt;stroke-linejoin:round"
     y="0"
     width="432"
     height="432"
     transform="matrix(0.12,0,0,-0.12,91.33875,38.2)" />
  <use
     x="1182.0352"
     xlink:href="#BitstreamVeraSans-Roman-6f"
     id="use130069"
     style="stroke-linecap:butt;stroke-linejoin:round"
     y="0"
     width="432"
     height="432"
     transform="matrix(0.12,0,0,-0.12,91.33875,38.2)" />
  <use
     x="1243.2168"
     xlink:href="#BitstreamVeraSans-Roman-66"
     id="use130071"
     style="stroke-linecap:butt;stroke-linejoin:round"
     y="0"
     width="432"
     height="432"
     transform="matrix(0.12,0,0,-0.12,91.33875,38.2)" />
  <use
     x="1278.4219"
     xlink:href="#BitstreamVeraSans-Roman-69"
     id="use130073"
     style="stroke-linecap:butt;stroke-linejoin:round"
     y="0"
     width="432"
     height="432"
     transform="matrix(0.12,0,0,-0.12,91.33875,38.2)" />
  <use
     x="1306.2051"
     xlink:href="#BitstreamVeraSans-Roman-6c"
     id="use130075"
     style="stroke-linecap:butt;stroke-linejoin:round"
     y="0"
     width="432"
     height="432"
     transform="matrix(0.12,0,0,-0.12,91.33875,38.2)" />
  <use
     x="1333.9883"
     xlink:href="#BitstreamVeraSans-Roman-65"
     id="use130077"
     style="stroke-linecap:butt;stroke-linejoin:round"
     y="0"
     width="432"
     height="432"
     transform="matrix(0.12,0,0,-0.12,91.33875,38.2)" />
  <use
     x="1395.5117"
     xlink:href="#BitstreamVeraSans-Roman-73"
     id="use130079"
     style="stroke-linecap:butt;stroke-linejoin:round"
     y="0"
     width="432"
     height="432"
     transform="matrix(0.12,0,0,-0.12,91.33875,38.2)" />
  <use
     x="1447.6113"
     xlink:href="#BitstreamVeraSans-Roman-20"
     id="use130081"
     style="stroke-linecap:butt;stroke-linejoin:round"
     y="0"
     width="432"
     height="432"
     transform="matrix(0.12,0,0,-0.12,91.33875,38.2)" />
  <use
     x="1479.3984"
     xlink:href="#BitstreamVeraSans-Roman-66"
     id="use130083"
     style="stroke-linecap:butt;stroke-linejoin:round"
     y="0"
     width="432"
     height="432"
     transform="matrix(0.12,0,0,-0.12,91.33875,38.2)" />
  <use
     x="1514.6035"
     xlink:href="#BitstreamVeraSans-Roman-6f"
     id="use130085"
     style="stroke-linecap:butt;stroke-linejoin:round"
     y="0"
     width="432"
     height="432"
     transform="matrix(0.12,0,0,-0.12,91.33875,38.2)" />
  <use
     x="1575.7852"
     xlink:href="#BitstreamVeraSans-Roman-72"
     id="use130087"
     style="stroke-linecap:butt;stroke-linejoin:round"
     y="0"
     width="432"
     height="432"
     transform="matrix(0.12,0,0,-0.12,91.33875,38.2)" />
  <use
     x="1616.8984"
     xlink:href="#BitstreamVeraSans-Roman-20"
     id="use130089"
     style="stroke-linecap:butt;stroke-linejoin:round"
     y="0"
     width="432"
     height="432"
     transform="matrix(0.12,0,0,-0.12,91.33875,38.2)" />
  <use
     x="1648.6855"
     xlink:href="#BitstreamVeraSans-Roman-31"
     id="use130091"
     style="stroke-linecap:butt;stroke-linejoin:round"
     y="0"
     width="432"
     height="432"
     transform="matrix(0.12,0,0,-0.12,91.33875,38.2)" />
  <use
     x="1712.3086"
     xlink:href="#BitstreamVeraSans-Roman-2d"
     id="use130093"
     style="stroke-linecap:butt;stroke-linejoin:round"
     y="0"
     width="432"
     height="432"
     transform="matrix(0.12,0,0,-0.12,91.33875,38.2)" />
  <use
     x="1748.3926"
     xlink:href="#BitstreamVeraSans-Roman-44"
     id="use130095"
     style="stroke-linecap:butt;stroke-linejoin:round"
     y="0"
     width="432"
     height="432"
     transform="matrix(0.12,0,0,-0.12,91.33875,38.2)" />
  <use
     x="1825.3945"
     xlink:href="#BitstreamVeraSans-Roman-20"
     id="use130097"
     style="stroke-linecap:butt;stroke-linejoin:round"
     y="0"
     width="432"
     height="432"
     transform="matrix(0.12,0,0,-0.12,91.33875,38.2)" />
  <use
     x="1857.1816"
     xlink:href="#BitstreamVeraSans-Roman-47"
     id="use130099"
     style="stroke-linecap:butt;stroke-linejoin:round"
     y="0"
     width="432"
     height="432"
     transform="matrix(0.12,0,0,-0.12,91.33875,38.2)" />
  <use
     x="1934.6719"
     xlink:href="#BitstreamVeraSans-Roman-6f"
     id="use130101"
     style="stroke-linecap:butt;stroke-linejoin:round"
     y="0"
     width="432"
     height="432"
     transform="matrix(0.12,0,0,-0.12,91.33875,38.2)" />
  <use
     x="1995.8535"
     xlink:href="#BitstreamVeraSans-Roman-6f"
     id="use130103"
     style="stroke-linecap:butt;stroke-linejoin:round"
     y="0"
     width="432"
     height="432"
     transform="matrix(0.12,0,0,-0.12,91.33875,38.2)" />
  <use
     x="2057.0352"
     xlink:href="#BitstreamVeraSans-Roman-64"
     id="use130105"
     style="stroke-linecap:butt;stroke-linejoin:round"
     y="0"
     width="432"
     height="432"
     transform="matrix(0.12,0,0,-0.12,91.33875,38.2)" />
  <use
     x="2120.5117"
     xlink:href="#BitstreamVeraSans-Roman-73"
     id="use130107"
     style="stroke-linecap:butt;stroke-linejoin:round"
     y="0"
     width="432"
     height="432"
     transform="matrix(0.12,0,0,-0.12,91.33875,38.2)" />
  <defs
     id="defs130109">
    <clipPath
       id="p7b0b5c6bc8">
      <rect
         height="334.8"
         width="334.8"
         x="54.0"
         y="43.2"
         id="rect130112" />
    </clipPath>
  </defs>
  <flowRoot
     xml:space="preserve"
     id="flowRoot131162"
     style="font-size:40px;font-style:normal;font-variant:normal;font-weight:normal;font-stretch:normal;text-align:start;line-height:125%;letter-spacing:0px;word-spacing:0px;writing-mode:lr-tb;text-anchor:start;fill:#ffffff;fill-opacity:1;stroke:none;font-family:Times New Roman;-inkscape-font-specification:'Times New Roman,'"
     transform="matrix(0.8,0,0,0.8,121.67031,-10.354921)"><flowRegion
       id="flowRegion131164"><rect
         id="rect131166"
         width="31.550142"
         height="51.774597"
         x="114.06591"
         y="111.24161"
         style="font-size:40px;font-style:normal;font-variant:normal;font-weight:normal;font-stretch:normal;text-align:start;line-height:125%;writing-mode:lr-tb;text-anchor:start;fill:#ffffff;font-family:Times New Roman;-inkscape-font-specification:'Times New Roman,'" /></flowRegion><flowPara
       id="flowPara131168">A</flowPara></flowRoot>  <flowRoot
     xml:space="preserve"
     id="flowRoot131162-0"
     style="font-size:40px;font-style:normal;font-variant:normal;font-weight:normal;font-stretch:normal;text-align:start;line-height:125%;letter-spacing:0px;word-spacing:0px;writing-mode:lr-tb;text-anchor:start;fill:#ffffff;fill-opacity:1;stroke:none;font-family:Times New Roman;-inkscape-font-specification:'Times New Roman,'"
     transform="matrix(0.8,0,0,0.8,22.803398,-8.5193682)"><flowRegion
       id="flowRegion131164-5"><rect
         id="rect131166-0"
         width="31.550142"
         height="51.774597"
         x="114.06591"
         y="111.24161"
         style="font-size:40px;font-style:normal;font-variant:normal;font-weight:normal;font-stretch:normal;text-align:start;line-height:125%;writing-mode:lr-tb;text-anchor:start;fill:#ffffff;font-family:Times New Roman;-inkscape-font-specification:'Times New Roman,'" /></flowRegion><flowPara
       id="flowPara131211">B</flowPara></flowRoot></svg>
