<?xml version="1.0" encoding="utf-8" standalone="no"?>
<!DOCTYPE svg PUBLIC "-//W3C//DTD SVG 1.1//EN"
  "http://www.w3.org/Graphics/SVG/1.1/DTD/svg11.dtd">
<!-- Created with matplotlib (http://matplotlib.org/) -->
<svg height="432pt" version="1.1" viewBox="0 0 1080 432" width="1080pt" xmlns="http://www.w3.org/2000/svg" xmlns:xlink="http://www.w3.org/1999/xlink">
 <defs>
  <style type="text/css">
*{stroke-linecap:butt;stroke-linejoin:round;}
  </style>
 </defs>
 <g id="figure_1">
  <g id="patch_1">
   <path d="
M0 432
L1080 432
L1080 0
L0 0
z
" style="fill:#ffffff;"/>
  </g>
  <g id="axes_1">
   <g id="patch_2">
    <path d="
M135 378
L972 378
L972 43.2
L135 43.2
z
" style="fill:#ffffff;"/>
   </g>
   <g id="line2d_1">
    <path clip-path="url(#pbcfbd4f4a8)" d="
M135 99
L143.37 99
L151.74 99
L160.11 99
L168.48 99
L176.85 99
L185.22 99
L193.59 99
L201.96 99
L210.33 99
L218.7 99
L227.07 99
L235.44 99
L243.81 99
L252.18 99
L260.55 99
L268.92 99
L277.29 99
L285.66 99
L294.03 99
L302.4 99
L310.77 99
L319.14 99
L327.51 99
L335.88 99
L344.25 99
L352.62 99
L360.99 99
L369.36 99
L377.73 99
L386.1 99
L394.47 99
L402.84 99
L411.21 99
L419.58 99
L427.95 99
L436.32 99
L444.69 99
L453.06 99
L461.43 99
L469.8 99
L478.17 99
L486.54 99
L494.91 99
L503.28 99
L511.65 99
L520.02 99
L528.39 99
L536.76 99
L545.13 99
L553.5 99
L561.87 99
L570.24 99
L578.61 99
L586.98 99
L595.35 99
L603.72 99
L612.09 99
L620.46 99
L628.83 99
L637.2 99
L645.57 99
L653.94 99
L662.31 99
L670.68 99
L679.05 99
L687.42 99
L695.79 99
L704.16 99
L712.53 99
L720.9 99
L729.27 99
L737.64 99
L746.01 99
L754.38 99
L762.75 99
L771.12 99
L779.49 99
L787.86 99
L796.23 99
L804.6 99
L812.97 99
L821.34 99
L829.71 99
L838.08 99
L846.45 99
L854.82 99
L863.19 99
L871.56 99
L879.93 99
L888.3 99
L896.67 99
L905.04 99
L913.41 99
L921.78 99
L930.15 99
L938.52 99
L946.89 99
L955.26 99
L963.63 99" style="fill:none;stroke:#1b9e77;stroke-linecap:square;stroke-width:6;"/>
   </g>
   <g id="line2d_2">
    <path clip-path="url(#pbcfbd4f4a8)" d="
M135 99
L143.37 101.79
L151.74 104.58
L160.11 107.37
L168.48 110.16
L176.85 112.95
L185.22 115.74
L193.59 118.53
L201.96 121.32
L210.33 124.11
L218.7 126.9
L227.07 129.69
L235.44 132.48
L243.81 135.27
L252.18 138.06
L260.55 140.85
L268.92 143.64
L277.29 146.43
L285.66 149.22
L294.03 152.01
L302.4 154.8
L310.77 157.59
L319.14 160.38
L327.51 163.17
L335.88 165.96
L344.25 168.75
L352.62 171.54
L360.99 174.33
L369.36 177.12
L377.73 179.91
L386.1 182.7
L394.47 185.49
L402.84 188.28
L411.21 191.07
L419.58 193.86
L427.95 196.65
L436.32 199.44
L444.69 202.23
L453.06 205.02
L461.43 207.81
L469.8 210.6
L478.17 213.39
L486.54 216.18
L494.91 218.97
L503.28 221.76
L511.65 224.55
L520.02 227.34
L528.39 230.13
L536.76 232.92
L545.13 235.71
L553.5 238.5
L561.87 241.29
L570.24 244.08
L578.61 246.87
L586.98 249.66
L595.35 252.45
L603.72 255.24
L612.09 258.03
L620.46 260.82
L628.83 263.61
L637.2 266.4
L645.57 269.19
L653.94 271.98
L662.31 274.77
L670.68 277.56
L679.05 280.35
L687.42 283.14
L695.79 285.93
L704.16 288.72
L712.53 291.51
L720.9 294.3
L729.27 297.09
L737.64 299.88
L746.01 302.67
L754.38 305.46
L762.75 308.25
L771.12 311.04
L779.49 313.83
L787.86 316.62
L796.23 319.41
L804.6 322.2
L812.97 324.99
L821.34 327.78
L829.71 330.57
L838.08 333.36
L846.45 336.15
L854.82 338.94
L863.19 341.73
L871.56 344.52
L879.93 347.31
L888.3 350.1
L896.67 352.89
L905.04 355.68
L913.41 358.47
L921.78 361.26
L930.15 364.05
L938.52 366.84
L946.89 369.63
L955.26 372.42
L963.63 375.21" style="fill:none;stroke:#d95f02;stroke-linecap:square;stroke-width:6;"/>
   </g>
   <g id="line2d_3">
    <path clip-path="url(#pbcfbd4f4a8)" d="
M135 99
L143.37 99.1992
L151.74 99.796
L160.11 100.788
L168.48 102.17
L176.85 103.938
L185.22 106.083
L193.59 108.596
L201.96 111.467
L210.33 114.684
L218.7 118.233
L227.07 122.101
L235.44 126.271
L243.81 130.726
L252.18 135.449
L260.55 140.422
L268.92 145.624
L277.29 151.038
L285.66 156.642
L294.03 162.415
L302.4 168.338
L310.77 174.389
L319.14 180.548
L327.51 186.793
L335.88 193.106
L344.25 199.465
L352.62 205.852
L360.99 212.247
L369.36 218.633
L377.73 224.991
L386.1 231.305
L394.47 237.56
L402.84 243.739
L411.21 249.83
L419.58 255.82
L427.95 261.695
L436.32 267.447
L444.69 273.064
L453.06 278.537
L461.43 283.86
L469.8 289.025
L478.17 294.027
L486.54 298.861
L494.91 303.522
L503.28 308.01
L511.65 312.321
L520.02 316.454
L528.39 320.41
L536.76 324.188
L545.13 327.79
L553.5 331.218
L561.87 334.474
L570.24 337.561
L578.61 340.483
L586.98 343.244
L595.35 345.847
L603.72 348.298
L612.09 350.601
L620.46 352.762
L628.83 354.785
L637.2 356.677
L645.57 358.443
L653.94 360.088
L662.31 361.618
L670.68 363.038
L679.05 364.355
L687.42 365.574
L695.79 366.7
L704.16 367.739
L712.53 368.696
L720.9 369.575
L729.27 370.382
L737.64 371.122
L746.01 371.799
L754.38 372.417
L762.75 372.98
L771.12 373.494
L779.49 373.96
L787.86 374.384
L796.23 374.767
L804.6 375.114
L812.97 375.428
L821.34 375.71
L829.71 375.965
L838.08 376.194
L846.45 376.399
L854.82 376.583
L863.19 376.748
L871.56 376.895
L879.93 377.026
L888.3 377.143
L896.67 377.247
L905.04 377.339
L913.41 377.421
L921.78 377.493
L930.15 377.557
L938.52 377.614
L946.89 377.664
L955.26 377.707
L963.63 377.746" style="fill:none;stroke:#7570b3;stroke-linecap:square;stroke-width:6;"/>
   </g>
   <g id="matplotlib.axis_1">
    <g id="xtick_1">
     <g id="line2d_4">
      <defs>
       <path d="
M0 0
L0 -4" id="m93b0483c22" style="stroke:#000000;stroke-width:0.5;"/>
      </defs>
      <g>
       <use style="stroke:#000000;stroke-width:0.5;" x="218.7" xlink:href="#m93b0483c22" y="378.0"/>
      </g>
     </g>
     <g id="text_1">
      <!-- Central County Border -->
      <defs>
       <path id="BitstreamVeraSans-Roman-20"/>
       <path d="
M54.8906 33.0156
L54.8906 0
L45.9062 0
L45.9062 32.7188
Q45.9062 40.4844 42.875 44.3281
Q39.8438 48.1875 33.7969 48.1875
Q26.5156 48.1875 22.3125 43.5469
Q18.1094 38.9219 18.1094 30.9062
L18.1094 0
L9.07812 0
L9.07812 54.6875
L18.1094 54.6875
L18.1094 46.1875
Q21.3438 51.125 25.7031 53.5625
Q30.0781 56 35.7969 56
Q45.2188 56 50.0469 50.1719
Q54.8906 44.3438 54.8906 33.0156" id="BitstreamVeraSans-Roman-6e"/>
       <path d="
M34.2812 27.4844
Q23.3906 27.4844 19.1875 25
Q14.9844 22.5156 14.9844 16.5
Q14.9844 11.7188 18.1406 8.90625
Q21.2969 6.10938 26.7031 6.10938
Q34.1875 6.10938 38.7031 11.4062
Q43.2188 16.7031 43.2188 25.4844
L43.2188 27.4844
z

M52.2031 31.2031
L52.2031 0
L43.2188 0
L43.2188 8.29688
Q40.1406 3.32812 35.5469 0.953125
Q30.9531 -1.42188 24.3125 -1.42188
Q15.9219 -1.42188 10.9531 3.29688
Q6 8.01562 6 15.9219
Q6 25.1406 12.1719 29.8281
Q18.3594 34.5156 30.6094 34.5156
L43.2188 34.5156
L43.2188 35.4062
Q43.2188 41.6094 39.1406 45
Q35.0625 48.3906 27.6875 48.3906
Q23 48.3906 18.5469 47.2656
Q14.1094 46.1406 10.0156 43.8906
L10.0156 52.2031
Q14.9375 54.1094 19.5781 55.0469
Q24.2188 56 28.6094 56
Q40.4844 56 46.3438 49.8438
Q52.2031 43.7031 52.2031 31.2031" id="BitstreamVeraSans-Roman-61"/>
       <path d="
M30.6094 48.3906
Q23.3906 48.3906 19.1875 42.75
Q14.9844 37.1094 14.9844 27.2969
Q14.9844 17.4844 19.1562 11.8438
Q23.3438 6.20312 30.6094 6.20312
Q37.7969 6.20312 41.9844 11.8594
Q46.1875 17.5312 46.1875 27.2969
Q46.1875 37.0156 41.9844 42.7031
Q37.7969 48.3906 30.6094 48.3906
M30.6094 56
Q42.3281 56 49.0156 48.375
Q55.7188 40.7656 55.7188 27.2969
Q55.7188 13.875 49.0156 6.21875
Q42.3281 -1.42188 30.6094 -1.42188
Q18.8438 -1.42188 12.1719 6.21875
Q5.51562 13.875 5.51562 27.2969
Q5.51562 40.7656 12.1719 48.375
Q18.8438 56 30.6094 56" id="BitstreamVeraSans-Roman-6f"/>
       <path d="
M9.42188 75.9844
L18.4062 75.9844
L18.4062 0
L9.42188 0
z
" id="BitstreamVeraSans-Roman-6c"/>
       <path d="
M64.4062 67.2812
L64.4062 56.8906
Q59.4219 61.5312 53.7812 63.8125
Q48.1406 66.1094 41.7969 66.1094
Q29.2969 66.1094 22.6562 58.4688
Q16.0156 50.8281 16.0156 36.375
Q16.0156 21.9688 22.6562 14.3281
Q29.2969 6.6875 41.7969 6.6875
Q48.1406 6.6875 53.7812 8.98438
Q59.4219 11.2812 64.4062 15.9219
L64.4062 5.60938
Q59.2344 2.09375 53.4375 0.328125
Q47.6562 -1.42188 41.2188 -1.42188
Q24.6562 -1.42188 15.125 8.70312
Q5.60938 18.8438 5.60938 36.375
Q5.60938 53.9531 15.125 64.0781
Q24.6562 74.2188 41.2188 74.2188
Q47.75 74.2188 53.5312 72.4844
Q59.3281 70.75 64.4062 67.2812" id="BitstreamVeraSans-Roman-43"/>
       <path d="
M19.6719 34.8125
L19.6719 8.10938
L35.5 8.10938
Q43.4531 8.10938 47.2812 11.4062
Q51.125 14.7031 51.125 21.4844
Q51.125 28.3281 47.2812 31.5625
Q43.4531 34.8125 35.5 34.8125
z

M19.6719 64.7969
L19.6719 42.8281
L34.2812 42.8281
Q41.5 42.8281 45.0312 45.5312
Q48.5781 48.25 48.5781 53.8125
Q48.5781 59.3281 45.0312 62.0625
Q41.5 64.7969 34.2812 64.7969
z

M9.8125 72.9062
L35.0156 72.9062
Q46.2969 72.9062 52.3906 68.2188
Q58.5 63.5312 58.5 54.8906
Q58.5 48.1875 55.375 44.2344
Q52.25 40.2812 46.1875 39.3125
Q53.4688 37.75 57.5 32.7812
Q61.5312 27.8281 61.5312 20.4062
Q61.5312 10.6406 54.8906 5.3125
Q48.25 0 35.9844 0
L9.8125 0
z
" id="BitstreamVeraSans-Roman-42"/>
       <path d="
M32.1719 -5.07812
Q28.375 -14.8438 24.75 -17.8125
Q21.1406 -20.7969 15.0938 -20.7969
L7.90625 -20.7969
L7.90625 -13.2812
L13.1875 -13.2812
Q16.8906 -13.2812 18.9375 -11.5156
Q21 -9.76562 23.4844 -3.21875
L25.0938 0.875
L2.98438 54.6875
L12.5 54.6875
L29.5938 11.9219
L46.6875 54.6875
L56.2031 54.6875
z
" id="BitstreamVeraSans-Roman-79"/>
       <path d="
M56.2031 29.5938
L56.2031 25.2031
L14.8906 25.2031
Q15.4844 15.9219 20.4844 11.0625
Q25.4844 6.20312 34.4219 6.20312
Q39.5938 6.20312 44.4531 7.46875
Q49.3125 8.73438 54.1094 11.2812
L54.1094 2.78125
Q49.2656 0.734375 44.1875 -0.34375
Q39.1094 -1.42188 33.8906 -1.42188
Q20.7969 -1.42188 13.1562 6.1875
Q5.51562 13.8125 5.51562 26.8125
Q5.51562 40.2344 12.7656 48.1094
Q20.0156 56 32.3281 56
Q43.3594 56 49.7812 48.8906
Q56.2031 41.7969 56.2031 29.5938
M47.2188 32.2344
Q47.125 39.5938 43.0938 43.9844
Q39.0625 48.3906 32.4219 48.3906
Q24.9062 48.3906 20.3906 44.1406
Q15.875 39.8906 15.1875 32.1719
z
" id="BitstreamVeraSans-Roman-65"/>
       <path d="
M45.4062 46.3906
L45.4062 75.9844
L54.3906 75.9844
L54.3906 0
L45.4062 0
L45.4062 8.20312
Q42.5781 3.32812 38.25 0.953125
Q33.9375 -1.42188 27.875 -1.42188
Q17.9688 -1.42188 11.7344 6.48438
Q5.51562 14.4062 5.51562 27.2969
Q5.51562 40.1875 11.7344 48.0938
Q17.9688 56 27.875 56
Q33.9375 56 38.25 53.625
Q42.5781 51.2656 45.4062 46.3906
M14.7969 27.2969
Q14.7969 17.3906 18.875 11.75
Q22.9531 6.10938 30.0781 6.10938
Q37.2031 6.10938 41.2969 11.75
Q45.4062 17.3906 45.4062 27.2969
Q45.4062 37.2031 41.2969 42.8438
Q37.2031 48.4844 30.0781 48.4844
Q22.9531 48.4844 18.875 42.8438
Q14.7969 37.2031 14.7969 27.2969" id="BitstreamVeraSans-Roman-64"/>
       <path d="
M18.3125 70.2188
L18.3125 54.6875
L36.8125 54.6875
L36.8125 47.7031
L18.3125 47.7031
L18.3125 18.0156
Q18.3125 11.3281 20.1406 9.42188
Q21.9688 7.51562 27.5938 7.51562
L36.8125 7.51562
L36.8125 0
L27.5938 0
Q17.1875 0 13.2344 3.875
Q9.28125 7.76562 9.28125 18.0156
L9.28125 47.7031
L2.6875 47.7031
L2.6875 54.6875
L9.28125 54.6875
L9.28125 70.2188
z
" id="BitstreamVeraSans-Roman-74"/>
       <path d="
M8.5 21.5781
L8.5 54.6875
L17.4844 54.6875
L17.4844 21.9219
Q17.4844 14.1562 20.5 10.2656
Q23.5312 6.39062 29.5938 6.39062
Q36.8594 6.39062 41.0781 11.0312
Q45.3125 15.6719 45.3125 23.6875
L45.3125 54.6875
L54.2969 54.6875
L54.2969 0
L45.3125 0
L45.3125 8.40625
Q42.0469 3.42188 37.7188 1
Q33.4062 -1.42188 27.6875 -1.42188
Q18.2656 -1.42188 13.375 4.4375
Q8.5 10.2969 8.5 21.5781" id="BitstreamVeraSans-Roman-75"/>
       <path d="
M41.1094 46.2969
Q39.5938 47.1719 37.8125 47.5781
Q36.0312 48 33.8906 48
Q26.2656 48 22.1875 43.0469
Q18.1094 38.0938 18.1094 28.8125
L18.1094 0
L9.07812 0
L9.07812 54.6875
L18.1094 54.6875
L18.1094 46.1875
Q20.9531 51.1719 25.4844 53.5781
Q30.0312 56 36.5312 56
Q37.4531 56 38.5781 55.875
Q39.7031 55.7656 41.0625 55.5156
z
" id="BitstreamVeraSans-Roman-72"/>
      </defs>
      <g transform="translate(162.74453125 389.5984375)scale(0.1 -0.1)">
       <use xlink:href="#BitstreamVeraSans-Roman-43"/>
       <use x="69.82421875" xlink:href="#BitstreamVeraSans-Roman-65"/>
       <use x="131.34765625" xlink:href="#BitstreamVeraSans-Roman-6e"/>
       <use x="194.7265625" xlink:href="#BitstreamVeraSans-Roman-74"/>
       <use x="233.935546875" xlink:href="#BitstreamVeraSans-Roman-72"/>
       <use x="275.048828125" xlink:href="#BitstreamVeraSans-Roman-61"/>
       <use x="336.328125" xlink:href="#BitstreamVeraSans-Roman-6c"/>
       <use x="364.111328125" xlink:href="#BitstreamVeraSans-Roman-20"/>
       <use x="395.8984375" xlink:href="#BitstreamVeraSans-Roman-43"/>
       <use x="465.72265625" xlink:href="#BitstreamVeraSans-Roman-6f"/>
       <use x="526.904296875" xlink:href="#BitstreamVeraSans-Roman-75"/>
       <use x="590.283203125" xlink:href="#BitstreamVeraSans-Roman-6e"/>
       <use x="653.662109375" xlink:href="#BitstreamVeraSans-Roman-74"/>
       <use x="692.87109375" xlink:href="#BitstreamVeraSans-Roman-79"/>
       <use x="752.05078125" xlink:href="#BitstreamVeraSans-Roman-20"/>
       <use x="783.837890625" xlink:href="#BitstreamVeraSans-Roman-42"/>
       <use x="852.44140625" xlink:href="#BitstreamVeraSans-Roman-6f"/>
       <use x="913.623046875" xlink:href="#BitstreamVeraSans-Roman-72"/>
       <use x="952.986328125" xlink:href="#BitstreamVeraSans-Roman-64"/>
       <use x="1016.46289062" xlink:href="#BitstreamVeraSans-Roman-65"/>
       <use x="1077.98632812" xlink:href="#BitstreamVeraSans-Roman-72"/>
      </g>
     </g>
    </g>
    <g id="xtick_2">
     <g id="line2d_5">
      <g>
       <use style="stroke:#000000;stroke-width:0.5;" x="553.5" xlink:href="#m93b0483c22" y="378.0"/>
      </g>
     </g>
     <g id="text_2">
      <!-- Far Border -->
      <defs>
       <path d="
M9.8125 72.9062
L51.7031 72.9062
L51.7031 64.5938
L19.6719 64.5938
L19.6719 43.1094
L48.5781 43.1094
L48.5781 34.8125
L19.6719 34.8125
L19.6719 0
L9.8125 0
z
" id="BitstreamVeraSans-Roman-46"/>
      </defs>
      <g transform="translate(527.6078125 389.5984375)scale(0.1 -0.1)">
       <use xlink:href="#BitstreamVeraSans-Roman-46"/>
       <use x="48.39453125" xlink:href="#BitstreamVeraSans-Roman-61"/>
       <use x="109.673828125" xlink:href="#BitstreamVeraSans-Roman-72"/>
       <use x="150.787109375" xlink:href="#BitstreamVeraSans-Roman-20"/>
       <use x="182.57421875" xlink:href="#BitstreamVeraSans-Roman-42"/>
       <use x="251.177734375" xlink:href="#BitstreamVeraSans-Roman-6f"/>
       <use x="312.359375" xlink:href="#BitstreamVeraSans-Roman-72"/>
       <use x="351.72265625" xlink:href="#BitstreamVeraSans-Roman-64"/>
       <use x="415.19921875" xlink:href="#BitstreamVeraSans-Roman-65"/>
       <use x="476.72265625" xlink:href="#BitstreamVeraSans-Roman-72"/>
      </g>
      <!-- First Neighbor -->
      <defs>
       <path d="
M9.8125 72.9062
L23.0938 72.9062
L55.4219 11.9219
L55.4219 72.9062
L64.9844 72.9062
L64.9844 0
L51.7031 0
L19.3906 60.9844
L19.3906 0
L9.8125 0
z
" id="BitstreamVeraSans-Roman-4e"/>
       <path d="
M9.42188 54.6875
L18.4062 54.6875
L18.4062 0
L9.42188 0
z

M9.42188 75.9844
L18.4062 75.9844
L18.4062 64.5938
L9.42188 64.5938
z
" id="BitstreamVeraSans-Roman-69"/>
       <path d="
M54.8906 33.0156
L54.8906 0
L45.9062 0
L45.9062 32.7188
Q45.9062 40.4844 42.875 44.3281
Q39.8438 48.1875 33.7969 48.1875
Q26.5156 48.1875 22.3125 43.5469
Q18.1094 38.9219 18.1094 30.9062
L18.1094 0
L9.07812 0
L9.07812 75.9844
L18.1094 75.9844
L18.1094 46.1875
Q21.3438 51.125 25.7031 53.5625
Q30.0781 56 35.7969 56
Q45.2188 56 50.0469 50.1719
Q54.8906 44.3438 54.8906 33.0156" id="BitstreamVeraSans-Roman-68"/>
       <path d="
M45.4062 27.9844
Q45.4062 37.75 41.375 43.1094
Q37.3594 48.4844 30.0781 48.4844
Q22.8594 48.4844 18.8281 43.1094
Q14.7969 37.75 14.7969 27.9844
Q14.7969 18.2656 18.8281 12.8906
Q22.8594 7.51562 30.0781 7.51562
Q37.3594 7.51562 41.375 12.8906
Q45.4062 18.2656 45.4062 27.9844
M54.3906 6.78125
Q54.3906 -7.17188 48.1875 -13.9844
Q42 -20.7969 29.2031 -20.7969
Q24.4688 -20.7969 20.2656 -20.0938
Q16.0625 -19.3906 12.1094 -17.9219
L12.1094 -9.1875
Q16.0625 -11.3281 19.9219 -12.3438
Q23.7812 -13.375 27.7812 -13.375
Q36.625 -13.375 41.0156 -8.76562
Q45.4062 -4.15625 45.4062 5.17188
L45.4062 9.625
Q42.625 4.78125 38.2812 2.39062
Q33.9375 0 27.875 0
Q17.8281 0 11.6719 7.65625
Q5.51562 15.3281 5.51562 27.9844
Q5.51562 40.6719 11.6719 48.3281
Q17.8281 56 27.875 56
Q33.9375 56 38.2812 53.6094
Q42.625 51.2188 45.4062 46.3906
L45.4062 54.6875
L54.3906 54.6875
z
" id="BitstreamVeraSans-Roman-67"/>
       <path d="
M44.2812 53.0781
L44.2812 44.5781
Q40.4844 46.5312 36.375 47.5
Q32.2812 48.4844 27.875 48.4844
Q21.1875 48.4844 17.8438 46.4375
Q14.5 44.3906 14.5 40.2812
Q14.5 37.1562 16.8906 35.375
Q19.2812 33.5938 26.5156 31.9844
L29.5938 31.2969
Q39.1562 29.25 43.1875 25.5156
Q47.2188 21.7812 47.2188 15.0938
Q47.2188 7.46875 41.1875 3.01562
Q35.1562 -1.42188 24.6094 -1.42188
Q20.2188 -1.42188 15.4531 -0.5625
Q10.6875 0.296875 5.42188 2
L5.42188 11.2812
Q10.4062 8.6875 15.2344 7.39062
Q20.0625 6.10938 24.8125 6.10938
Q31.1562 6.10938 34.5625 8.28125
Q37.9844 10.4531 37.9844 14.4062
Q37.9844 18.0625 35.5156 20.0156
Q33.0625 21.9688 24.7031 23.7812
L21.5781 24.5156
Q13.2344 26.2656 9.51562 29.9062
Q5.8125 33.5469 5.8125 39.8906
Q5.8125 47.6094 11.2812 51.7969
Q16.75 56 26.8125 56
Q31.7812 56 36.1719 55.2656
Q40.5781 54.5469 44.2812 53.0781" id="BitstreamVeraSans-Roman-73"/>
       <path d="
M48.6875 27.2969
Q48.6875 37.2031 44.6094 42.8438
Q40.5312 48.4844 33.4062 48.4844
Q26.2656 48.4844 22.1875 42.8438
Q18.1094 37.2031 18.1094 27.2969
Q18.1094 17.3906 22.1875 11.75
Q26.2656 6.10938 33.4062 6.10938
Q40.5312 6.10938 44.6094 11.75
Q48.6875 17.3906 48.6875 27.2969
M18.1094 46.3906
Q20.9531 51.2656 25.2656 53.625
Q29.5938 56 35.5938 56
Q45.5625 56 51.7812 48.0938
Q58.0156 40.1875 58.0156 27.2969
Q58.0156 14.4062 51.7812 6.48438
Q45.5625 -1.42188 35.5938 -1.42188
Q29.5938 -1.42188 25.2656 0.953125
Q20.9531 3.32812 18.1094 8.20312
L18.1094 0
L9.07812 0
L9.07812 75.9844
L18.1094 75.9844
z
" id="BitstreamVeraSans-Roman-62"/>
      </defs>
      <g transform="translate(518.55 400.79625)scale(0.1 -0.1)">
       <use xlink:href="#BitstreamVeraSans-Roman-46"/>
       <use x="50.26953125" xlink:href="#BitstreamVeraSans-Roman-69"/>
       <use x="78.052734375" xlink:href="#BitstreamVeraSans-Roman-72"/>
       <use x="119.166015625" xlink:href="#BitstreamVeraSans-Roman-73"/>
       <use x="171.265625" xlink:href="#BitstreamVeraSans-Roman-74"/>
       <use x="210.474609375" xlink:href="#BitstreamVeraSans-Roman-20"/>
       <use x="242.26171875" xlink:href="#BitstreamVeraSans-Roman-4e"/>
       <use x="317.06640625" xlink:href="#BitstreamVeraSans-Roman-65"/>
       <use x="378.58984375" xlink:href="#BitstreamVeraSans-Roman-69"/>
       <use x="406.373046875" xlink:href="#BitstreamVeraSans-Roman-67"/>
       <use x="469.849609375" xlink:href="#BitstreamVeraSans-Roman-68"/>
       <use x="533.228515625" xlink:href="#BitstreamVeraSans-Roman-62"/>
       <use x="596.705078125" xlink:href="#BitstreamVeraSans-Roman-6f"/>
       <use x="657.88671875" xlink:href="#BitstreamVeraSans-Roman-72"/>
      </g>
     </g>
    </g>
    <g id="xtick_3">
     <g id="line2d_6">
      <g>
       <use style="stroke:#000000;stroke-width:0.5;" x="720.9" xlink:href="#m93b0483c22" y="378.0"/>
      </g>
     </g>
     <g id="text_3">
      <!-- Far Border -->
      <g transform="translate(695.0078125 389.5984375)scale(0.1 -0.1)">
       <use xlink:href="#BitstreamVeraSans-Roman-46"/>
       <use x="48.39453125" xlink:href="#BitstreamVeraSans-Roman-61"/>
       <use x="109.673828125" xlink:href="#BitstreamVeraSans-Roman-72"/>
       <use x="150.787109375" xlink:href="#BitstreamVeraSans-Roman-20"/>
       <use x="182.57421875" xlink:href="#BitstreamVeraSans-Roman-42"/>
       <use x="251.177734375" xlink:href="#BitstreamVeraSans-Roman-6f"/>
       <use x="312.359375" xlink:href="#BitstreamVeraSans-Roman-72"/>
       <use x="351.72265625" xlink:href="#BitstreamVeraSans-Roman-64"/>
       <use x="415.19921875" xlink:href="#BitstreamVeraSans-Roman-65"/>
       <use x="476.72265625" xlink:href="#BitstreamVeraSans-Roman-72"/>
      </g>
      <!-- Second Neighbor -->
      <defs>
       <path d="
M53.5156 70.5156
L53.5156 60.8906
Q47.9062 63.5781 42.9219 64.8906
Q37.9375 66.2188 33.2969 66.2188
Q25.25 66.2188 20.875 63.0938
Q16.5 59.9688 16.5 54.2031
Q16.5 49.3594 19.4062 46.8906
Q22.3125 44.4375 30.4219 42.9219
L36.375 41.7031
Q47.4062 39.5938 52.6562 34.2969
Q57.9062 29 57.9062 20.125
Q57.9062 9.51562 50.7969 4.04688
Q43.7031 -1.42188 29.9844 -1.42188
Q24.8125 -1.42188 18.9688 -0.25
Q13.1406 0.921875 6.89062 3.21875
L6.89062 13.375
Q12.8906 10.0156 18.6562 8.29688
Q24.4219 6.59375 29.9844 6.59375
Q38.4219 6.59375 43.0156 9.90625
Q47.6094 13.2344 47.6094 19.3906
Q47.6094 24.75 44.3125 27.7812
Q41.0156 30.8125 33.5 32.3281
L27.4844 33.5
Q16.4531 35.6875 11.5156 40.375
Q6.59375 45.0625 6.59375 53.4219
Q6.59375 63.0938 13.4062 68.6562
Q20.2188 74.2188 32.1719 74.2188
Q37.3125 74.2188 42.625 73.2812
Q47.9531 72.3594 53.5156 70.5156" id="BitstreamVeraSans-Roman-53"/>
       <path d="
M48.7812 52.5938
L48.7812 44.1875
Q44.9688 46.2969 41.1406 47.3438
Q37.3125 48.3906 33.4062 48.3906
Q24.6562 48.3906 19.8125 42.8438
Q14.9844 37.3125 14.9844 27.2969
Q14.9844 17.2812 19.8125 11.7344
Q24.6562 6.20312 33.4062 6.20312
Q37.3125 6.20312 41.1406 7.25
Q44.9688 8.29688 48.7812 10.4062
L48.7812 2.09375
Q45.0156 0.34375 40.9844 -0.53125
Q36.9688 -1.42188 32.4219 -1.42188
Q20.0625 -1.42188 12.7812 6.34375
Q5.51562 14.1094 5.51562 27.2969
Q5.51562 40.6719 12.8594 48.3281
Q20.2188 56 33.0156 56
Q37.1562 56 41.1094 55.1406
Q45.0625 54.2969 48.7812 52.5938" id="BitstreamVeraSans-Roman-63"/>
      </defs>
      <g transform="translate(678.0703125 400.79625)scale(0.1 -0.1)">
       <use xlink:href="#BitstreamVeraSans-Roman-53"/>
       <use x="63.4765625" xlink:href="#BitstreamVeraSans-Roman-65"/>
       <use x="125.0" xlink:href="#BitstreamVeraSans-Roman-63"/>
       <use x="179.98046875" xlink:href="#BitstreamVeraSans-Roman-6f"/>
       <use x="241.162109375" xlink:href="#BitstreamVeraSans-Roman-6e"/>
       <use x="304.541015625" xlink:href="#BitstreamVeraSans-Roman-64"/>
       <use x="368.017578125" xlink:href="#BitstreamVeraSans-Roman-20"/>
       <use x="399.8046875" xlink:href="#BitstreamVeraSans-Roman-4e"/>
       <use x="474.609375" xlink:href="#BitstreamVeraSans-Roman-65"/>
       <use x="536.1328125" xlink:href="#BitstreamVeraSans-Roman-69"/>
       <use x="563.916015625" xlink:href="#BitstreamVeraSans-Roman-67"/>
       <use x="627.392578125" xlink:href="#BitstreamVeraSans-Roman-68"/>
       <use x="690.771484375" xlink:href="#BitstreamVeraSans-Roman-62"/>
       <use x="754.248046875" xlink:href="#BitstreamVeraSans-Roman-6f"/>
       <use x="815.4296875" xlink:href="#BitstreamVeraSans-Roman-72"/>
      </g>
     </g>
    </g>
    <g id="xtick_4">
     <g id="line2d_7">
      <g>
       <use style="stroke:#000000;stroke-width:0.5;" x="972.0" xlink:href="#m93b0483c22" y="378.0"/>
      </g>
     </g>
     <g id="text_4">
      <!-- Far Border -->
      <g transform="translate(946.1078125 389.5984375)scale(0.1 -0.1)">
       <use xlink:href="#BitstreamVeraSans-Roman-46"/>
       <use x="48.39453125" xlink:href="#BitstreamVeraSans-Roman-61"/>
       <use x="109.673828125" xlink:href="#BitstreamVeraSans-Roman-72"/>
       <use x="150.787109375" xlink:href="#BitstreamVeraSans-Roman-20"/>
       <use x="182.57421875" xlink:href="#BitstreamVeraSans-Roman-42"/>
       <use x="251.177734375" xlink:href="#BitstreamVeraSans-Roman-6f"/>
       <use x="312.359375" xlink:href="#BitstreamVeraSans-Roman-72"/>
       <use x="351.72265625" xlink:href="#BitstreamVeraSans-Roman-64"/>
       <use x="415.19921875" xlink:href="#BitstreamVeraSans-Roman-65"/>
       <use x="476.72265625" xlink:href="#BitstreamVeraSans-Roman-72"/>
      </g>
      <!-- Third Neighbor -->
      <defs>
       <path d="
M-0.296875 72.9062
L61.375 72.9062
L61.375 64.5938
L35.5 64.5938
L35.5 0
L25.5938 0
L25.5938 64.5938
L-0.296875 64.5938
z
" id="BitstreamVeraSans-Roman-54"/>
      </defs>
      <g transform="translate(934.80390625 400.79625)scale(0.1 -0.1)">
       <use xlink:href="#BitstreamVeraSans-Roman-54"/>
       <use x="61.083984375" xlink:href="#BitstreamVeraSans-Roman-68"/>
       <use x="124.462890625" xlink:href="#BitstreamVeraSans-Roman-69"/>
       <use x="152.24609375" xlink:href="#BitstreamVeraSans-Roman-72"/>
       <use x="191.609375" xlink:href="#BitstreamVeraSans-Roman-64"/>
       <use x="255.0859375" xlink:href="#BitstreamVeraSans-Roman-20"/>
       <use x="286.873046875" xlink:href="#BitstreamVeraSans-Roman-4e"/>
       <use x="361.677734375" xlink:href="#BitstreamVeraSans-Roman-65"/>
       <use x="423.201171875" xlink:href="#BitstreamVeraSans-Roman-69"/>
       <use x="450.984375" xlink:href="#BitstreamVeraSans-Roman-67"/>
       <use x="514.4609375" xlink:href="#BitstreamVeraSans-Roman-68"/>
       <use x="577.83984375" xlink:href="#BitstreamVeraSans-Roman-62"/>
       <use x="641.31640625" xlink:href="#BitstreamVeraSans-Roman-6f"/>
       <use x="702.498046875" xlink:href="#BitstreamVeraSans-Roman-72"/>
      </g>
     </g>
    </g>
   </g>
   <g id="matplotlib.axis_2">
    <g id="ytick_1">
     <g id="line2d_8">
      <defs>
       <path d="
M0 0
L4 0" id="m728421d6d4" style="stroke:#000000;stroke-width:0.5;"/>
      </defs>
      <g>
       <use style="stroke:#000000;stroke-width:0.5;" x="135.0" xlink:href="#m728421d6d4" y="378.0"/>
      </g>
     </g>
     <g id="text_5">
      <!-- 0 -->
      <defs>
       <path d="
M31.7812 66.4062
Q24.1719 66.4062 20.3281 58.9062
Q16.5 51.4219 16.5 36.375
Q16.5 21.3906 20.3281 13.8906
Q24.1719 6.39062 31.7812 6.39062
Q39.4531 6.39062 43.2812 13.8906
Q47.125 21.3906 47.125 36.375
Q47.125 51.4219 43.2812 58.9062
Q39.4531 66.4062 31.7812 66.4062
M31.7812 74.2188
Q44.0469 74.2188 50.5156 64.5156
Q56.9844 54.8281 56.9844 36.375
Q56.9844 17.9688 50.5156 8.26562
Q44.0469 -1.42188 31.7812 -1.42188
Q19.5312 -1.42188 13.0625 8.26562
Q6.59375 17.9688 6.59375 36.375
Q6.59375 54.8281 13.0625 64.5156
Q19.5312 74.2188 31.7812 74.2188" id="BitstreamVeraSans-Roman-30"/>
      </defs>
      <g transform="translate(125.9609375 380.759375)scale(0.1 -0.1)">
       <use xlink:href="#BitstreamVeraSans-Roman-30"/>
      </g>
     </g>
    </g>
    <g id="ytick_2">
     <g id="line2d_9">
      <g>
       <use style="stroke:#000000;stroke-width:0.5;" x="135.0" xlink:href="#m728421d6d4" y="99.0"/>
      </g>
     </g>
     <g id="text_6">
      <!-- 1 -->
      <defs>
       <path d="
M12.4062 8.29688
L28.5156 8.29688
L28.5156 63.9219
L10.9844 60.4062
L10.9844 69.3906
L28.4219 72.9062
L38.2812 72.9062
L38.2812 8.29688
L54.3906 8.29688
L54.3906 0
L12.4062 0
z
" id="BitstreamVeraSans-Roman-31"/>
      </defs>
      <g transform="translate(126.659375 101.759375)scale(0.1 -0.1)">
       <use xlink:href="#BitstreamVeraSans-Roman-31"/>
      </g>
     </g>
    </g>
   </g>
   <g id="patch_3">
    <path d="
M135 378
L972 378" style="fill:none;stroke:#000000;"/>
   </g>
   <g id="patch_4">
    <path d="
M135 378
L135 43.2" style="fill:none;stroke:#000000;"/>
   </g>
   <g id="text_7">
    <!-- Binary -->
    <g transform="translate(637.2 90.63)scale(0.2 -0.2)">
     <use xlink:href="#BitstreamVeraSans-Roman-42"/>
     <use x="68.603515625" xlink:href="#BitstreamVeraSans-Roman-69"/>
     <use x="96.38671875" xlink:href="#BitstreamVeraSans-Roman-6e"/>
     <use x="159.765625" xlink:href="#BitstreamVeraSans-Roman-61"/>
     <use x="221.044921875" xlink:href="#BitstreamVeraSans-Roman-72"/>
     <use x="262.158203125" xlink:href="#BitstreamVeraSans-Roman-79"/>
    </g>
   </g>
   <g id="text_8">
    <!-- Linear -->
    <defs>
     <path d="
M9.8125 72.9062
L19.6719 72.9062
L19.6719 8.29688
L55.1719 8.29688
L55.1719 0
L9.8125 0
z
" id="BitstreamVeraSans-Roman-4c"/>
    </defs>
    <g transform="translate(554.854160042 229.302052604)rotate(-341.0)scale(0.2 -0.2)">
     <use xlink:href="#BitstreamVeraSans-Roman-4c"/>
     <use x="55.712890625" xlink:href="#BitstreamVeraSans-Roman-69"/>
     <use x="83.49609375" xlink:href="#BitstreamVeraSans-Roman-6e"/>
     <use x="146.875" xlink:href="#BitstreamVeraSans-Roman-65"/>
     <use x="208.3984375" xlink:href="#BitstreamVeraSans-Roman-61"/>
     <use x="269.677734375" xlink:href="#BitstreamVeraSans-Roman-72"/>
    </g>
   </g>
   <g id="text_9">
    <!-- Gaussian -->
    <defs>
     <path d="
M59.5156 10.4062
L59.5156 29.9844
L43.4062 29.9844
L43.4062 38.0938
L69.2812 38.0938
L69.2812 6.78125
Q63.5781 2.73438 56.6875 0.65625
Q49.8125 -1.42188 42 -1.42188
Q24.9062 -1.42188 15.25 8.5625
Q5.60938 18.5625 5.60938 36.375
Q5.60938 54.25 15.25 64.2344
Q24.9062 74.2188 42 74.2188
Q49.125 74.2188 55.5469 72.4531
Q61.9688 70.7031 67.3906 67.2812
L67.3906 56.7812
Q61.9219 61.4219 55.7656 63.7656
Q49.6094 66.1094 42.8281 66.1094
Q29.4375 66.1094 22.7188 58.6406
Q16.0156 51.1719 16.0156 36.375
Q16.0156 21.625 22.7188 14.1562
Q29.4375 6.6875 42.8281 6.6875
Q48.0469 6.6875 52.1406 7.59375
Q56.25 8.5 59.5156 10.4062" id="BitstreamVeraSans-Roman-47"/>
    </defs>
    <g transform="translate(369.352174362 207.539889017)rotate(-323.0)scale(0.2 -0.2)">
     <use xlink:href="#BitstreamVeraSans-Roman-47"/>
     <use x="77.490234375" xlink:href="#BitstreamVeraSans-Roman-61"/>
     <use x="138.76953125" xlink:href="#BitstreamVeraSans-Roman-75"/>
     <use x="202.1484375" xlink:href="#BitstreamVeraSans-Roman-73"/>
     <use x="254.248046875" xlink:href="#BitstreamVeraSans-Roman-73"/>
     <use x="306.34765625" xlink:href="#BitstreamVeraSans-Roman-69"/>
     <use x="334.130859375" xlink:href="#BitstreamVeraSans-Roman-61"/>
     <use x="395.41015625" xlink:href="#BitstreamVeraSans-Roman-6e"/>
    </g>
   </g>
   <g id="text_10">
    <!-- Distance-Based Decay Functions -->
    <defs>
     <path d="
M19.6719 64.7969
L19.6719 8.10938
L31.5938 8.10938
Q46.6875 8.10938 53.6875 14.9375
Q60.6875 21.7812 60.6875 36.5312
Q60.6875 51.1719 53.6875 57.9844
Q46.6875 64.7969 31.5938 64.7969
z

M9.8125 72.9062
L30.0781 72.9062
Q51.2656 72.9062 61.1719 64.0938
Q71.0938 55.2812 71.0938 36.5312
Q71.0938 17.6719 61.125 8.82812
Q51.1719 0 30.0781 0
L9.8125 0
z
" id="BitstreamVeraSans-Roman-44"/>
     <path d="
M4.89062 31.3906
L31.2031 31.3906
L31.2031 23.3906
L4.89062 23.3906
z
" id="BitstreamVeraSans-Roman-2d"/>
    </defs>
    <g transform="translate(374.55578125 38.2)scale(0.22 -0.22)">
     <use xlink:href="#BitstreamVeraSans-Roman-44"/>
     <use x="77.001953125" xlink:href="#BitstreamVeraSans-Roman-69"/>
     <use x="104.78515625" xlink:href="#BitstreamVeraSans-Roman-73"/>
     <use x="156.884765625" xlink:href="#BitstreamVeraSans-Roman-74"/>
     <use x="196.09375" xlink:href="#BitstreamVeraSans-Roman-61"/>
     <use x="257.373046875" xlink:href="#BitstreamVeraSans-Roman-6e"/>
     <use x="320.751953125" xlink:href="#BitstreamVeraSans-Roman-63"/>
     <use x="375.732421875" xlink:href="#BitstreamVeraSans-Roman-65"/>
     <use x="437.255859375" xlink:href="#BitstreamVeraSans-Roman-2d"/>
     <use x="469.71484375" xlink:href="#BitstreamVeraSans-Roman-42"/>
     <use x="538.318359375" xlink:href="#BitstreamVeraSans-Roman-61"/>
     <use x="599.59765625" xlink:href="#BitstreamVeraSans-Roman-73"/>
     <use x="651.697265625" xlink:href="#BitstreamVeraSans-Roman-65"/>
     <use x="713.220703125" xlink:href="#BitstreamVeraSans-Roman-64"/>
     <use x="776.697265625" xlink:href="#BitstreamVeraSans-Roman-20"/>
     <use x="808.484375" xlink:href="#BitstreamVeraSans-Roman-44"/>
     <use x="885.486328125" xlink:href="#BitstreamVeraSans-Roman-65"/>
     <use x="947.009765625" xlink:href="#BitstreamVeraSans-Roman-63"/>
     <use x="1001.99023438" xlink:href="#BitstreamVeraSans-Roman-61"/>
     <use x="1063.26953125" xlink:href="#BitstreamVeraSans-Roman-79"/>
     <use x="1122.44921875" xlink:href="#BitstreamVeraSans-Roman-20"/>
     <use x="1154.23632812" xlink:href="#BitstreamVeraSans-Roman-46"/>
     <use x="1206.25585938" xlink:href="#BitstreamVeraSans-Roman-75"/>
     <use x="1269.63476562" xlink:href="#BitstreamVeraSans-Roman-6e"/>
     <use x="1333.01367188" xlink:href="#BitstreamVeraSans-Roman-63"/>
     <use x="1387.99414062" xlink:href="#BitstreamVeraSans-Roman-74"/>
     <use x="1427.203125" xlink:href="#BitstreamVeraSans-Roman-69"/>
     <use x="1454.98632812" xlink:href="#BitstreamVeraSans-Roman-6f"/>
     <use x="1516.16796875" xlink:href="#BitstreamVeraSans-Roman-6e"/>
     <use x="1579.546875" xlink:href="#BitstreamVeraSans-Roman-73"/>
    </g>
   </g>
  </g>
 </g>
 <defs>
  <clipPath id="pbcfbd4f4a8">
   <rect height="334.8" width="837.0" x="135.0" y="43.2"/>
  </clipPath>
 </defs>
</svg>
