<?xml version="1.0" encoding="utf-8" standalone="no"?>
<!DOCTYPE svg PUBLIC "-//W3C//DTD SVG 1.1//EN"
  "http://www.w3.org/Graphics/SVG/1.1/DTD/svg11.dtd">
<!-- Created with matplotlib (http://matplotlib.org/) -->
<svg height="360pt" version="1.1" viewBox="0 0 1080 360" width="1080pt" xmlns="http://www.w3.org/2000/svg" xmlns:xlink="http://www.w3.org/1999/xlink">
 <defs>
  <style type="text/css">
*{stroke-linecap:butt;stroke-linejoin:round;}
  </style>
 </defs>
 <g id="figure_1">
  <g id="patch_1">
   <path d="
M0 360
L1080 360
L1080 0
L0 0
z
" style="fill:#ffffff;"/>
  </g>
  <g id="axes_1">
   <g id="PolyCollection_1">
    <defs>
     <path d="
M135 -45
L135 -100.8
L184.235 -100.8
L184.235 -45
L135 -45
z
" id="C0_0_d8d7dbab14"/>
     <path d="
M184.235 -45
L184.235 -100.8
L233.471 -100.8
L233.471 -45
L184.235 -45
z
" id="C0_1_06df0c0bd3"/>
     <path d="
M233.471 -45
L233.471 -100.8
L282.706 -100.8
L282.706 -45
L233.471 -45
z
" id="C0_2_d008ba0b17"/>
     <path d="
M282.706 -45
L282.706 -100.8
L331.941 -100.8
L331.941 -45
L282.706 -45
z
" id="C0_3_c6761ebe2c"/>
     <path d="
M331.941 -45
L331.941 -100.8
L381.176 -100.8
L381.176 -45
L331.941 -45
z
" id="C0_4_233dfc9dd9"/>
     <path d="
M135 -100.8
L135 -156.6
L184.235 -156.6
L184.235 -100.8
L135 -100.8
z
" id="C0_5_a5532a4e32"/>
     <path d="
M184.235 -100.8
L184.235 -156.6
L233.471 -156.6
L233.471 -100.8
L184.235 -100.8
z
" id="C0_6_1793902c0e"/>
     <path d="
M233.471 -100.8
L233.471 -156.6
L282.706 -156.6
L282.706 -100.8
L233.471 -100.8
z
" id="C0_7_49207f3317"/>
     <path d="
M282.706 -100.8
L282.706 -156.6
L331.941 -156.6
L331.941 -100.8
L282.706 -100.8
z
" id="C0_8_a81f9b1230"/>
     <path d="
M331.941 -100.8
L331.941 -156.6
L381.176 -156.6
L381.176 -100.8
L331.941 -100.8
z
" id="C0_9_c4013b6a11"/>
     <path d="
M135 -156.6
L135 -212.4
L184.235 -212.4
L184.235 -156.6
L135 -156.6
z
" id="C0_a_fc60a04c36"/>
     <path d="
M184.235 -156.6
L184.235 -212.4
L233.471 -212.4
L233.471 -156.6
L184.235 -156.6
z
" id="C0_b_368e032f0a"/>
     <path d="
M233.471 -156.6
L233.471 -212.4
L282.706 -212.4
L282.706 -156.6
L233.471 -156.6
z
" id="C0_c_95fafdd191"/>
     <path d="
M282.706 -156.6
L282.706 -212.4
L331.941 -212.4
L331.941 -156.6
L282.706 -156.6
z
" id="C0_d_9ea465ce06"/>
     <path d="
M331.941 -156.6
L331.941 -212.4
L381.176 -212.4
L381.176 -156.6
L331.941 -156.6
z
" id="C0_e_9dae5a1dc8"/>
     <path d="
M135 -212.4
L135 -268.2
L184.235 -268.2
L184.235 -212.4
L135 -212.4
z
" id="C0_f_dfa602096e"/>
     <path d="
M184.235 -212.4
L184.235 -268.2
L233.471 -268.2
L233.471 -212.4
L184.235 -212.4
z
" id="C0_10_19e490ecd9"/>
     <path d="
M233.471 -212.4
L233.471 -268.2
L282.706 -268.2
L282.706 -212.4
L233.471 -212.4
z
" id="C0_11_814adfa524"/>
     <path d="
M282.706 -212.4
L282.706 -268.2
L331.941 -268.2
L331.941 -212.4
L282.706 -212.4
z
" id="C0_12_b872520265"/>
     <path d="
M331.941 -212.4
L331.941 -268.2
L381.176 -268.2
L381.176 -212.4
L331.941 -212.4
z
" id="C0_13_f879e83b6e"/>
     <path d="
M135 -268.2
L135 -324
L184.235 -324
L184.235 -268.2
L135 -268.2
z
" id="C0_14_cc1ecc4dca"/>
     <path d="
M184.235 -268.2
L184.235 -324
L233.471 -324
L233.471 -268.2
L184.235 -268.2
z
" id="C0_15_b3c9314315"/>
     <path d="
M233.471 -268.2
L233.471 -324
L282.706 -324
L282.706 -268.2
L233.471 -268.2
z
" id="C0_16_8589edcd16"/>
     <path d="
M282.706 -268.2
L282.706 -324
L331.941 -324
L331.941 -268.2
L282.706 -268.2
z
" id="C0_17_b18ee7768d"/>
     <path d="
M331.941 -268.2
L331.941 -324
L381.176 -324
L381.176 -268.2
L331.941 -268.2
z
" id="C0_18_40ad1dfebf"/>
    </defs>
    <g clip-path="url(#p8ae71ff58c)">
     <use style="fill:#0000ff;fill-opacity:0.8;stroke:#ffffff;stroke-opacity:0.8;stroke-width:0.25;" x="0.0" xlink:href="#C0_0_d8d7dbab14" y="360.0"/>
    </g>
    <g clip-path="url(#p8ae71ff58c)">
     <use style="fill:#0000ff;fill-opacity:0.8;stroke:#ffffff;stroke-opacity:0.8;stroke-width:0.25;" x="0.0" xlink:href="#C0_1_06df0c0bd3" y="360.0"/>
    </g>
    <g clip-path="url(#p8ae71ff58c)">
     <use style="fill:#0000ff;fill-opacity:0.8;stroke:#ffffff;stroke-opacity:0.8;stroke-width:0.25;" x="0.0" xlink:href="#C0_2_d008ba0b17" y="360.0"/>
    </g>
    <g clip-path="url(#p8ae71ff58c)">
     <use style="fill:#0000ff;fill-opacity:0.8;stroke:#ffffff;stroke-opacity:0.8;stroke-width:0.25;" x="0.0" xlink:href="#C0_3_c6761ebe2c" y="360.0"/>
    </g>
    <g clip-path="url(#p8ae71ff58c)">
     <use style="fill:#0000ff;fill-opacity:0.8;stroke:#ffffff;stroke-opacity:0.8;stroke-width:0.25;" x="0.0" xlink:href="#C0_4_233dfc9dd9" y="360.0"/>
    </g>
    <g clip-path="url(#p8ae71ff58c)">
     <use style="fill:#0000ff;fill-opacity:0.8;stroke:#ffffff;stroke-opacity:0.8;stroke-width:0.25;" x="0.0" xlink:href="#C0_5_a5532a4e32" y="360.0"/>
    </g>
    <g clip-path="url(#p8ae71ff58c)">
     <use style="fill:#0000ff;fill-opacity:0.8;stroke:#ffffff;stroke-opacity:0.8;stroke-width:0.25;" x="0.0" xlink:href="#C0_6_1793902c0e" y="360.0"/>
    </g>
    <g clip-path="url(#p8ae71ff58c)">
     <use style="fill:#0000ff;fill-opacity:0.8;stroke:#ffffff;stroke-opacity:0.8;stroke-width:0.25;" x="0.0" xlink:href="#C0_7_49207f3317" y="360.0"/>
    </g>
    <g clip-path="url(#p8ae71ff58c)">
     <use style="fill:#0000ff;fill-opacity:0.8;stroke:#ffffff;stroke-opacity:0.8;stroke-width:0.25;" x="0.0" xlink:href="#C0_8_a81f9b1230" y="360.0"/>
    </g>
    <g clip-path="url(#p8ae71ff58c)">
     <use style="fill:#0000ff;fill-opacity:0.8;stroke:#ffffff;stroke-opacity:0.8;stroke-width:0.25;" x="0.0" xlink:href="#C0_9_c4013b6a11" y="360.0"/>
    </g>
    <g clip-path="url(#p8ae71ff58c)">
     <use style="fill:#0000ff;fill-opacity:0.8;stroke:#ffffff;stroke-opacity:0.8;stroke-width:0.25;" x="0.0" xlink:href="#C0_a_fc60a04c36" y="360.0"/>
    </g>
    <g clip-path="url(#p8ae71ff58c)">
     <use style="fill:#0000ff;fill-opacity:0.8;stroke:#ffffff;stroke-opacity:0.8;stroke-width:0.25;" x="0.0" xlink:href="#C0_b_368e032f0a" y="360.0"/>
    </g>
    <g clip-path="url(#p8ae71ff58c)">
     <use style="fill:#0000ff;fill-opacity:0.8;stroke:#ffffff;stroke-opacity:0.8;stroke-width:0.25;" x="0.0" xlink:href="#C0_c_95fafdd191" y="360.0"/>
    </g>
    <g clip-path="url(#p8ae71ff58c)">
     <use style="fill:#0000ff;fill-opacity:0.8;stroke:#ffffff;stroke-opacity:0.8;stroke-width:0.25;" x="0.0" xlink:href="#C0_d_9ea465ce06" y="360.0"/>
    </g>
    <g clip-path="url(#p8ae71ff58c)">
     <use style="fill:#0000ff;fill-opacity:0.8;stroke:#ffffff;stroke-opacity:0.8;stroke-width:0.25;" x="0.0" xlink:href="#C0_e_9dae5a1dc8" y="360.0"/>
    </g>
    <g clip-path="url(#p8ae71ff58c)">
     <use style="fill:#0000ff;fill-opacity:0.8;stroke:#ffffff;stroke-opacity:0.8;stroke-width:0.25;" x="0.0" xlink:href="#C0_f_dfa602096e" y="360.0"/>
    </g>
    <g clip-path="url(#p8ae71ff58c)">
     <use style="fill:#0000ff;fill-opacity:0.8;stroke:#ffffff;stroke-opacity:0.8;stroke-width:0.25;" x="0.0" xlink:href="#C0_10_19e490ecd9" y="360.0"/>
    </g>
    <g clip-path="url(#p8ae71ff58c)">
     <use style="fill:#0000ff;fill-opacity:0.8;stroke:#ffffff;stroke-opacity:0.8;stroke-width:0.25;" x="0.0" xlink:href="#C0_11_814adfa524" y="360.0"/>
    </g>
    <g clip-path="url(#p8ae71ff58c)">
     <use style="fill:#0000ff;fill-opacity:0.8;stroke:#ffffff;stroke-opacity:0.8;stroke-width:0.25;" x="0.0" xlink:href="#C0_12_b872520265" y="360.0"/>
    </g>
    <g clip-path="url(#p8ae71ff58c)">
     <use style="fill:#0000ff;fill-opacity:0.8;stroke:#ffffff;stroke-opacity:0.8;stroke-width:0.25;" x="0.0" xlink:href="#C0_13_f879e83b6e" y="360.0"/>
    </g>
    <g clip-path="url(#p8ae71ff58c)">
     <use style="fill:#0000ff;fill-opacity:0.8;stroke:#ffffff;stroke-opacity:0.8;stroke-width:0.25;" x="0.0" xlink:href="#C0_14_cc1ecc4dca" y="360.0"/>
    </g>
    <g clip-path="url(#p8ae71ff58c)">
     <use style="fill:#0000ff;fill-opacity:0.8;stroke:#ffffff;stroke-opacity:0.8;stroke-width:0.25;" x="0.0" xlink:href="#C0_15_b3c9314315" y="360.0"/>
    </g>
    <g clip-path="url(#p8ae71ff58c)">
     <use style="fill:#0000ff;fill-opacity:0.8;stroke:#ffffff;stroke-opacity:0.8;stroke-width:0.25;" x="0.0" xlink:href="#C0_16_8589edcd16" y="360.0"/>
    </g>
    <g clip-path="url(#p8ae71ff58c)">
     <use style="fill:#0000ff;fill-opacity:0.8;stroke:#ffffff;stroke-opacity:0.8;stroke-width:0.25;" x="0.0" xlink:href="#C0_17_b18ee7768d" y="360.0"/>
    </g>
    <g clip-path="url(#p8ae71ff58c)">
     <use style="fill:#0000ff;fill-opacity:0.8;stroke:#ffffff;stroke-opacity:0.8;stroke-width:0.25;" x="0.0" xlink:href="#C0_18_40ad1dfebf" y="360.0"/>
    </g>
   </g>
   <g id="matplotlib.axis_1"/>
   <g id="matplotlib.axis_2"/>
   <g id="text_1">
    <!-- 10 -->
    <defs>
     <path d="
M31.7812 66.4062
Q24.1719 66.4062 20.3281 58.9062
Q16.5 51.4219 16.5 36.375
Q16.5 21.3906 20.3281 13.8906
Q24.1719 6.39062 31.7812 6.39062
Q39.4531 6.39062 43.2812 13.8906
Q47.125 21.3906 47.125 36.375
Q47.125 51.4219 43.2812 58.9062
Q39.4531 66.4062 31.7812 66.4062
M31.7812 74.2188
Q44.0469 74.2188 50.5156 64.5156
Q56.9844 54.8281 56.9844 36.375
Q56.9844 17.9688 50.5156 8.26562
Q44.0469 -1.42188 31.7812 -1.42188
Q19.5312 -1.42188 13.0625 8.26562
Q6.59375 17.9688 6.59375 36.375
Q6.59375 54.8281 13.0625 64.5156
Q19.5312 74.2188 31.7812 74.2188" id="BitstreamVeraSans-Roman-30"/>
     <path d="
M12.4062 8.29688
L28.5156 8.29688
L28.5156 63.9219
L10.9844 60.4062
L10.9844 69.3906
L28.4219 72.9062
L38.2812 72.9062
L38.2812 8.29688
L54.3906 8.29688
L54.3906 0
L12.4062 0
z
" id="BitstreamVeraSans-Roman-31"/>
    </defs>
    <g style="fill:#ffffff;" transform="translate(150.847647059 291.515)scale(0.16 -0.16)">
     <use xlink:href="#BitstreamVeraSans-Roman-31"/>
     <use x="63.623046875" xlink:href="#BitstreamVeraSans-Roman-30"/>
    </g>
   </g>
   <g id="text_2">
    <!-- 10 -->
    <g style="fill:#ffffff;" transform="translate(150.847647059 235.715)scale(0.16 -0.16)">
     <use xlink:href="#BitstreamVeraSans-Roman-31"/>
     <use x="63.623046875" xlink:href="#BitstreamVeraSans-Roman-30"/>
    </g>
   </g>
   <g id="text_3">
    <!-- 10 -->
    <g style="fill:#ffffff;" transform="translate(150.847647059 179.915)scale(0.16 -0.16)">
     <use xlink:href="#BitstreamVeraSans-Roman-31"/>
     <use x="63.623046875" xlink:href="#BitstreamVeraSans-Roman-30"/>
    </g>
   </g>
   <g id="text_4">
    <!-- 10 -->
    <g style="fill:#ffffff;" transform="translate(150.847647059 124.115)scale(0.16 -0.16)">
     <use xlink:href="#BitstreamVeraSans-Roman-31"/>
     <use x="63.623046875" xlink:href="#BitstreamVeraSans-Roman-30"/>
    </g>
   </g>
   <g id="text_5">
    <!-- 10 -->
    <g style="fill:#ffffff;" transform="translate(150.847647059 68.315)scale(0.16 -0.16)">
     <use xlink:href="#BitstreamVeraSans-Roman-31"/>
     <use x="63.623046875" xlink:href="#BitstreamVeraSans-Roman-30"/>
    </g>
   </g>
   <g id="text_6">
    <!-- 10 -->
    <g style="fill:#ffffff;" transform="translate(200.082941176 291.515)scale(0.16 -0.16)">
     <use xlink:href="#BitstreamVeraSans-Roman-31"/>
     <use x="63.623046875" xlink:href="#BitstreamVeraSans-Roman-30"/>
    </g>
   </g>
   <g id="text_7">
    <!-- 10 -->
    <g style="fill:#ffffff;" transform="translate(200.082941176 235.715)scale(0.16 -0.16)">
     <use xlink:href="#BitstreamVeraSans-Roman-31"/>
     <use x="63.623046875" xlink:href="#BitstreamVeraSans-Roman-30"/>
    </g>
   </g>
   <g id="text_8">
    <!-- 10 -->
    <g style="fill:#ffffff;" transform="translate(200.082941176 179.915)scale(0.16 -0.16)">
     <use xlink:href="#BitstreamVeraSans-Roman-31"/>
     <use x="63.623046875" xlink:href="#BitstreamVeraSans-Roman-30"/>
    </g>
   </g>
   <g id="text_9">
    <!-- 10 -->
    <g style="fill:#ffffff;" transform="translate(200.082941176 124.115)scale(0.16 -0.16)">
     <use xlink:href="#BitstreamVeraSans-Roman-31"/>
     <use x="63.623046875" xlink:href="#BitstreamVeraSans-Roman-30"/>
    </g>
   </g>
   <g id="text_10">
    <!-- 10 -->
    <g style="fill:#ffffff;" transform="translate(200.082941176 68.315)scale(0.16 -0.16)">
     <use xlink:href="#BitstreamVeraSans-Roman-31"/>
     <use x="63.623046875" xlink:href="#BitstreamVeraSans-Roman-30"/>
    </g>
   </g>
   <g id="text_11">
    <!-- 10 -->
    <g style="fill:#ffffff;" transform="translate(249.318235294 291.515)scale(0.16 -0.16)">
     <use xlink:href="#BitstreamVeraSans-Roman-31"/>
     <use x="63.623046875" xlink:href="#BitstreamVeraSans-Roman-30"/>
    </g>
   </g>
   <g id="text_12">
    <!-- 10 -->
    <g style="fill:#ffffff;" transform="translate(249.318235294 235.715)scale(0.16 -0.16)">
     <use xlink:href="#BitstreamVeraSans-Roman-31"/>
     <use x="63.623046875" xlink:href="#BitstreamVeraSans-Roman-30"/>
    </g>
   </g>
   <g id="text_13">
    <!-- 10 -->
    <g style="fill:#ffffff;" transform="translate(249.318235294 179.915)scale(0.16 -0.16)">
     <use xlink:href="#BitstreamVeraSans-Roman-31"/>
     <use x="63.623046875" xlink:href="#BitstreamVeraSans-Roman-30"/>
    </g>
   </g>
   <g id="text_14">
    <!-- 10 -->
    <g style="fill:#ffffff;" transform="translate(249.318235294 124.115)scale(0.16 -0.16)">
     <use xlink:href="#BitstreamVeraSans-Roman-31"/>
     <use x="63.623046875" xlink:href="#BitstreamVeraSans-Roman-30"/>
    </g>
   </g>
   <g id="text_15">
    <!-- 10 -->
    <g style="fill:#ffffff;" transform="translate(249.318235294 68.315)scale(0.16 -0.16)">
     <use xlink:href="#BitstreamVeraSans-Roman-31"/>
     <use x="63.623046875" xlink:href="#BitstreamVeraSans-Roman-30"/>
    </g>
   </g>
   <g id="text_16">
    <!-- 10 -->
    <g style="fill:#ffffff;" transform="translate(298.553529412 291.515)scale(0.16 -0.16)">
     <use xlink:href="#BitstreamVeraSans-Roman-31"/>
     <use x="63.623046875" xlink:href="#BitstreamVeraSans-Roman-30"/>
    </g>
   </g>
   <g id="text_17">
    <!-- 10 -->
    <g style="fill:#ffffff;" transform="translate(298.553529412 235.715)scale(0.16 -0.16)">
     <use xlink:href="#BitstreamVeraSans-Roman-31"/>
     <use x="63.623046875" xlink:href="#BitstreamVeraSans-Roman-30"/>
    </g>
   </g>
   <g id="text_18">
    <!-- 10 -->
    <g style="fill:#ffffff;" transform="translate(298.553529412 179.915)scale(0.16 -0.16)">
     <use xlink:href="#BitstreamVeraSans-Roman-31"/>
     <use x="63.623046875" xlink:href="#BitstreamVeraSans-Roman-30"/>
    </g>
   </g>
   <g id="text_19">
    <!-- 10 -->
    <g style="fill:#ffffff;" transform="translate(298.553529412 124.115)scale(0.16 -0.16)">
     <use xlink:href="#BitstreamVeraSans-Roman-31"/>
     <use x="63.623046875" xlink:href="#BitstreamVeraSans-Roman-30"/>
    </g>
   </g>
   <g id="text_20">
    <!-- 10 -->
    <g style="fill:#ffffff;" transform="translate(298.553529412 68.315)scale(0.16 -0.16)">
     <use xlink:href="#BitstreamVeraSans-Roman-31"/>
     <use x="63.623046875" xlink:href="#BitstreamVeraSans-Roman-30"/>
    </g>
   </g>
   <g id="text_21">
    <!-- 10 -->
    <g style="fill:#ffffff;" transform="translate(347.788823529 291.515)scale(0.16 -0.16)">
     <use xlink:href="#BitstreamVeraSans-Roman-31"/>
     <use x="63.623046875" xlink:href="#BitstreamVeraSans-Roman-30"/>
    </g>
   </g>
   <g id="text_22">
    <!-- 10 -->
    <g style="fill:#ffffff;" transform="translate(347.788823529 235.715)scale(0.16 -0.16)">
     <use xlink:href="#BitstreamVeraSans-Roman-31"/>
     <use x="63.623046875" xlink:href="#BitstreamVeraSans-Roman-30"/>
    </g>
   </g>
   <g id="text_23">
    <!-- 10 -->
    <g style="fill:#ffffff;" transform="translate(347.788823529 179.915)scale(0.16 -0.16)">
     <use xlink:href="#BitstreamVeraSans-Roman-31"/>
     <use x="63.623046875" xlink:href="#BitstreamVeraSans-Roman-30"/>
    </g>
   </g>
   <g id="text_24">
    <!-- 10 -->
    <g style="fill:#ffffff;" transform="translate(347.788823529 124.115)scale(0.16 -0.16)">
     <use xlink:href="#BitstreamVeraSans-Roman-31"/>
     <use x="63.623046875" xlink:href="#BitstreamVeraSans-Roman-30"/>
    </g>
   </g>
   <g id="text_25">
    <!-- 10 -->
    <g style="fill:#ffffff;" transform="translate(347.788823529 68.315)scale(0.16 -0.16)">
     <use xlink:href="#BitstreamVeraSans-Roman-31"/>
     <use x="63.623046875" xlink:href="#BitstreamVeraSans-Roman-30"/>
    </g>
   </g>
   <g id="text_26">
    <!-- High Measure (G&amp;O) -->
    <defs>
     <path id="BitstreamVeraSans-Roman-20"/>
     <path d="
M9.8125 72.9062
L24.5156 72.9062
L43.1094 23.2969
L61.8125 72.9062
L76.5156 72.9062
L76.5156 0
L66.8906 0
L66.8906 64.0156
L48.0938 14.0156
L38.1875 14.0156
L19.3906 64.0156
L19.3906 0
L9.8125 0
z
" id="BitstreamVeraSans-Roman-4d"/>
     <path d="
M24.3125 39.2031
Q19.875 35.25 17.7969 31.3125
Q15.7188 27.3906 15.7188 23.0938
Q15.7188 15.9688 20.8906 11.2344
Q26.0781 6.5 33.8906 6.5
Q38.5312 6.5 42.5781 8.03125
Q46.625 9.57812 50.2031 12.7031
z

M31.2031 44.6719
L56 19.2812
Q58.8906 23.6406 60.5 28.5938
Q62.1094 33.5469 62.4062 39.1094
L71.4844 39.1094
Q70.9062 32.6719 68.3594 26.3594
Q65.8281 20.0625 61.2812 13.9219
L74.9062 0
L62.5938 0
L55.6094 7.17188
Q50.5312 2.82812 44.9688 0.703125
Q39.4062 -1.42188 33.0156 -1.42188
Q21.2344 -1.42188 13.7656 5.29688
Q6.29688 12.0156 6.29688 22.5156
Q6.29688 28.7656 9.5625 34.25
Q12.8438 39.75 19.3906 44.5781
Q17.0469 47.6562 15.8125 50.7031
Q14.5938 53.7656 14.5938 56.6875
Q14.5938 64.5938 20.0156 69.4062
Q25.4375 74.2188 34.4219 74.2188
Q38.4844 74.2188 42.5 73.3438
Q46.5312 72.4688 50.6875 70.7031
L50.6875 61.8125
Q46.4375 64.1094 42.5781 65.2969
Q38.7188 66.5 35.4062 66.5
Q30.2812 66.5 27.0781 63.7812
Q23.875 61.0781 23.875 56.7812
Q23.875 54.2969 25.3125 51.7812
Q26.7656 49.2656 31.2031 44.6719" id="BitstreamVeraSans-Roman-26"/>
     <path d="
M8.01562 75.875
L15.8281 75.875
Q23.1406 64.3594 26.7812 53.3125
Q30.4219 42.2812 30.4219 31.3906
Q30.4219 20.4531 26.7812 9.375
Q23.1406 -1.70312 15.8281 -13.1875
L8.01562 -13.1875
Q14.5 -2 17.7031 9.0625
Q20.9062 20.125 20.9062 31.3906
Q20.9062 42.6719 17.7031 53.6562
Q14.5 64.6562 8.01562 75.875" id="BitstreamVeraSans-Roman-29"/>
     <path d="
M41.1094 46.2969
Q39.5938 47.1719 37.8125 47.5781
Q36.0312 48 33.8906 48
Q26.2656 48 22.1875 43.0469
Q18.1094 38.0938 18.1094 28.8125
L18.1094 0
L9.07812 0
L9.07812 54.6875
L18.1094 54.6875
L18.1094 46.1875
Q20.9531 51.1719 25.4844 53.5781
Q30.0312 56 36.5312 56
Q37.4531 56 38.5781 55.875
Q39.7031 55.7656 41.0625 55.5156
z
" id="BitstreamVeraSans-Roman-72"/>
     <path d="
M59.5156 10.4062
L59.5156 29.9844
L43.4062 29.9844
L43.4062 38.0938
L69.2812 38.0938
L69.2812 6.78125
Q63.5781 2.73438 56.6875 0.65625
Q49.8125 -1.42188 42 -1.42188
Q24.9062 -1.42188 15.25 8.5625
Q5.60938 18.5625 5.60938 36.375
Q5.60938 54.25 15.25 64.2344
Q24.9062 74.2188 42 74.2188
Q49.125 74.2188 55.5469 72.4531
Q61.9688 70.7031 67.3906 67.2812
L67.3906 56.7812
Q61.9219 61.4219 55.7656 63.7656
Q49.6094 66.1094 42.8281 66.1094
Q29.4375 66.1094 22.7188 58.6406
Q16.0156 51.1719 16.0156 36.375
Q16.0156 21.625 22.7188 14.1562
Q29.4375 6.6875 42.8281 6.6875
Q48.0469 6.6875 52.1406 7.59375
Q56.25 8.5 59.5156 10.4062" id="BitstreamVeraSans-Roman-47"/>
     <path d="
M9.42188 54.6875
L18.4062 54.6875
L18.4062 0
L9.42188 0
z

M9.42188 75.9844
L18.4062 75.9844
L18.4062 64.5938
L9.42188 64.5938
z
" id="BitstreamVeraSans-Roman-69"/>
     <path d="
M54.8906 33.0156
L54.8906 0
L45.9062 0
L45.9062 32.7188
Q45.9062 40.4844 42.875 44.3281
Q39.8438 48.1875 33.7969 48.1875
Q26.5156 48.1875 22.3125 43.5469
Q18.1094 38.9219 18.1094 30.9062
L18.1094 0
L9.07812 0
L9.07812 75.9844
L18.1094 75.9844
L18.1094 46.1875
Q21.3438 51.125 25.7031 53.5625
Q30.0781 56 35.7969 56
Q45.2188 56 50.0469 50.1719
Q54.8906 44.3438 54.8906 33.0156" id="BitstreamVeraSans-Roman-68"/>
     <path d="
M39.4062 66.2188
Q28.6562 66.2188 22.3281 58.2031
Q16.0156 50.2031 16.0156 36.375
Q16.0156 22.6094 22.3281 14.5938
Q28.6562 6.59375 39.4062 6.59375
Q50.1406 6.59375 56.4219 14.5938
Q62.7031 22.6094 62.7031 36.375
Q62.7031 50.2031 56.4219 58.2031
Q50.1406 66.2188 39.4062 66.2188
M39.4062 74.2188
Q54.7344 74.2188 63.9062 63.9375
Q73.0938 53.6562 73.0938 36.375
Q73.0938 19.1406 63.9062 8.85938
Q54.7344 -1.42188 39.4062 -1.42188
Q24.0312 -1.42188 14.8125 8.82812
Q5.60938 19.0938 5.60938 36.375
Q5.60938 53.6562 14.8125 63.9375
Q24.0312 74.2188 39.4062 74.2188" id="BitstreamVeraSans-Roman-4f"/>
     <path d="
M31 75.875
Q24.4688 64.6562 21.2812 53.6562
Q18.1094 42.6719 18.1094 31.3906
Q18.1094 20.125 21.3125 9.0625
Q24.5156 -2 31 -13.1875
L23.1875 -13.1875
Q15.875 -1.70312 12.2344 9.375
Q8.59375 20.4531 8.59375 31.3906
Q8.59375 42.2812 12.2031 53.3125
Q15.8281 64.3594 23.1875 75.875
z
" id="BitstreamVeraSans-Roman-28"/>
     <path d="
M56.2031 29.5938
L56.2031 25.2031
L14.8906 25.2031
Q15.4844 15.9219 20.4844 11.0625
Q25.4844 6.20312 34.4219 6.20312
Q39.5938 6.20312 44.4531 7.46875
Q49.3125 8.73438 54.1094 11.2812
L54.1094 2.78125
Q49.2656 0.734375 44.1875 -0.34375
Q39.1094 -1.42188 33.8906 -1.42188
Q20.7969 -1.42188 13.1562 6.1875
Q5.51562 13.8125 5.51562 26.8125
Q5.51562 40.2344 12.7656 48.1094
Q20.0156 56 32.3281 56
Q43.3594 56 49.7812 48.8906
Q56.2031 41.7969 56.2031 29.5938
M47.2188 32.2344
Q47.125 39.5938 43.0938 43.9844
Q39.0625 48.3906 32.4219 48.3906
Q24.9062 48.3906 20.3906 44.1406
Q15.875 39.8906 15.1875 32.1719
z
" id="BitstreamVeraSans-Roman-65"/>
     <path d="
M45.4062 27.9844
Q45.4062 37.75 41.375 43.1094
Q37.3594 48.4844 30.0781 48.4844
Q22.8594 48.4844 18.8281 43.1094
Q14.7969 37.75 14.7969 27.9844
Q14.7969 18.2656 18.8281 12.8906
Q22.8594 7.51562 30.0781 7.51562
Q37.3594 7.51562 41.375 12.8906
Q45.4062 18.2656 45.4062 27.9844
M54.3906 6.78125
Q54.3906 -7.17188 48.1875 -13.9844
Q42 -20.7969 29.2031 -20.7969
Q24.4688 -20.7969 20.2656 -20.0938
Q16.0625 -19.3906 12.1094 -17.9219
L12.1094 -9.1875
Q16.0625 -11.3281 19.9219 -12.3438
Q23.7812 -13.375 27.7812 -13.375
Q36.625 -13.375 41.0156 -8.76562
Q45.4062 -4.15625 45.4062 5.17188
L45.4062 9.625
Q42.625 4.78125 38.2812 2.39062
Q33.9375 0 27.875 0
Q17.8281 0 11.6719 7.65625
Q5.51562 15.3281 5.51562 27.9844
Q5.51562 40.6719 11.6719 48.3281
Q17.8281 56 27.875 56
Q33.9375 56 38.2812 53.6094
Q42.625 51.2188 45.4062 46.3906
L45.4062 54.6875
L54.3906 54.6875
z
" id="BitstreamVeraSans-Roman-67"/>
     <path d="
M8.5 21.5781
L8.5 54.6875
L17.4844 54.6875
L17.4844 21.9219
Q17.4844 14.1562 20.5 10.2656
Q23.5312 6.39062 29.5938 6.39062
Q36.8594 6.39062 41.0781 11.0312
Q45.3125 15.6719 45.3125 23.6875
L45.3125 54.6875
L54.2969 54.6875
L54.2969 0
L45.3125 0
L45.3125 8.40625
Q42.0469 3.42188 37.7188 1
Q33.4062 -1.42188 27.6875 -1.42188
Q18.2656 -1.42188 13.375 4.4375
Q8.5 10.2969 8.5 21.5781" id="BitstreamVeraSans-Roman-75"/>
     <path d="
M34.2812 27.4844
Q23.3906 27.4844 19.1875 25
Q14.9844 22.5156 14.9844 16.5
Q14.9844 11.7188 18.1406 8.90625
Q21.2969 6.10938 26.7031 6.10938
Q34.1875 6.10938 38.7031 11.4062
Q43.2188 16.7031 43.2188 25.4844
L43.2188 27.4844
z

M52.2031 31.2031
L52.2031 0
L43.2188 0
L43.2188 8.29688
Q40.1406 3.32812 35.5469 0.953125
Q30.9531 -1.42188 24.3125 -1.42188
Q15.9219 -1.42188 10.9531 3.29688
Q6 8.01562 6 15.9219
Q6 25.1406 12.1719 29.8281
Q18.3594 34.5156 30.6094 34.5156
L43.2188 34.5156
L43.2188 35.4062
Q43.2188 41.6094 39.1406 45
Q35.0625 48.3906 27.6875 48.3906
Q23 48.3906 18.5469 47.2656
Q14.1094 46.1406 10.0156 43.8906
L10.0156 52.2031
Q14.9375 54.1094 19.5781 55.0469
Q24.2188 56 28.6094 56
Q40.4844 56 46.3438 49.8438
Q52.2031 43.7031 52.2031 31.2031" id="BitstreamVeraSans-Roman-61"/>
     <path d="
M44.2812 53.0781
L44.2812 44.5781
Q40.4844 46.5312 36.375 47.5
Q32.2812 48.4844 27.875 48.4844
Q21.1875 48.4844 17.8438 46.4375
Q14.5 44.3906 14.5 40.2812
Q14.5 37.1562 16.8906 35.375
Q19.2812 33.5938 26.5156 31.9844
L29.5938 31.2969
Q39.1562 29.25 43.1875 25.5156
Q47.2188 21.7812 47.2188 15.0938
Q47.2188 7.46875 41.1875 3.01562
Q35.1562 -1.42188 24.6094 -1.42188
Q20.2188 -1.42188 15.4531 -0.5625
Q10.6875 0.296875 5.42188 2
L5.42188 11.2812
Q10.4062 8.6875 15.2344 7.39062
Q20.0625 6.10938 24.8125 6.10938
Q31.1562 6.10938 34.5625 8.28125
Q37.9844 10.4531 37.9844 14.4062
Q37.9844 18.0625 35.5156 20.0156
Q33.0625 21.9688 24.7031 23.7812
L21.5781 24.5156
Q13.2344 26.2656 9.51562 29.9062
Q5.8125 33.5469 5.8125 39.8906
Q5.8125 47.6094 11.2812 51.7969
Q16.75 56 26.8125 56
Q31.7812 56 36.1719 55.2656
Q40.5781 54.5469 44.2812 53.0781" id="BitstreamVeraSans-Roman-73"/>
     <path d="
M9.8125 72.9062
L19.6719 72.9062
L19.6719 43.0156
L55.5156 43.0156
L55.5156 72.9062
L65.375 72.9062
L65.375 0
L55.5156 0
L55.5156 34.7188
L19.6719 34.7188
L19.6719 0
L9.8125 0
z
" id="BitstreamVeraSans-Roman-48"/>
    </defs>
    <g transform="translate(166.109641544 31.0)scale(0.18 -0.18)">
     <use xlink:href="#BitstreamVeraSans-Roman-48"/>
     <use x="75.1953125" xlink:href="#BitstreamVeraSans-Roman-69"/>
     <use x="102.978515625" xlink:href="#BitstreamVeraSans-Roman-67"/>
     <use x="166.455078125" xlink:href="#BitstreamVeraSans-Roman-68"/>
     <use x="229.833984375" xlink:href="#BitstreamVeraSans-Roman-20"/>
     <use x="261.62109375" xlink:href="#BitstreamVeraSans-Roman-4d"/>
     <use x="347.900390625" xlink:href="#BitstreamVeraSans-Roman-65"/>
     <use x="409.423828125" xlink:href="#BitstreamVeraSans-Roman-61"/>
     <use x="470.703125" xlink:href="#BitstreamVeraSans-Roman-73"/>
     <use x="522.802734375" xlink:href="#BitstreamVeraSans-Roman-75"/>
     <use x="586.181640625" xlink:href="#BitstreamVeraSans-Roman-72"/>
     <use x="625.044921875" xlink:href="#BitstreamVeraSans-Roman-65"/>
     <use x="686.568359375" xlink:href="#BitstreamVeraSans-Roman-20"/>
     <use x="718.35546875" xlink:href="#BitstreamVeraSans-Roman-28"/>
     <use x="757.369140625" xlink:href="#BitstreamVeraSans-Roman-47"/>
     <use x="834.859375" xlink:href="#BitstreamVeraSans-Roman-26"/>
     <use x="912.837890625" xlink:href="#BitstreamVeraSans-Roman-4f"/>
     <use x="991.548828125" xlink:href="#BitstreamVeraSans-Roman-29"/>
    </g>
   </g>
  </g>
  <g id="axes_2">
   <g id="PolyCollection_2">
    <defs>
     <path d="
M430.412 -45
L430.412 -100.8
L479.647 -100.8
L479.647 -45
L430.412 -45
z
" id="C1_0_55c41bd2ce"/>
     <path d="
M479.647 -45
L479.647 -100.8
L528.882 -100.8
L528.882 -45
L479.647 -45
z
" id="C1_1_8e106275c0"/>
     <path d="
M528.882 -45
L528.882 -100.8
L578.118 -100.8
L578.118 -45
L528.882 -45
z
" id="C1_2_83ad978a08"/>
     <path d="
M578.118 -45
L578.118 -100.8
L627.353 -100.8
L627.353 -45
L578.118 -45
z
" id="C1_3_498b0a89ee"/>
     <path d="
M627.353 -45
L627.353 -100.8
L676.588 -100.8
L676.588 -45
L627.353 -45
z
" id="C1_4_94dad1f85f"/>
     <path d="
M430.412 -100.8
L430.412 -156.6
L479.647 -156.6
L479.647 -100.8
L430.412 -100.8
z
" id="C1_5_3e183d13b5"/>
     <path d="
M479.647 -100.8
L479.647 -156.6
L528.882 -156.6
L528.882 -100.8
L479.647 -100.8
z
" id="C1_6_f301b5b638"/>
     <path d="
M528.882 -100.8
L528.882 -156.6
L578.118 -156.6
L578.118 -100.8
L528.882 -100.8
z
" id="C1_7_e76b044486"/>
     <path d="
M578.118 -100.8
L578.118 -156.6
L627.353 -156.6
L627.353 -100.8
L578.118 -100.8
z
" id="C1_8_e818578493"/>
     <path d="
M627.353 -100.8
L627.353 -156.6
L676.588 -156.6
L676.588 -100.8
L627.353 -100.8
z
" id="C1_9_61e2585b5d"/>
     <path d="
M430.412 -156.6
L430.412 -212.4
L479.647 -212.4
L479.647 -156.6
L430.412 -156.6
z
" id="C1_a_16b239c010"/>
     <path d="
M479.647 -156.6
L479.647 -212.4
L528.882 -212.4
L528.882 -156.6
L479.647 -156.6
z
" id="C1_b_9a8cff95ff"/>
     <path d="
M528.882 -156.6
L528.882 -212.4
L578.118 -212.4
L578.118 -156.6
L528.882 -156.6
z
" id="C1_c_e411511f63"/>
     <path d="
M578.118 -156.6
L578.118 -212.4
L627.353 -212.4
L627.353 -156.6
L578.118 -156.6
z
" id="C1_d_abac176f55"/>
     <path d="
M627.353 -156.6
L627.353 -212.4
L676.588 -212.4
L676.588 -156.6
L627.353 -156.6
z
" id="C1_e_ea08f98f11"/>
     <path d="
M430.412 -212.4
L430.412 -268.2
L479.647 -268.2
L479.647 -212.4
L430.412 -212.4
z
" id="C1_f_34b16293b9"/>
     <path d="
M479.647 -212.4
L479.647 -268.2
L528.882 -268.2
L528.882 -212.4
L479.647 -212.4
z
" id="C1_10_aa1a740efa"/>
     <path d="
M528.882 -212.4
L528.882 -268.2
L578.118 -268.2
L578.118 -212.4
L528.882 -212.4
z
" id="C1_11_094d2dce52"/>
     <path d="
M578.118 -212.4
L578.118 -268.2
L627.353 -268.2
L627.353 -212.4
L578.118 -212.4
z
" id="C1_12_b7b3a22b08"/>
     <path d="
M627.353 -212.4
L627.353 -268.2
L676.588 -268.2
L676.588 -212.4
L627.353 -212.4
z
" id="C1_13_e084ff03a4"/>
     <path d="
M430.412 -268.2
L430.412 -324
L479.647 -324
L479.647 -268.2
L430.412 -268.2
z
" id="C1_14_7a49dfe43a"/>
     <path d="
M479.647 -268.2
L479.647 -324
L528.882 -324
L528.882 -268.2
L479.647 -268.2
z
" id="C1_15_40d60ef05b"/>
     <path d="
M528.882 -268.2
L528.882 -324
L578.118 -324
L578.118 -268.2
L528.882 -268.2
z
" id="C1_16_1c4d0557a5"/>
     <path d="
M578.118 -268.2
L578.118 -324
L627.353 -324
L627.353 -268.2
L578.118 -268.2
z
" id="C1_17_6e0d3f3781"/>
     <path d="
M627.353 -268.2
L627.353 -324
L676.588 -324
L676.588 -268.2
L627.353 -268.2
z
" id="C1_18_11a51e0a4d"/>
    </defs>
    <g clip-path="url(#pa24eabdf34)">
     <use style="fill:#ff0000;fill-opacity:0.8;stroke:#ffffff;stroke-opacity:0.8;stroke-width:0.25;" x="0.0" xlink:href="#C1_0_55c41bd2ce" y="360.0"/>
    </g>
    <g clip-path="url(#pa24eabdf34)">
     <use style="fill:#ff0000;fill-opacity:0.8;stroke:#ffffff;stroke-opacity:0.8;stroke-width:0.25;" x="0.0" xlink:href="#C1_1_8e106275c0" y="360.0"/>
    </g>
    <g clip-path="url(#pa24eabdf34)">
     <use style="fill:#ff0000;fill-opacity:0.8;stroke:#ffffff;stroke-opacity:0.8;stroke-width:0.25;" x="0.0" xlink:href="#C1_2_83ad978a08" y="360.0"/>
    </g>
    <g clip-path="url(#pa24eabdf34)">
     <use style="fill:#ff0000;fill-opacity:0.8;stroke:#ffffff;stroke-opacity:0.8;stroke-width:0.25;" x="0.0" xlink:href="#C1_3_498b0a89ee" y="360.0"/>
    </g>
    <g clip-path="url(#pa24eabdf34)">
     <use style="fill:#ff0000;fill-opacity:0.8;stroke:#ffffff;stroke-opacity:0.8;stroke-width:0.25;" x="0.0" xlink:href="#C1_4_94dad1f85f" y="360.0"/>
    </g>
    <g clip-path="url(#pa24eabdf34)">
     <use style="fill:#ff0000;fill-opacity:0.8;stroke:#ffffff;stroke-opacity:0.8;stroke-width:0.25;" x="0.0" xlink:href="#C1_5_3e183d13b5" y="360.0"/>
    </g>
    <g clip-path="url(#pa24eabdf34)">
     <use style="fill:#ff0000;fill-opacity:0.8;stroke:#ffffff;stroke-opacity:0.8;stroke-width:0.25;" x="0.0" xlink:href="#C1_6_f301b5b638" y="360.0"/>
    </g>
    <g clip-path="url(#pa24eabdf34)">
     <use style="fill:#ff0000;fill-opacity:0.8;stroke:#ffffff;stroke-opacity:0.8;stroke-width:0.25;" x="0.0" xlink:href="#C1_7_e76b044486" y="360.0"/>
    </g>
    <g clip-path="url(#pa24eabdf34)">
     <use style="fill:#ff0000;fill-opacity:0.8;stroke:#ffffff;stroke-opacity:0.8;stroke-width:0.25;" x="0.0" xlink:href="#C1_8_e818578493" y="360.0"/>
    </g>
    <g clip-path="url(#pa24eabdf34)">
     <use style="fill:#ff0000;fill-opacity:0.8;stroke:#ffffff;stroke-opacity:0.8;stroke-width:0.25;" x="0.0" xlink:href="#C1_9_61e2585b5d" y="360.0"/>
    </g>
    <g clip-path="url(#pa24eabdf34)">
     <use style="fill:#ff0000;fill-opacity:0.8;stroke:#ffffff;stroke-opacity:0.8;stroke-width:0.25;" x="0.0" xlink:href="#C1_a_16b239c010" y="360.0"/>
    </g>
    <g clip-path="url(#pa24eabdf34)">
     <use style="fill:#ff0000;fill-opacity:0.8;stroke:#ffffff;stroke-opacity:0.8;stroke-width:0.25;" x="0.0" xlink:href="#C1_b_9a8cff95ff" y="360.0"/>
    </g>
    <g clip-path="url(#pa24eabdf34)">
     <use style="fill:#ff0000;fill-opacity:0.8;stroke:#ffffff;stroke-opacity:0.8;stroke-width:0.25;" x="0.0" xlink:href="#C1_c_e411511f63" y="360.0"/>
    </g>
    <g clip-path="url(#pa24eabdf34)">
     <use style="fill:#ff0000;fill-opacity:0.8;stroke:#ffffff;stroke-opacity:0.8;stroke-width:0.25;" x="0.0" xlink:href="#C1_d_abac176f55" y="360.0"/>
    </g>
    <g clip-path="url(#pa24eabdf34)">
     <use style="fill:#ff0000;fill-opacity:0.8;stroke:#ffffff;stroke-opacity:0.8;stroke-width:0.25;" x="0.0" xlink:href="#C1_e_ea08f98f11" y="360.0"/>
    </g>
    <g clip-path="url(#pa24eabdf34)">
     <use style="fill:#ff0000;fill-opacity:0.8;stroke:#ffffff;stroke-opacity:0.8;stroke-width:0.25;" x="0.0" xlink:href="#C1_f_34b16293b9" y="360.0"/>
    </g>
    <g clip-path="url(#pa24eabdf34)">
     <use style="fill:#ff0000;fill-opacity:0.8;stroke:#ffffff;stroke-opacity:0.8;stroke-width:0.25;" x="0.0" xlink:href="#C1_10_aa1a740efa" y="360.0"/>
    </g>
    <g clip-path="url(#pa24eabdf34)">
     <use style="fill:#ff0000;fill-opacity:0.8;stroke:#ffffff;stroke-opacity:0.8;stroke-width:0.25;" x="0.0" xlink:href="#C1_11_094d2dce52" y="360.0"/>
    </g>
    <g clip-path="url(#pa24eabdf34)">
     <use style="fill:#ff0000;fill-opacity:0.8;stroke:#ffffff;stroke-opacity:0.8;stroke-width:0.25;" x="0.0" xlink:href="#C1_12_b7b3a22b08" y="360.0"/>
    </g>
    <g clip-path="url(#pa24eabdf34)">
     <use style="fill:#ff0000;fill-opacity:0.8;stroke:#ffffff;stroke-opacity:0.8;stroke-width:0.25;" x="0.0" xlink:href="#C1_13_e084ff03a4" y="360.0"/>
    </g>
    <g clip-path="url(#pa24eabdf34)">
     <use style="fill:#ff0000;fill-opacity:0.8;stroke:#ffffff;stroke-opacity:0.8;stroke-width:0.25;" x="0.0" xlink:href="#C1_14_7a49dfe43a" y="360.0"/>
    </g>
    <g clip-path="url(#pa24eabdf34)">
     <use style="fill:#ff0000;fill-opacity:0.8;stroke:#ffffff;stroke-opacity:0.8;stroke-width:0.25;" x="0.0" xlink:href="#C1_15_40d60ef05b" y="360.0"/>
    </g>
    <g clip-path="url(#pa24eabdf34)">
     <use style="fill:#ff0000;fill-opacity:0.8;stroke:#ffffff;stroke-opacity:0.8;stroke-width:0.25;" x="0.0" xlink:href="#C1_16_1c4d0557a5" y="360.0"/>
    </g>
    <g clip-path="url(#pa24eabdf34)">
     <use style="fill:#ff0000;fill-opacity:0.8;stroke:#ffffff;stroke-opacity:0.8;stroke-width:0.25;" x="0.0" xlink:href="#C1_17_6e0d3f3781" y="360.0"/>
    </g>
    <g clip-path="url(#pa24eabdf34)">
     <use style="fill:#ff0000;fill-opacity:0.8;stroke:#ffffff;stroke-opacity:0.8;stroke-width:0.25;" x="0.0" xlink:href="#C1_18_11a51e0a4d" y="360.0"/>
    </g>
   </g>
   <g id="matplotlib.axis_3"/>
   <g id="matplotlib.axis_4"/>
   <g id="text_27">
    <!-- 1 -->
    <g style="fill:#ffffff;" transform="translate(451.556911765 291.515)scale(0.16 -0.16)">
     <use xlink:href="#BitstreamVeraSans-Roman-31"/>
    </g>
   </g>
   <g id="text_28">
    <!-- 1 -->
    <g style="fill:#ffffff;" transform="translate(451.556911765 235.715)scale(0.16 -0.16)">
     <use xlink:href="#BitstreamVeraSans-Roman-31"/>
    </g>
   </g>
   <g id="text_29">
    <!-- 1 -->
    <g style="fill:#ffffff;" transform="translate(451.556911765 179.915)scale(0.16 -0.16)">
     <use xlink:href="#BitstreamVeraSans-Roman-31"/>
    </g>
   </g>
   <g id="text_30">
    <!-- 1 -->
    <g style="fill:#ffffff;" transform="translate(451.556911765 124.115)scale(0.16 -0.16)">
     <use xlink:href="#BitstreamVeraSans-Roman-31"/>
    </g>
   </g>
   <g id="text_31">
    <!-- 1 -->
    <g style="fill:#ffffff;" transform="translate(451.556911765 68.315)scale(0.16 -0.16)">
     <use xlink:href="#BitstreamVeraSans-Roman-31"/>
    </g>
   </g>
   <g id="text_32">
    <!-- 1 -->
    <g style="fill:#ffffff;" transform="translate(500.792205882 291.515)scale(0.16 -0.16)">
     <use xlink:href="#BitstreamVeraSans-Roman-31"/>
    </g>
   </g>
   <g id="text_33">
    <!-- 1 -->
    <g style="fill:#ffffff;" transform="translate(500.792205882 235.715)scale(0.16 -0.16)">
     <use xlink:href="#BitstreamVeraSans-Roman-31"/>
    </g>
   </g>
   <g id="text_34">
    <!-- 1 -->
    <g style="fill:#ffffff;" transform="translate(500.792205882 179.915)scale(0.16 -0.16)">
     <use xlink:href="#BitstreamVeraSans-Roman-31"/>
    </g>
   </g>
   <g id="text_35">
    <!-- 1 -->
    <g style="fill:#ffffff;" transform="translate(500.792205882 124.115)scale(0.16 -0.16)">
     <use xlink:href="#BitstreamVeraSans-Roman-31"/>
    </g>
   </g>
   <g id="text_36">
    <!-- 1 -->
    <g style="fill:#ffffff;" transform="translate(500.792205882 68.315)scale(0.16 -0.16)">
     <use xlink:href="#BitstreamVeraSans-Roman-31"/>
    </g>
   </g>
   <g id="text_37">
    <!-- 1 -->
    <g style="fill:#ffffff;" transform="translate(550.0275 291.515)scale(0.16 -0.16)">
     <use xlink:href="#BitstreamVeraSans-Roman-31"/>
    </g>
   </g>
   <g id="text_38">
    <!-- 1 -->
    <g style="fill:#ffffff;" transform="translate(550.0275 235.715)scale(0.16 -0.16)">
     <use xlink:href="#BitstreamVeraSans-Roman-31"/>
    </g>
   </g>
   <g id="text_39">
    <!-- 1 -->
    <g style="fill:#ffffff;" transform="translate(550.0275 179.915)scale(0.16 -0.16)">
     <use xlink:href="#BitstreamVeraSans-Roman-31"/>
    </g>
   </g>
   <g id="text_40">
    <!-- 1 -->
    <g style="fill:#ffffff;" transform="translate(550.0275 124.115)scale(0.16 -0.16)">
     <use xlink:href="#BitstreamVeraSans-Roman-31"/>
    </g>
   </g>
   <g id="text_41">
    <!-- 1 -->
    <g style="fill:#ffffff;" transform="translate(550.0275 68.315)scale(0.16 -0.16)">
     <use xlink:href="#BitstreamVeraSans-Roman-31"/>
    </g>
   </g>
   <g id="text_42">
    <!-- 1 -->
    <g style="fill:#ffffff;" transform="translate(599.262794118 291.515)scale(0.16 -0.16)">
     <use xlink:href="#BitstreamVeraSans-Roman-31"/>
    </g>
   </g>
   <g id="text_43">
    <!-- 1 -->
    <g style="fill:#ffffff;" transform="translate(599.262794118 235.715)scale(0.16 -0.16)">
     <use xlink:href="#BitstreamVeraSans-Roman-31"/>
    </g>
   </g>
   <g id="text_44">
    <!-- 1 -->
    <g style="fill:#ffffff;" transform="translate(599.262794118 179.915)scale(0.16 -0.16)">
     <use xlink:href="#BitstreamVeraSans-Roman-31"/>
    </g>
   </g>
   <g id="text_45">
    <!-- 1 -->
    <g style="fill:#ffffff;" transform="translate(599.262794118 124.115)scale(0.16 -0.16)">
     <use xlink:href="#BitstreamVeraSans-Roman-31"/>
    </g>
   </g>
   <g id="text_46">
    <!-- 1 -->
    <g style="fill:#ffffff;" transform="translate(599.262794118 68.315)scale(0.16 -0.16)">
     <use xlink:href="#BitstreamVeraSans-Roman-31"/>
    </g>
   </g>
   <g id="text_47">
    <!-- 1 -->
    <g style="fill:#ffffff;" transform="translate(648.498088235 291.515)scale(0.16 -0.16)">
     <use xlink:href="#BitstreamVeraSans-Roman-31"/>
    </g>
   </g>
   <g id="text_48">
    <!-- 1 -->
    <g style="fill:#ffffff;" transform="translate(648.498088235 235.715)scale(0.16 -0.16)">
     <use xlink:href="#BitstreamVeraSans-Roman-31"/>
    </g>
   </g>
   <g id="text_49">
    <!-- 1 -->
    <g style="fill:#ffffff;" transform="translate(648.498088235 179.915)scale(0.16 -0.16)">
     <use xlink:href="#BitstreamVeraSans-Roman-31"/>
    </g>
   </g>
   <g id="text_50">
    <!-- 1 -->
    <g style="fill:#ffffff;" transform="translate(648.498088235 124.115)scale(0.16 -0.16)">
     <use xlink:href="#BitstreamVeraSans-Roman-31"/>
    </g>
   </g>
   <g id="text_51">
    <!-- 1 -->
    <g style="fill:#ffffff;" transform="translate(648.498088235 68.315)scale(0.16 -0.16)">
     <use xlink:href="#BitstreamVeraSans-Roman-31"/>
    </g>
   </g>
   <g id="text_52">
    <!-- Low Measure (G&amp;O) -->
    <defs>
     <path d="
M4.20312 54.6875
L13.1875 54.6875
L24.4219 12.0156
L35.5938 54.6875
L46.1875 54.6875
L57.4219 12.0156
L68.6094 54.6875
L77.5938 54.6875
L63.2812 0
L52.6875 0
L40.9219 44.8281
L29.1094 0
L18.5 0
z
" id="BitstreamVeraSans-Roman-77"/>
     <path d="
M30.6094 48.3906
Q23.3906 48.3906 19.1875 42.75
Q14.9844 37.1094 14.9844 27.2969
Q14.9844 17.4844 19.1562 11.8438
Q23.3438 6.20312 30.6094 6.20312
Q37.7969 6.20312 41.9844 11.8594
Q46.1875 17.5312 46.1875 27.2969
Q46.1875 37.0156 41.9844 42.7031
Q37.7969 48.3906 30.6094 48.3906
M30.6094 56
Q42.3281 56 49.0156 48.375
Q55.7188 40.7656 55.7188 27.2969
Q55.7188 13.875 49.0156 6.21875
Q42.3281 -1.42188 30.6094 -1.42188
Q18.8438 -1.42188 12.1719 6.21875
Q5.51562 13.875 5.51562 27.2969
Q5.51562 40.7656 12.1719 48.375
Q18.8438 56 30.6094 56" id="BitstreamVeraSans-Roman-6f"/>
     <path d="
M9.8125 72.9062
L19.6719 72.9062
L19.6719 8.29688
L55.1719 8.29688
L55.1719 0
L9.8125 0
z
" id="BitstreamVeraSans-Roman-4c"/>
    </defs>
    <g transform="translate(464.48296875 31.0)scale(0.18 -0.18)">
     <use xlink:href="#BitstreamVeraSans-Roman-4c"/>
     <use x="53.962890625" xlink:href="#BitstreamVeraSans-Roman-6f"/>
     <use x="115.14453125" xlink:href="#BitstreamVeraSans-Roman-77"/>
     <use x="196.931640625" xlink:href="#BitstreamVeraSans-Roman-20"/>
     <use x="228.71875" xlink:href="#BitstreamVeraSans-Roman-4d"/>
     <use x="314.998046875" xlink:href="#BitstreamVeraSans-Roman-65"/>
     <use x="376.521484375" xlink:href="#BitstreamVeraSans-Roman-61"/>
     <use x="437.80078125" xlink:href="#BitstreamVeraSans-Roman-73"/>
     <use x="489.900390625" xlink:href="#BitstreamVeraSans-Roman-75"/>
     <use x="553.279296875" xlink:href="#BitstreamVeraSans-Roman-72"/>
     <use x="592.142578125" xlink:href="#BitstreamVeraSans-Roman-65"/>
     <use x="653.666015625" xlink:href="#BitstreamVeraSans-Roman-20"/>
     <use x="685.453125" xlink:href="#BitstreamVeraSans-Roman-28"/>
     <use x="724.466796875" xlink:href="#BitstreamVeraSans-Roman-47"/>
     <use x="801.95703125" xlink:href="#BitstreamVeraSans-Roman-26"/>
     <use x="879.935546875" xlink:href="#BitstreamVeraSans-Roman-4f"/>
     <use x="958.646484375" xlink:href="#BitstreamVeraSans-Roman-29"/>
    </g>
   </g>
  </g>
  <g id="axes_3">
   <g id="PolyCollection_3">
    <defs>
     <path d="
M725.824 -45
L725.824 -100.8
L775.059 -100.8
L775.059 -45
L725.824 -45
z
" id="C2_0_4d36ae19bd"/>
     <path d="
M775.059 -45
L775.059 -100.8
L824.294 -100.8
L824.294 -45
L775.059 -45
z
" id="C2_1_8529fb6183"/>
     <path d="
M824.294 -45
L824.294 -100.8
L873.529 -100.8
L873.529 -45
L824.294 -45
z
" id="C2_2_7d3534608d"/>
     <path d="
M873.529 -45
L873.529 -100.8
L922.765 -100.8
L922.765 -45
L873.529 -45
z
" id="C2_3_a17470fd86"/>
     <path d="
M922.765 -45
L922.765 -100.8
L972 -100.8
L972 -45
L922.765 -45
z
" id="C2_4_43eb9cbe5a"/>
     <path d="
M725.824 -100.8
L725.824 -156.6
L775.059 -156.6
L775.059 -100.8
L725.824 -100.8
z
" id="C2_5_bddf2ed39a"/>
     <path d="
M775.059 -100.8
L775.059 -156.6
L824.294 -156.6
L824.294 -100.8
L775.059 -100.8
z
" id="C2_6_f04641c659"/>
     <path d="
M824.294 -100.8
L824.294 -156.6
L873.529 -156.6
L873.529 -100.8
L824.294 -100.8
z
" id="C2_7_c7dca4e24d"/>
     <path d="
M873.529 -100.8
L873.529 -156.6
L922.765 -156.6
L922.765 -100.8
L873.529 -100.8
z
" id="C2_8_57a4356262"/>
     <path d="
M922.765 -100.8
L922.765 -156.6
L972 -156.6
L972 -100.8
L922.765 -100.8
z
" id="C2_9_18ff8e4b2d"/>
     <path d="
M725.824 -156.6
L725.824 -212.4
L775.059 -212.4
L775.059 -156.6
L725.824 -156.6
z
" id="C2_a_f97fca8e3a"/>
     <path d="
M775.059 -156.6
L775.059 -212.4
L824.294 -212.4
L824.294 -156.6
L775.059 -156.6
z
" id="C2_b_14e2ea2ae8"/>
     <path d="
M824.294 -156.6
L824.294 -212.4
L873.529 -212.4
L873.529 -156.6
L824.294 -156.6
z
" id="C2_c_0cf7e82eb9"/>
     <path d="
M873.529 -156.6
L873.529 -212.4
L922.765 -212.4
L922.765 -156.6
L873.529 -156.6
z
" id="C2_d_74aa74b503"/>
     <path d="
M922.765 -156.6
L922.765 -212.4
L972 -212.4
L972 -156.6
L922.765 -156.6
z
" id="C2_e_8046c9f8a6"/>
     <path d="
M725.824 -212.4
L725.824 -268.2
L775.059 -268.2
L775.059 -212.4
L725.824 -212.4
z
" id="C2_f_a389bbac54"/>
     <path d="
M775.059 -212.4
L775.059 -268.2
L824.294 -268.2
L824.294 -212.4
L775.059 -212.4
z
" id="C2_10_311134ed03"/>
     <path d="
M824.294 -212.4
L824.294 -268.2
L873.529 -268.2
L873.529 -212.4
L824.294 -212.4
z
" id="C2_11_e04c058d88"/>
     <path d="
M873.529 -212.4
L873.529 -268.2
L922.765 -268.2
L922.765 -212.4
L873.529 -212.4
z
" id="C2_12_b37df047b0"/>
     <path d="
M922.765 -212.4
L922.765 -268.2
L972 -268.2
L972 -212.4
L922.765 -212.4
z
" id="C2_13_e012aaaa7a"/>
     <path d="
M725.824 -268.2
L725.824 -324
L775.059 -324
L775.059 -268.2
L725.824 -268.2
z
" id="C2_14_4c88a0f5b7"/>
     <path d="
M775.059 -268.2
L775.059 -324
L824.294 -324
L824.294 -268.2
L775.059 -268.2
z
" id="C2_15_0b6a9d9281"/>
     <path d="
M824.294 -268.2
L824.294 -324
L873.529 -324
L873.529 -268.2
L824.294 -268.2
z
" id="C2_16_ccc61d8ee2"/>
     <path d="
M873.529 -268.2
L873.529 -324
L922.765 -324
L922.765 -268.2
L873.529 -268.2
z
" id="C2_17_9a626807e3"/>
     <path d="
M922.765 -268.2
L922.765 -324
L972 -324
L972 -268.2
L922.765 -268.2
z
" id="C2_18_f5fb29a755"/>
    </defs>
    <g clip-path="url(#pebfb4cacfe)">
     <use style="fill:#808080;fill-opacity:0.8;stroke:#ffffff;stroke-opacity:0.8;stroke-width:0.25;" x="0.0" xlink:href="#C2_0_4d36ae19bd" y="360.0"/>
    </g>
    <g clip-path="url(#pebfb4cacfe)">
     <use style="fill:#808080;fill-opacity:0.8;stroke:#ffffff;stroke-opacity:0.8;stroke-width:0.25;" x="0.0" xlink:href="#C2_1_8529fb6183" y="360.0"/>
    </g>
    <g clip-path="url(#pebfb4cacfe)">
     <use style="fill:#808080;fill-opacity:0.8;stroke:#ffffff;stroke-opacity:0.8;stroke-width:0.25;" x="0.0" xlink:href="#C2_2_7d3534608d" y="360.0"/>
    </g>
    <g clip-path="url(#pebfb4cacfe)">
     <use style="fill:#808080;fill-opacity:0.8;stroke:#ffffff;stroke-opacity:0.8;stroke-width:0.25;" x="0.0" xlink:href="#C2_3_a17470fd86" y="360.0"/>
    </g>
    <g clip-path="url(#pebfb4cacfe)">
     <use style="fill:#808080;fill-opacity:0.8;stroke:#ffffff;stroke-opacity:0.8;stroke-width:0.25;" x="0.0" xlink:href="#C2_4_43eb9cbe5a" y="360.0"/>
    </g>
    <g clip-path="url(#pebfb4cacfe)">
     <use style="fill:#808080;fill-opacity:0.8;stroke:#ffffff;stroke-opacity:0.8;stroke-width:0.25;" x="0.0" xlink:href="#C2_5_bddf2ed39a" y="360.0"/>
    </g>
    <g clip-path="url(#pebfb4cacfe)">
     <use style="fill:#808080;fill-opacity:0.8;stroke:#ffffff;stroke-opacity:0.8;stroke-width:0.25;" x="0.0" xlink:href="#C2_6_f04641c659" y="360.0"/>
    </g>
    <g clip-path="url(#pebfb4cacfe)">
     <use style="fill:#808080;fill-opacity:0.8;stroke:#ffffff;stroke-opacity:0.8;stroke-width:0.25;" x="0.0" xlink:href="#C2_7_c7dca4e24d" y="360.0"/>
    </g>
    <g clip-path="url(#pebfb4cacfe)">
     <use style="fill:#808080;fill-opacity:0.8;stroke:#ffffff;stroke-opacity:0.8;stroke-width:0.25;" x="0.0" xlink:href="#C2_8_57a4356262" y="360.0"/>
    </g>
    <g clip-path="url(#pebfb4cacfe)">
     <use style="fill:#808080;fill-opacity:0.8;stroke:#ffffff;stroke-opacity:0.8;stroke-width:0.25;" x="0.0" xlink:href="#C2_9_18ff8e4b2d" y="360.0"/>
    </g>
    <g clip-path="url(#pebfb4cacfe)">
     <use style="fill:#808080;fill-opacity:0.8;stroke:#ffffff;stroke-opacity:0.8;stroke-width:0.25;" x="0.0" xlink:href="#C2_a_f97fca8e3a" y="360.0"/>
    </g>
    <g clip-path="url(#pebfb4cacfe)">
     <use style="fill:#808080;fill-opacity:0.8;stroke:#ffffff;stroke-opacity:0.8;stroke-width:0.25;" x="0.0" xlink:href="#C2_b_14e2ea2ae8" y="360.0"/>
    </g>
    <g clip-path="url(#pebfb4cacfe)">
     <use style="fill:#808080;fill-opacity:0.8;stroke:#ffffff;stroke-opacity:0.8;stroke-width:0.25;" x="0.0" xlink:href="#C2_c_0cf7e82eb9" y="360.0"/>
    </g>
    <g clip-path="url(#pebfb4cacfe)">
     <use style="fill:#808080;fill-opacity:0.8;stroke:#ffffff;stroke-opacity:0.8;stroke-width:0.25;" x="0.0" xlink:href="#C2_d_74aa74b503" y="360.0"/>
    </g>
    <g clip-path="url(#pebfb4cacfe)">
     <use style="fill:#808080;fill-opacity:0.8;stroke:#ffffff;stroke-opacity:0.8;stroke-width:0.25;" x="0.0" xlink:href="#C2_e_8046c9f8a6" y="360.0"/>
    </g>
    <g clip-path="url(#pebfb4cacfe)">
     <use style="fill:#808080;fill-opacity:0.8;stroke:#ffffff;stroke-opacity:0.8;stroke-width:0.25;" x="0.0" xlink:href="#C2_f_a389bbac54" y="360.0"/>
    </g>
    <g clip-path="url(#pebfb4cacfe)">
     <use style="fill:#808080;fill-opacity:0.8;stroke:#ffffff;stroke-opacity:0.8;stroke-width:0.25;" x="0.0" xlink:href="#C2_10_311134ed03" y="360.0"/>
    </g>
    <g clip-path="url(#pebfb4cacfe)">
     <use style="fill:#808080;fill-opacity:0.8;stroke:#ffffff;stroke-opacity:0.8;stroke-width:0.25;" x="0.0" xlink:href="#C2_11_e04c058d88" y="360.0"/>
    </g>
    <g clip-path="url(#pebfb4cacfe)">
     <use style="fill:#808080;fill-opacity:0.8;stroke:#ffffff;stroke-opacity:0.8;stroke-width:0.25;" x="0.0" xlink:href="#C2_12_b37df047b0" y="360.0"/>
    </g>
    <g clip-path="url(#pebfb4cacfe)">
     <use style="fill:#808080;fill-opacity:0.8;stroke:#ffffff;stroke-opacity:0.8;stroke-width:0.25;" x="0.0" xlink:href="#C2_13_e012aaaa7a" y="360.0"/>
    </g>
    <g clip-path="url(#pebfb4cacfe)">
     <use style="fill:#808080;fill-opacity:0.8;stroke:#ffffff;stroke-opacity:0.8;stroke-width:0.25;" x="0.0" xlink:href="#C2_14_4c88a0f5b7" y="360.0"/>
    </g>
    <g clip-path="url(#pebfb4cacfe)">
     <use style="fill:#808080;fill-opacity:0.8;stroke:#ffffff;stroke-opacity:0.8;stroke-width:0.25;" x="0.0" xlink:href="#C2_15_0b6a9d9281" y="360.0"/>
    </g>
    <g clip-path="url(#pebfb4cacfe)">
     <use style="fill:#808080;fill-opacity:0.8;stroke:#ffffff;stroke-opacity:0.8;stroke-width:0.25;" x="0.0" xlink:href="#C2_16_ccc61d8ee2" y="360.0"/>
    </g>
    <g clip-path="url(#pebfb4cacfe)">
     <use style="fill:#808080;fill-opacity:0.8;stroke:#ffffff;stroke-opacity:0.8;stroke-width:0.25;" x="0.0" xlink:href="#C2_17_9a626807e3" y="360.0"/>
    </g>
    <g clip-path="url(#pebfb4cacfe)">
     <use style="fill:#808080;fill-opacity:0.8;stroke:#ffffff;stroke-opacity:0.8;stroke-width:0.25;" x="0.0" xlink:href="#C2_18_f5fb29a755" y="360.0"/>
    </g>
   </g>
   <g id="matplotlib.axis_5"/>
   <g id="matplotlib.axis_6"/>
   <g id="text_53">
    <!-- 4 -->
    <defs>
     <path d="
M37.7969 64.3125
L12.8906 25.3906
L37.7969 25.3906
z

M35.2031 72.9062
L47.6094 72.9062
L47.6094 25.3906
L58.0156 25.3906
L58.0156 17.1875
L47.6094 17.1875
L47.6094 0
L37.7969 0
L37.7969 17.1875
L4.89062 17.1875
L4.89062 26.7031
z
" id="BitstreamVeraSans-Roman-34"/>
    </defs>
    <g style="fill:#ffffff;" transform="translate(746.191176471 291.515)scale(0.16 -0.16)">
     <use xlink:href="#BitstreamVeraSans-Roman-34"/>
    </g>
   </g>
   <g id="text_54">
    <!-- 6 -->
    <defs>
     <path d="
M33.0156 40.375
Q26.375 40.375 22.4844 35.8281
Q18.6094 31.2969 18.6094 23.3906
Q18.6094 15.5312 22.4844 10.9531
Q26.375 6.39062 33.0156 6.39062
Q39.6562 6.39062 43.5312 10.9531
Q47.4062 15.5312 47.4062 23.3906
Q47.4062 31.2969 43.5312 35.8281
Q39.6562 40.375 33.0156 40.375
M52.5938 71.2969
L52.5938 62.3125
Q48.875 64.0625 45.0938 64.9844
Q41.3125 65.9219 37.5938 65.9219
Q27.8281 65.9219 22.6719 59.3281
Q17.5312 52.7344 16.7969 39.4062
Q19.6719 43.6562 24.0156 45.9219
Q28.375 48.1875 33.5938 48.1875
Q44.5781 48.1875 50.9531 41.5156
Q57.3281 34.8594 57.3281 23.3906
Q57.3281 12.1562 50.6875 5.35938
Q44.0469 -1.42188 33.0156 -1.42188
Q20.3594 -1.42188 13.6719 8.26562
Q6.98438 17.9688 6.98438 36.375
Q6.98438 53.6562 15.1875 63.9375
Q23.3906 74.2188 37.2031 74.2188
Q40.9219 74.2188 44.7031 73.4844
Q48.4844 72.75 52.5938 71.2969" id="BitstreamVeraSans-Roman-36"/>
    </defs>
    <g style="fill:#ffffff;" transform="translate(746.413676471 235.715)scale(0.16 -0.16)">
     <use xlink:href="#BitstreamVeraSans-Roman-36"/>
    </g>
   </g>
   <g id="text_55">
    <!-- 6 -->
    <g style="fill:#ffffff;" transform="translate(746.413676471 179.915)scale(0.16 -0.16)">
     <use xlink:href="#BitstreamVeraSans-Roman-36"/>
    </g>
   </g>
   <g id="text_56">
    <!-- 9 -->
    <defs>
     <path d="
M10.9844 1.51562
L10.9844 10.5
Q14.7031 8.73438 18.5 7.8125
Q22.3125 6.89062 25.9844 6.89062
Q35.75 6.89062 40.8906 13.4531
Q46.0469 20.0156 46.7812 33.4062
Q43.9531 29.2031 39.5938 26.9531
Q35.25 24.7031 29.9844 24.7031
Q19.0469 24.7031 12.6719 31.3125
Q6.29688 37.9375 6.29688 49.4219
Q6.29688 60.6406 12.9375 67.4219
Q19.5781 74.2188 30.6094 74.2188
Q43.2656 74.2188 49.9219 64.5156
Q56.5938 54.8281 56.5938 36.375
Q56.5938 19.1406 48.4062 8.85938
Q40.2344 -1.42188 26.4219 -1.42188
Q22.7031 -1.42188 18.8906 -0.6875
Q15.0938 0.046875 10.9844 1.51562
M30.6094 32.4219
Q37.25 32.4219 41.125 36.9531
Q45.0156 41.5 45.0156 49.4219
Q45.0156 57.2812 41.125 61.8438
Q37.25 66.4062 30.6094 66.4062
Q23.9688 66.4062 20.0938 61.8438
Q16.2188 57.2812 16.2188 49.4219
Q16.2188 41.5 20.0938 36.9531
Q23.9688 32.4219 30.6094 32.4219" id="BitstreamVeraSans-Roman-39"/>
    </defs>
    <g style="fill:#ffffff;" transform="translate(746.417426471 124.115)scale(0.16 -0.16)">
     <use xlink:href="#BitstreamVeraSans-Roman-39"/>
    </g>
   </g>
   <g id="text_57">
    <!-- 1 -->
    <g style="fill:#ffffff;" transform="translate(746.968676471 68.315)scale(0.16 -0.16)">
     <use xlink:href="#BitstreamVeraSans-Roman-31"/>
    </g>
   </g>
   <g id="text_58">
    <!-- 6 -->
    <g style="fill:#ffffff;" transform="translate(795.648970588 291.515)scale(0.16 -0.16)">
     <use xlink:href="#BitstreamVeraSans-Roman-36"/>
    </g>
   </g>
   <g id="text_59">
    <!-- 7 -->
    <defs>
     <path d="
M8.20312 72.9062
L55.0781 72.9062
L55.0781 68.7031
L28.6094 0
L18.3125 0
L43.2188 64.5938
L8.20312 64.5938
z
" id="BitstreamVeraSans-Roman-37"/>
    </defs>
    <g style="fill:#ffffff;" transform="translate(795.926470588 235.715)scale(0.16 -0.16)">
     <use xlink:href="#BitstreamVeraSans-Roman-37"/>
    </g>
   </g>
   <g id="text_60">
    <!-- 7 -->
    <g style="fill:#ffffff;" transform="translate(795.926470588 179.915)scale(0.16 -0.16)">
     <use xlink:href="#BitstreamVeraSans-Roman-37"/>
    </g>
   </g>
   <g id="text_61">
    <!-- 2 -->
    <defs>
     <path d="
M19.1875 8.29688
L53.6094 8.29688
L53.6094 0
L7.32812 0
L7.32812 8.29688
Q12.9375 14.1094 22.625 23.8906
Q32.3281 33.6875 34.8125 36.5312
Q39.5469 41.8438 41.4219 45.5312
Q43.3125 49.2188 43.3125 52.7812
Q43.3125 58.5938 39.2344 62.25
Q35.1562 65.9219 28.6094 65.9219
Q23.9688 65.9219 18.8125 64.3125
Q13.6719 62.7031 7.8125 59.4219
L7.8125 69.3906
Q13.7656 71.7812 18.9375 73
Q24.125 74.2188 28.4219 74.2188
Q39.75 74.2188 46.4844 68.5469
Q53.2188 62.8906 53.2188 53.4219
Q53.2188 48.9219 51.5312 44.8906
Q49.8594 40.875 45.4062 35.4062
Q44.1875 33.9844 37.6406 27.2188
Q31.1094 20.4531 19.1875 8.29688" id="BitstreamVeraSans-Roman-32"/>
    </defs>
    <g style="fill:#ffffff;" transform="translate(795.973970588 124.115)scale(0.16 -0.16)">
     <use xlink:href="#BitstreamVeraSans-Roman-32"/>
    </g>
   </g>
   <g id="text_62">
    <!-- 4 -->
    <g style="fill:#ffffff;" transform="translate(795.426470588 68.315)scale(0.16 -0.16)">
     <use xlink:href="#BitstreamVeraSans-Roman-34"/>
    </g>
   </g>
   <g id="text_63">
    <!-- 5 -->
    <defs>
     <path d="
M10.7969 72.9062
L49.5156 72.9062
L49.5156 64.5938
L19.8281 64.5938
L19.8281 46.7344
Q21.9688 47.4688 24.1094 47.8281
Q26.2656 48.1875 28.4219 48.1875
Q40.625 48.1875 47.75 41.5
Q54.8906 34.8125 54.8906 23.3906
Q54.8906 11.625 47.5625 5.09375
Q40.2344 -1.42188 26.9062 -1.42188
Q22.3125 -1.42188 17.5469 -0.640625
Q12.7969 0.140625 7.71875 1.70312
L7.71875 11.625
Q12.1094 9.23438 16.7969 8.0625
Q21.4844 6.89062 26.7031 6.89062
Q35.1562 6.89062 40.0781 11.3281
Q45.0156 15.7656 45.0156 23.3906
Q45.0156 31 40.0781 35.4375
Q35.1562 39.8906 26.7031 39.8906
Q22.75 39.8906 18.8125 39.0156
Q14.8906 38.1406 10.7969 36.2812
z
" id="BitstreamVeraSans-Roman-35"/>
    </defs>
    <g style="fill:#ffffff;" transform="translate(845.138014706 291.515)scale(0.16 -0.16)">
     <use xlink:href="#BitstreamVeraSans-Roman-35"/>
    </g>
   </g>
   <g id="text_64">
    <!-- 6 -->
    <g style="fill:#ffffff;" transform="translate(844.884264706 235.715)scale(0.16 -0.16)">
     <use xlink:href="#BitstreamVeraSans-Roman-36"/>
    </g>
   </g>
   <g id="text_65">
    <!-- 9 -->
    <g style="fill:#ffffff;" transform="translate(844.888014706 179.915)scale(0.16 -0.16)">
     <use xlink:href="#BitstreamVeraSans-Roman-39"/>
    </g>
   </g>
   <g id="text_66">
    <!-- 5 -->
    <g style="fill:#ffffff;" transform="translate(845.138014706 124.115)scale(0.16 -0.16)">
     <use xlink:href="#BitstreamVeraSans-Roman-35"/>
    </g>
   </g>
   <g id="text_67">
    <!-- 1 -->
    <g style="fill:#ffffff;" transform="translate(845.439264706 68.315)scale(0.16 -0.16)">
     <use xlink:href="#BitstreamVeraSans-Roman-31"/>
    </g>
   </g>
   <g id="text_68">
    <!-- 8 -->
    <defs>
     <path d="
M31.7812 34.625
Q24.75 34.625 20.7188 30.8594
Q16.7031 27.0938 16.7031 20.5156
Q16.7031 13.9219 20.7188 10.1562
Q24.75 6.39062 31.7812 6.39062
Q38.8125 6.39062 42.8594 10.1719
Q46.9219 13.9688 46.9219 20.5156
Q46.9219 27.0938 42.8906 30.8594
Q38.875 34.625 31.7812 34.625
M21.9219 38.8125
Q15.5781 40.375 12.0312 44.7188
Q8.5 49.0781 8.5 55.3281
Q8.5 64.0625 14.7188 69.1406
Q20.9531 74.2188 31.7812 74.2188
Q42.6719 74.2188 48.875 69.1406
Q55.0781 64.0625 55.0781 55.3281
Q55.0781 49.0781 51.5312 44.7188
Q48 40.375 41.7031 38.8125
Q48.8281 37.1562 52.7969 32.3125
Q56.7812 27.4844 56.7812 20.5156
Q56.7812 9.90625 50.3125 4.23438
Q43.8438 -1.42188 31.7812 -1.42188
Q19.7344 -1.42188 13.25 4.23438
Q6.78125 9.90625 6.78125 20.5156
Q6.78125 27.4844 10.7812 32.3125
Q14.7969 37.1562 21.9219 38.8125
M18.3125 54.3906
Q18.3125 48.7344 21.8438 45.5625
Q25.3906 42.3906 31.7812 42.3906
Q38.1406 42.3906 41.7188 45.5625
Q45.3125 48.7344 45.3125 54.3906
Q45.3125 60.0625 41.7188 63.2344
Q38.1406 66.4062 31.7812 66.4062
Q25.3906 66.4062 21.8438 63.2344
Q18.3125 60.0625 18.3125 54.3906" id="BitstreamVeraSans-Roman-38"/>
    </defs>
    <g style="fill:#ffffff;" transform="translate(894.147058824 291.515)scale(0.16 -0.16)">
     <use xlink:href="#BitstreamVeraSans-Roman-38"/>
    </g>
   </g>
   <g id="text_69">
    <!-- 7 -->
    <g style="fill:#ffffff;" transform="translate(894.397058824 235.715)scale(0.16 -0.16)">
     <use xlink:href="#BitstreamVeraSans-Roman-37"/>
    </g>
   </g>
   <g id="text_70">
    <!-- 2 -->
    <g style="fill:#ffffff;" transform="translate(894.444558824 179.915)scale(0.16 -0.16)">
     <use xlink:href="#BitstreamVeraSans-Roman-32"/>
    </g>
   </g>
   <g id="text_71">
    <!-- 9 -->
    <g style="fill:#ffffff;" transform="translate(894.123308824 124.115)scale(0.16 -0.16)">
     <use xlink:href="#BitstreamVeraSans-Roman-39"/>
    </g>
   </g>
   <g id="text_72">
    <!-- 8 -->
    <g style="fill:#ffffff;" transform="translate(894.147058824 68.315)scale(0.16 -0.16)">
     <use xlink:href="#BitstreamVeraSans-Roman-38"/>
    </g>
   </g>
   <g id="text_73">
    <!-- 6 -->
    <g style="fill:#ffffff;" transform="translate(943.354852941 291.515)scale(0.16 -0.16)">
     <use xlink:href="#BitstreamVeraSans-Roman-36"/>
    </g>
   </g>
   <g id="text_74">
    <!-- 5 -->
    <g style="fill:#ffffff;" transform="translate(943.608602941 235.715)scale(0.16 -0.16)">
     <use xlink:href="#BitstreamVeraSans-Roman-35"/>
    </g>
   </g>
   <g id="text_75">
    <!-- 9 -->
    <g style="fill:#ffffff;" transform="translate(943.358602941 179.915)scale(0.16 -0.16)">
     <use xlink:href="#BitstreamVeraSans-Roman-39"/>
    </g>
   </g>
   <g id="text_76">
    <!-- 7 -->
    <g style="fill:#ffffff;" transform="translate(943.632352941 124.115)scale(0.16 -0.16)">
     <use xlink:href="#BitstreamVeraSans-Roman-37"/>
    </g>
   </g>
   <g id="text_77">
    <!-- 9 -->
    <g style="fill:#ffffff;" transform="translate(943.358602941 68.315)scale(0.16 -0.16)">
     <use xlink:href="#BitstreamVeraSans-Roman-39"/>
    </g>
   </g>
   <g id="text_78">
    <!-- Insignificant Measure (G&amp;O) -->
    <defs>
     <path d="
M54.8906 33.0156
L54.8906 0
L45.9062 0
L45.9062 32.7188
Q45.9062 40.4844 42.875 44.3281
Q39.8438 48.1875 33.7969 48.1875
Q26.5156 48.1875 22.3125 43.5469
Q18.1094 38.9219 18.1094 30.9062
L18.1094 0
L9.07812 0
L9.07812 54.6875
L18.1094 54.6875
L18.1094 46.1875
Q21.3438 51.125 25.7031 53.5625
Q30.0781 56 35.7969 56
Q45.2188 56 50.0469 50.1719
Q54.8906 44.3438 54.8906 33.0156" id="BitstreamVeraSans-Roman-6e"/>
     <path d="
M18.3125 70.2188
L18.3125 54.6875
L36.8125 54.6875
L36.8125 47.7031
L18.3125 47.7031
L18.3125 18.0156
Q18.3125 11.3281 20.1406 9.42188
Q21.9688 7.51562 27.5938 7.51562
L36.8125 7.51562
L36.8125 0
L27.5938 0
Q17.1875 0 13.2344 3.875
Q9.28125 7.76562 9.28125 18.0156
L9.28125 47.7031
L2.6875 47.7031
L2.6875 54.6875
L9.28125 54.6875
L9.28125 70.2188
z
" id="BitstreamVeraSans-Roman-74"/>
     <path d="
M37.1094 75.9844
L37.1094 68.5
L28.5156 68.5
Q23.6875 68.5 21.7969 66.5469
Q19.9219 64.5938 19.9219 59.5156
L19.9219 54.6875
L34.7188 54.6875
L34.7188 47.7031
L19.9219 47.7031
L19.9219 0
L10.8906 0
L10.8906 47.7031
L2.29688 47.7031
L2.29688 54.6875
L10.8906 54.6875
L10.8906 58.5
Q10.8906 67.625 15.1406 71.7969
Q19.3906 75.9844 28.6094 75.9844
z
" id="BitstreamVeraSans-Roman-66"/>
     <path d="
M48.7812 52.5938
L48.7812 44.1875
Q44.9688 46.2969 41.1406 47.3438
Q37.3125 48.3906 33.4062 48.3906
Q24.6562 48.3906 19.8125 42.8438
Q14.9844 37.3125 14.9844 27.2969
Q14.9844 17.2812 19.8125 11.7344
Q24.6562 6.20312 33.4062 6.20312
Q37.3125 6.20312 41.1406 7.25
Q44.9688 8.29688 48.7812 10.4062
L48.7812 2.09375
Q45.0156 0.34375 40.9844 -0.53125
Q36.9688 -1.42188 32.4219 -1.42188
Q20.0625 -1.42188 12.7812 6.34375
Q5.51562 14.1094 5.51562 27.2969
Q5.51562 40.6719 12.8594 48.3281
Q20.2188 56 33.0156 56
Q37.1562 56 41.1094 55.1406
Q45.0625 54.2969 48.7812 52.5938" id="BitstreamVeraSans-Roman-63"/>
     <path d="
M9.8125 72.9062
L19.6719 72.9062
L19.6719 0
L9.8125 0
z
" id="BitstreamVeraSans-Roman-49"/>
    </defs>
    <g transform="translate(722.789420956 31.0)scale(0.18 -0.18)">
     <use xlink:href="#BitstreamVeraSans-Roman-49"/>
     <use x="29.4921875" xlink:href="#BitstreamVeraSans-Roman-6e"/>
     <use x="92.87109375" xlink:href="#BitstreamVeraSans-Roman-73"/>
     <use x="144.970703125" xlink:href="#BitstreamVeraSans-Roman-69"/>
     <use x="172.75390625" xlink:href="#BitstreamVeraSans-Roman-67"/>
     <use x="236.23046875" xlink:href="#BitstreamVeraSans-Roman-6e"/>
     <use x="299.609375" xlink:href="#BitstreamVeraSans-Roman-69"/>
     <use x="327.392578125" xlink:href="#BitstreamVeraSans-Roman-66"/>
     <use x="362.59765625" xlink:href="#BitstreamVeraSans-Roman-69"/>
     <use x="390.380859375" xlink:href="#BitstreamVeraSans-Roman-63"/>
     <use x="445.361328125" xlink:href="#BitstreamVeraSans-Roman-61"/>
     <use x="506.640625" xlink:href="#BitstreamVeraSans-Roman-6e"/>
     <use x="570.01953125" xlink:href="#BitstreamVeraSans-Roman-74"/>
     <use x="609.228515625" xlink:href="#BitstreamVeraSans-Roman-20"/>
     <use x="641.015625" xlink:href="#BitstreamVeraSans-Roman-4d"/>
     <use x="727.294921875" xlink:href="#BitstreamVeraSans-Roman-65"/>
     <use x="788.818359375" xlink:href="#BitstreamVeraSans-Roman-61"/>
     <use x="850.09765625" xlink:href="#BitstreamVeraSans-Roman-73"/>
     <use x="902.197265625" xlink:href="#BitstreamVeraSans-Roman-75"/>
     <use x="965.576171875" xlink:href="#BitstreamVeraSans-Roman-72"/>
     <use x="1004.43945312" xlink:href="#BitstreamVeraSans-Roman-65"/>
     <use x="1065.96289062" xlink:href="#BitstreamVeraSans-Roman-20"/>
     <use x="1097.75" xlink:href="#BitstreamVeraSans-Roman-28"/>
     <use x="1136.76367188" xlink:href="#BitstreamVeraSans-Roman-47"/>
     <use x="1214.25390625" xlink:href="#BitstreamVeraSans-Roman-26"/>
     <use x="1292.23242188" xlink:href="#BitstreamVeraSans-Roman-4f"/>
     <use x="1370.94335938" xlink:href="#BitstreamVeraSans-Roman-29"/>
    </g>
   </g>
  </g>
 </g>
 <defs>
  <clipPath id="pa24eabdf34">
   <rect height="279.0" width="246.176470588" x="430.411764706" y="36.0"/>
  </clipPath>
  <clipPath id="pebfb4cacfe">
   <rect height="279.0" width="246.176470588" x="725.823529412" y="36.0"/>
  </clipPath>
  <clipPath id="p8ae71ff58c">
   <rect height="279.0" width="246.176470588" x="135.0" y="36.0"/>
  </clipPath>
 </defs>
</svg>
