<?xml version="1.0" encoding="utf-8" standalone="no"?>
<!DOCTYPE svg PUBLIC "-//W3C//DTD SVG 1.1//EN"
  "http://www.w3.org/Graphics/SVG/1.1/DTD/svg11.dtd">
<!-- Created with matplotlib (http://matplotlib.org/) -->
<svg height="360pt" version="1.1" viewBox="0 0 1152 360" width="1152pt" xmlns="http://www.w3.org/2000/svg" xmlns:xlink="http://www.w3.org/1999/xlink">
 <defs>
  <style type="text/css">
*{stroke-linecap:butt;stroke-linejoin:round;}
  </style>
 </defs>
 <g id="figure_1">
  <g id="patch_1">
   <path d="
M0 360
L1152 360
L1152 0
L0 0
z
" style="fill:#ffffff;"/>
  </g>
  <g id="axes_1">
   <g id="patch_2">
    <path d="
M144 315
L1036.8 315
L1036.8 36
L144 36
z
" style="fill:#ffffff;"/>
   </g>
   <g id="PolyCollection_1">
    <defs>
     <path d="
M30813.3 -324
L30813.3 -45
L30814.7 -45
L30816.1 -45
L30817.5 -45
L30818.8 -45
L30820.2 -45
L30821.6 -45
L30823 -45
L30824.4 -45
L30825.7 -45
L30827.1 -45
L30828.5 -45
L30829.9 -45
L30831.2 -45
L30832.6 -45
L30834 -45
L30835.4 -45
L30836.8 -45
L30838.1 -45
L30839.5 -45
L30840.9 -45
L30842.3 -45
L30843.6 -45
L30845 -45
L30846.4 -45
L30847.8 -45
L30849.2 -45
L30850.5 -45
L30851.9 -45
L30853.3 -45
L30854.7 -45
L30856 -45
L30857.4 -45
L30858.8 -45
L30860.2 -45
L30861.6 -45
L30862.9 -45
L30864.3 -45
L30865.7 -45
L30867.1 -45
L30868.4 -45
L30869.8 -45
L30871.2 -45
L30872.6 -45
L30874 -45
L30875.3 -45
L30876.7 -45
L30878.1 -45
L30879.5 -45
L30880.8 -45
L30882.2 -45
L30883.6 -45
L30885 -45
L30886.4 -45
L30887.7 -45
L30889.1 -45
L30890.5 -45
L30891.9 -45
L30893.2 -45
L30894.6 -45
L30896 -45
L30897.4 -45
L30898.8 -45
L30900.1 -45
L30901.5 -45
L30902.9 -45
L30904.3 -45
L30905.6 -45
L30907 -45
L30908.4 -45
L30909.8 -45
L30911.2 -45
L30912.5 -45
L30913.9 -45
L30915.3 -45
L30916.7 -45
L30918 -45
L30919.4 -45
L30920.8 -45
L30922.2 -45
L30923.6 -45
L30924.9 -45
L30926.3 -45
L30927.7 -45
L30929.1 -45
L30930.4 -45
L30931.8 -45
L30933.2 -45
L30934.6 -45
L30936 -45
L30937.3 -45
L30938.7 -45
L30940.1 -45
L30941.5 -45
L30942.8 -45
L30944.2 -45
L30945.6 -45
L30947 -45
L30948.4 -45
L30949.7 -45
L30951.1 -45
L30952.5 -45
L30953.9 -45
L30955.2 -45
L30956.6 -45
L30958 -45
L30959.4 -45
L30960.8 -45
L30962.1 -45
L30963.5 -45
L30964.9 -45
L30966.3 -45
L30967.6 -45
L30969 -45
L30970.4 -45
L30971.8 -45
L30973.2 -45
L30974.5 -45
L30975.9 -45
L30977.3 -45
L30978.7 -45
L30980 -45
L30981.4 -45
L30982.8 -45
L30984.2 -45
L30985.6 -45
L30986.9 -45
L30988.3 -45
L30989.7 -45
L30991.1 -45
L30992.4 -45
L30993.8 -45
L30995.2 -45
L30996.6 -45
L30998 -45
L30999.3 -45
L31000.7 -45
L31002.1 -45
L31003.5 -45
L31004.8 -45
L31006.2 -45
L31007.6 -45
L31009 -45
L31010.4 -45
L31011.7 -45
L31013.1 -45
L31014.5 -45
L31015.9 -45
L31017.2 -45
L31018.6 -45
L31020 -45
L31021.4 -45
L31022.8 -45
L31024.1 -45
L31025.5 -45
L31026.9 -45
L31028.3 -45
L31029.6 -45
L31031 -45
L31032.4 -45
L31033.8 -45
L31035.2 -45
L31036.5 -45
L31037.9 -45
L31039.3 -45
L31040.7 -45
L31042 -45
L31043.4 -45
L31044.8 -45
L31046.2 -45
L31047.6 -45
L31048.9 -45
L31050.3 -45
L31051.7 -45
L31053.1 -45
L31054.4 -45
L31055.8 -45
L31057.2 -45
L31058.6 -45
L31060 -45
L31061.3 -45
L31062.7 -45
L31064.1 -45
L31065.5 -45
L31066.8 -45
L31068.2 -45
L31069.6 -45
L31071 -45
L31072.4 -45
L31073.7 -45
L31075.1 -45
L31076.5 -45
L31077.9 -45
L31079.2 -45
L31080.6 -45
L31082 -45
L31083.4 -45
L31084.8 -45
L31086.1 -45
L31087.5 -45
L31088.9 -45
L31090.3 -45
L31091.6 -45
L31093 -45
L31094.4 -45
L31095.8 -45
L31097.2 -45
L31098.5 -45
L31099.9 -45
L31101.3 -45
L31102.7 -45
L31104 -45
L31105.4 -45
L31106.8 -45
L31108.2 -45
L31109.6 -45
L31110.9 -45
L31112.3 -45
L31113.7 -45
L31115.1 -45
L31116.4 -45
L31117.8 -45
L31119.2 -45
L31120.6 -45
L31122 -45
L31123.3 -45
L31124.7 -45
L31126.1 -45
L31127.5 -45
L31128.8 -45
L31130.2 -45
L31131.6 -45
L31133 -45
L31134.4 -45
L31135.7 -45
L31137.1 -45
L31138.5 -45
L31139.9 -45
L31141.2 -45
L31142.6 -45
L31144 -45
L31145.4 -45
L31146.8 -45
L31148.1 -45
L31149.5 -45
L31150.9 -45
L31152.3 -45
L31153.6 -45
L31155 -45
L31156.4 -45
L31157.8 -45
L31159.2 -45
L31160.5 -45
L31161.9 -45
L31163.3 -45
L31164.7 -45
L31166 -45
L31167.4 -45
L31168.8 -45
L31170.2 -45
L31171.6 -45
L31172.9 -45
L31174.3 -45
L31175.7 -45
L31177.1 -45
L31178.4 -45
L31179.8 -45
L31181.2 -45
L31182.6 -45
L31184 -45
L31185.3 -45
L31186.7 -45
L31188.1 -45
L31189.5 -45
L31190.8 -45
L31192.2 -45
L31193.6 -45
L31195 -45
L31196.4 -45
L31197.7 -45
L31199.1 -45
L31200.5 -45
L31201.9 -45
L31203.2 -45
L31204.6 -45
L31206 -45
L31207.4 -45
L31208.8 -45
L31210.1 -45
L31211.5 -45
L31212.9 -45
L31214.3 -45
L31215.6 -45
L31217 -45
L31218.4 -45
L31219.8 -45
L31221.2 -45
L31222.5 -45
L31223.9 -45
L31225.3 -45
L31226.7 -45
L31228 -45
L31229.4 -45
L31230.8 -45
L31232.2 -45
L31233.6 -45
L31234.9 -45
L31236.3 -45
L31237.7 -45
L31239.1 -45
L31240.4 -45
L31241.8 -45
L31243.2 -45
L31244.6 -45
L31246 -45
L31247.3 -45
L31248.7 -45
L31250.1 -45
L31251.5 -45
L31252.8 -45
L31254.2 -45
L31255.6 -45
L31257 -45
L31258.4 -45
L31259.7 -45
L31261.1 -45
L31262.5 -45
L31263.9 -45
L31265.2 -45
L31266.6 -45
L31268 -45
L31269.4 -45
L31270.8 -45
L31272.1 -45
L31273.5 -45
L31274.9 -45
L31276.3 -45
L31277.6 -45
L31279 -45
L31280.4 -45
L31281.8 -45
L31283.2 -45
L31284.5 -45
L31285.9 -45
L31287.3 -45
L31288.7 -45
L31290 -45
L31291.4 -45
L31292.8 -45
L31294.2 -45
L31295.6 -45
L31296.9 -45
L31298.3 -45
L31299.7 -45
L31301.1 -45
L31302.4 -45
L31303.8 -45
L31305.2 -45
L31306.6 -45
L31308 -45
L31309.3 -45
L31310.7 -45
L31312.1 -45
L31313.5 -45
L31314.8 -45
L31316.2 -45
L31317.6 -45
L31319 -45
L31320.4 -45
L31321.7 -45
L31323.1 -45
L31324.5 -45
L31325.9 -45
L31327.2 -45
L31328.6 -45
L31330 -45
L31331.4 -45
L31332.8 -45
L31334.1 -45
L31335.5 -45
L31336.9 -45
L31338.3 -45
L31339.6 -45
L31341 -45
L31342.4 -45
L31343.8 -45
L31345.2 -45
L31346.5 -45
L31347.9 -45
L31349.3 -45
L31350.7 -45
L31352 -45
L31353.4 -45
L31354.8 -45
L31356.2 -45
L31357.6 -45
L31358.9 -45
L31360.3 -45
L31361.7 -45
L31363.1 -45
L31364.4 -45
L31365.8 -45
L31367.2 -45
L31368.6 -45
L31370 -45
L31371.3 -45
L31372.7 -45
L31374.1 -45
L31375.5 -45
L31376.8 -45
L31378.2 -45
L31379.6 -45
L31381 -45
L31382.4 -45
L31383.7 -45
L31385.1 -45
L31386.5 -45
L31387.9 -45
L31389.2 -45
L31390.6 -45
L31392 -45
L31393.4 -45
L31394.8 -45
L31396.1 -45
L31397.5 -45
L31398.9 -45
L31400.3 -45
L31401.6 -45
L31403 -45
L31404.4 -45
L31405.8 -45
L31407.2 -45
L31408.5 -45
L31409.9 -45
L31411.3 -45
L31412.7 -45
L31414 -45
L31415.4 -45
L31416.8 -45
L31418.2 -45
L31419.6 -45
L31420.9 -45
L31422.3 -45
L31423.7 -45
L31425.1 -45
L31426.4 -45
L31427.8 -45
L31429.2 -45
L31430.6 -45
L31432 -45
L31433.3 -45
L31434.7 -45
L31436.1 -45
L31437.5 -45
L31438.8 -45
L31440.2 -45
L31441.6 -45
L31443 -45
L31444.4 -45
L31445.7 -45
L31447.1 -45
L31448.5 -45
L31449.9 -45
L31451.2 -45
L31452.6 -45
L31454 -45
L31455.4 -45
L31456.8 -45
L31458.1 -45
L31459.5 -45
L31460.9 -45
L31462.3 -45
L31463.6 -45
L31465 -45
L31466.4 -45
L31467.8 -45
L31469.2 -45
L31470.5 -45
L31471.9 -45
L31473.3 -45
L31474.7 -45
L31476 -45
L31477.4 -45
L31478.8 -45
L31480.2 -45
L31481.6 -45
L31482.9 -45
L31484.3 -45
L31485.7 -45
L31487.1 -45
L31488.4 -45
L31489.8 -45
L31491.2 -45
L31492.6 -45
L31494 -45
L31495.3 -45
L31496.7 -45
L31498.1 -45
L31499.5 -45
L31500.8 -45
L31502.2 -45
L31503.6 -45
L31505 -45
L31506.4 -45
L31507.7 -45
L31509.1 -45
L31510.5 -45
L31511.9 -45
L31513.2 -45
L31514.6 -45
L31516 -45
L31517.4 -45
L31518.8 -45
L31520.1 -45
L31521.5 -45
L31522.9 -45
L31524.3 -45
L31525.6 -45
L31527 -45
L31528.4 -45
L31529.8 -45
L31531.2 -45
L31532.5 -45
L31533.9 -45
L31535.3 -45
L31536.7 -45
L31538 -45
L31539.4 -45
L31540.8 -45
L31542.2 -45
L31543.6 -45
L31544.9 -45
L31546.3 -45
L31547.7 -45
L31549.1 -45
L31550.4 -45
L31551.8 -45
L31553.2 -45
L31554.6 -45
L31556 -45
L31557.3 -45
L31557.3 -45
L31558.7 -45
L31561.5 -45
L31562.8 -45
L31564.2 -45
L31565.6 -45
L31567 -45
L31568.4 -45
L31569.7 -45
L31571.1 -45
L31572.5 -45
L31573.9 -45
L31575.2 -45
L31576.6 -45
L31578 -45
L31579.4 -45
L31580.8 -45
L31582.1 -45
L31583.5 -45
L31584.9 -45
L31586.3 -45
L31587.6 -45
L31589 -45
L31590.4 -45
L31591.8 -45
L31593.2 -45
L31594.5 -45
L31595.9 -45
L31597.3 -45
L31598.7 -45
L31600 -45
L31601.4 -45
L31602.8 -45
L31604.2 -45
L31605.6 -45
L31606.9 -45
L31608.3 -45
L31609.7 -45
L31611.1 -45
L31612.4 -45
L31613.8 -45
L31615.2 -45
L31616.6 -45
L31618 -45
L31619.3 -45
L31620.7 -45
L31622.1 -45
L31623.5 -45
L31624.8 -45
L31626.2 -45
L31627.6 -45
L31629 -45
L31630.4 -45
L31631.7 -45
L31633.1 -45
L31634.5 -45
L31635.9 -45
L31637.2 -45
L31638.6 -45
L31640 -45
L31641.4 -45
L31642.8 -45
L31644.1 -45
L31645.5 -45
L31646.9 -45
L31648.3 -45
L31649.6 -45
L31651 -45
L31652.4 -45
L31653.8 -45
L31655.2 -45
L31656.5 -45
L31657.9 -45
L31659.3 -45
L31660.7 -45
L31662 -45
L31663.4 -45
L31664.8 -45
L31666.2 -45
L31667.6 -45
L31668.9 -45
L31670.3 -45
L31671.7 -45
L31673.1 -45
L31674.4 -45
L31675.8 -45
L31677.2 -45
L31678.6 -45
L31680 -45
L31681.3 -45
L31682.7 -45
L31684.1 -45
L31685.5 -45
L31686.8 -45
L31688.2 -45
L31689.6 -45
L31691 -45
L31692.4 -45
L31693.7 -45
L31695.1 -45
L31696.5 -45
L31697.9 -45
L31699.2 -45
L31700.6 -45
L31702 -45
L31703.4 -45
L31704.8 -45
L31706.1 -45
L31707.5 -45
L31708.9 -45
L31710.3 -45
L31711.6 -45
L31713 -45
L31714.4 -45
L31715.8 -45
L31717.2 -45
L31718.5 -45
L31719.9 -45
L31721.3 -45
L31722.7 -45
L31724 -45
L31725.4 -45
L31726.8 -45
L31728.2 -45
L31729.6 -45
L31730.9 -45
L31732.3 -45
L31733.7 -45
L31735.1 -45
L31736.4 -45
L31737.8 -45
L31739.2 -45
L31740.6 -45
L31742 -45
L31743.3 -45
L31744.7 -45
L31746.1 -45
L31747.5 -45
L31748.8 -45
L31750.2 -45
L31751.6 -45
L31753 -45
L31754.4 -45
L31755.7 -45
L31757.1 -45
L31758.5 -45
L31759.9 -45
L31761.2 -45
L31762.6 -45
L31764 -45
L31765.4 -45
L31766.8 -45
L31768.1 -45
L31769.5 -45
L31770.9 -45
L31772.3 -45
L31773.6 -45
L31775 -45
L31776.4 -45
L31777.8 -45
L31779.2 -45
L31780.5 -45
L31781.9 -45
L31783.3 -45
L31784.7 -45
L31786 -45
L31787.4 -45
L31788.8 -45
L31790.2 -45
L31791.6 -45
L31792.9 -45
L31794.3 -45
L31795.7 -45
L31797.1 -45
L31798.4 -45
L31799.8 -45
L31801.2 -45
L31802.6 -45
L31804 -45
L31805.3 -45
L31806.7 -45
L31808.1 -45
L31809.5 -45
L31810.8 -45
L31812.2 -45
L31813.6 -45
L31815 -45
L31816.4 -45
L31817.7 -45
L31819.1 -45
L31820.5 -45
L31821.9 -45
L31823.2 -45
L31824.6 -45
L31826 -45
L31827.4 -45
L31828.8 -45
L31830.1 -45
L31831.5 -45
L31832.9 -45
L31834.3 -45
L31835.6 -45
L31837 -45
L31838.4 -45
L31839.8 -45
L31841.2 -45
L31842.5 -45
L31843.9 -45
L31845.3 -45
L31846.7 -45
L31848 -45
L31849.4 -45
L31850.8 -45
L31852.2 -45
L31853.6 -45
L31854.9 -45
L31856.3 -45
L31857.7 -45
L31859.1 -45
L31860.4 -45
L31861.8 -45
L31863.2 -45
L31864.6 -45
L31866 -45
L31867.3 -45
L31868.7 -45
L31870.1 -45
L31871.5 -45
L31872.8 -45
L31874.2 -45
L31875.6 -45
L31877 -45
L31878.4 -45
L31879.7 -45
L31881.1 -45
L31882.5 -45
L31883.9 -45
L31885.2 -45
L31886.6 -45
L31888 -45
L31889.4 -45
L31890.8 -45
L31892.1 -45
L31893.5 -45
L31894.9 -45
L31896.3 -45
L31897.6 -45
L31899 -45
L31900.4 -45
L31901.8 -45
L31903.2 -45
L31904.5 -45
L31905.9 -45
L31907.3 -45
L31908.7 -45
L31910 -45
L31911.4 -45
L31912.8 -45
L31914.2 -45
L31915.6 -45
L31916.9 -45
L31918.3 -45
L31919.7 -45
L31921.1 -45
L31922.4 -45
L31923.8 -45
L31925.2 -45
L31926.6 -45
L31928 -45
L31929.3 -45
L31930.7 -45
L31932.1 -45
L31933.5 -45
L31934.8 -45
L31936.2 -45
L31937.6 -45
L31939 -45
L31940.4 -45
L31941.7 -45
L31943.1 -45
L31944.5 -45
L31945.9 -45
L31947.2 -45
L31948.6 -45
L31950 -45
L31951.4 -45
L31952.8 -45
L31954.1 -45
L31955.5 -45
L31956.9 -45
L31958.3 -45
L31959.6 -45
L31961 -45
L31962.4 -45
L31963.8 -45
L31965.2 -45
L31966.5 -45
L31967.9 -45
L31969.3 -45
L31970.7 -45
L31972 -45
L31973.4 -45
L31974.8 -45
L31976.2 -45
L31977.6 -45
L31978.9 -45
L31980.3 -45
L31981.7 -45
L31983.1 -45
L31984.4 -45
L31985.8 -45
L31987.2 -45
L31988.6 -45
L31990 -45
L31991.3 -45
L31992.7 -45
L31994.1 -45
L31995.5 -45
L31996.8 -45
L31998.2 -45
L31999.6 -45
L32001 -45
L32002.4 -45
L32003.7 -45
L32005.1 -45
L32006.5 -45
L32007.9 -45
L32009.2 -45
L32010.6 -45
L32012 -45
L32013.4 -45
L32014.8 -45
L32016.1 -45
L32017.5 -45
L32018.9 -45
L32020.3 -45
L32021.6 -45
L32023 -45
L32024.4 -45
L32025.8 -45
L32027.2 -45
L32028.5 -45
L32029.9 -45
L32031.3 -45
L32032.7 -45
L32034 -45
L32035.4 -45
L32036.8 -45
L32038.2 -45
L32039.6 -45
L32040.9 -45
L32042.3 -45
L32043.7 -45
L32045.1 -45
L32046.4 -45
L32047.8 -45
L32049.2 -45
L32050.6 -45
L32052 -45
L32053.3 -45
L32054.7 -45
L32056.1 -45
L32057.5 -45
L32058.8 -45
L32060.2 -45
L32061.6 -45
L32063 -45
L32064.4 -45
L32065.7 -45
L32067.1 -45
L32068.5 -45
L32069.9 -45
L32071.2 -45
L32072.6 -45
L32074 -45
L32075.4 -45
L32076.8 -45
L32078.1 -45
L32079.5 -45
L32080.9 -45
L32082.3 -45
L32083.6 -45
L32085 -45
L32086.4 -45
L32087.8 -45
L32089.2 -45
L32090.5 -45
L32091.9 -45
L32093.3 -45
L32094.7 -45
L32096 -45
L32097.4 -45
L32098.8 -45
L32100.2 -45
L32101.6 -45
L32102.9 -45
L32104.3 -45
L32105.7 -45
L32107.1 -45
L32108.4 -45
L32109.8 -45
L32111.2 -45
L32112.6 -45
L32114 -45
L32115.3 -45
L32116.7 -45
L32118.1 -45
L32119.5 -45
L32120.8 -45
L32122.2 -45
L32123.6 -45
L32125 -45
L32126.4 -45
L32127.7 -45
L32129.1 -45
L32130.5 -45
L32131.9 -45
L32133.2 -45
L32134.6 -45
L32136 -45
L32137.4 -45
L32138.8 -45
L32140.1 -45
L32141.5 -45
L32142.9 -45
L32144.3 -45
L32145.6 -45
L32147 -45
L32148.4 -45
L32149.8 -45
L32151.2 -45
L32152.5 -45
L32153.9 -45
L32155.3 -45
L32156.7 -45
L32158 -45
L32159.4 -45
L32160.8 -45
L32162.2 -45
L32163.6 -45
L32164.9 -45
L32166.3 -45
L32167.7 -45
L32169.1 -45
L32170.4 -45
L32171.8 -45
L32173.2 -45
L32174.6 -45
L32176 -45
L32177.3 -45
L32178.7 -45
L32180.1 -45
L32181.5 -45
L32182.8 -45
L32184.2 -45
L32185.6 -45
L32187 -45
L32188.4 -45
L32189.7 -45
L32191.1 -45
L32192.5 -45
L32193.9 -45
L32195.2 -45
L32196.6 -45
L32198 -45
L32199.4 -45
L32200.8 -45
L32202.1 -45
L32203.5 -45
L32204.9 -45
L32206.3 -45
L32207.6 -45
L32209 -45
L32210.4 -45
L32211.8 -45
L32213.2 -45
L32214.5 -45
L32215.9 -45
L32217.3 -45
L32218.7 -45
L32220 -45
L32221.4 -45
L32222.8 -45
L32224.2 -45
L32225.6 -45
L32226.9 -45
L32228.3 -45
L32229.7 -45
L32231.1 -45
L32232.4 -45
L32233.8 -45
L32235.2 -45
L32236.6 -45
L32238 -45
L32239.3 -45
L32240.7 -45
L32242.1 -45
L32243.5 -45
L32244.8 -45
L32246.2 -45
L32247.6 -45
L32249 -45
L32250.4 -45
L32251.7 -45
L32253.1 -45
L32254.5 -45
L32255.9 -45
L32257.2 -45
L32258.6 -45
L32260 -45
L32261.4 -45
L32262.8 -45
L32264.1 -45
L32265.5 -45
L32266.9 -45
L32268.3 -45
L32269.6 -45
L32271 -45
L32272.4 -45
L32273.8 -45
L32275.2 -45
L32276.5 -45
L32277.9 -45
L32279.3 -45
L32280.7 -45
L32282 -45
L32283.4 -45
L32284.8 -45
L32286.2 -45
L32287.6 -45
L32288.9 -45
L32290.3 -45
L32291.7 -45
L32293.1 -45
L32294.4 -45
L32295.8 -45
L32297.2 -45
L32298.6 -45
L32300 -45
L32301.3 -45
L32302.7 -45
L32304.1 -45
L32305.5 -45
L32306.8 -45
L32308.2 -45
L32309.6 -45
L32311 -45
L32312.4 -45
L32313.7 -45
L32315.1 -45
L32316.5 -45
L32317.9 -45
L32319.2 -45
L32320.6 -45
L32322 -45
L32323.4 -45
L32324.8 -45
L32326.1 -45
L32327.5 -45
L32328.9 -45
L32330.3 -45
L32331.6 -45
L32333 -45
L32334.4 -45
L32335.8 -45
L32337.2 -45
L32338.5 -45
L32339.9 -45
L32341.3 -45
L32342.7 -45
L32344 -45
L32345.4 -45
L32346.8 -45
L32348.2 -45
L32349.6 -45
L32350.9 -45
L32352.3 -45
L32353.7 -45
L32355.1 -45
L32356.4 -45
L32357.8 -45
L32359.2 -45
L32360.6 -45
L32362 -45
L32363.3 -45
L32364.7 -45
L32366.1 -45
L32367.5 -45
L32368.8 -45
L32370.2 -45
L32371.6 -45
L32373 -45
L32374.4 -45
L32375.7 -45
L32377.1 -45
L32378.5 -45
L32379.9 -45
L32381.2 -45
L32382.6 -45
L32384 -45
L32385.4 -45
L32386.8 -45
L32388.1 -45
L32389.5 -45
L32390.9 -45
L32392.3 -45
L32393.6 -45
L32395 -45
L32396.4 -45
L32397.8 -45
L32399.2 -45
L32400.5 -45
L32401.9 -45
L32403.3 -45
L32404.7 -45
L32406 -45
L32407.4 -45
L32408.8 -45
L32410.2 -45
L32411.6 -45
L32412.9 -45
L32414.3 -45
L32415.7 -45
L32417.1 -45
L32418.4 -45
L32419.8 -45
L32421.2 -45
L32422.6 -45
L32424 -45
L32425.3 -45
L32426.7 -45
L32428.1 -45
L32429.5 -45
L32430.8 -45
L32432.2 -45
L32433.6 -45
L32435 -45
L32436.4 -45
L32437.7 -45
L32439.1 -45
L32440.5 -45
L32441.9 -45
L32443.2 -45
L32444.6 -45
L32446 -45
L32447.4 -45
L32448.8 -45
L32450.1 -45
L32451.5 -45
L32452.9 -45
L32454.3 -45
L32455.6 -45
L32457 -45
L32458.4 -45
L32459.8 -45
L32461.2 -45
L32462.5 -45
L32463.9 -45
L32465.3 -45
L32466.7 -45
L32468 -45
L32469.4 -45
L32470.8 -45
L32472.2 -45
L32473.6 -45
L32474.9 -45
L32476.3 -45
L32477.7 -45
L32479.1 -45
L32480.4 -45
L32481.8 -45
L32483.2 -45
L32484.6 -45
L32486 -45
L32487.3 -45
L32488.7 -45
L32490.1 -45
L32491.5 -45
L32492.8 -45
L32494.2 -45
L32495.6 -45
L32497 -45
L32498.4 -45
L32499.7 -45
L32501.1 -45
L32502.5 -45
L32503.9 -45
L32505.2 -45
L32506.6 -45
L32508 -45
L32509.4 -45
L32510.8 -45
L32512.1 -45
L32513.5 -45
L32514.9 -45
L32516.3 -45
L32517.6 -45
L32519 -45
L32520.4 -45
L32521.8 -45
L32523.2 -45
L32524.5 -45
L32525.9 -45
L32527.3 -45
L32528.7 -45
L32530 -45
L32531.4 -45
L32532.8 -45
L32534.2 -45
L32535.6 -45
L32536.9 -45
L32538.3 -45
L32539.7 -45
L32541.1 -45
L32542.4 -45
L32543.8 -45
L32545.2 -45
L32546.6 -45
L32548 -45
L32549.3 -45
L32550.7 -45
L32552.1 -45
L32553.5 -45
L32554.8 -45
L32556.2 -45
L32557.6 -45
L32559 -45
L32560.4 -45
L32561.7 -45
L32563.1 -45
L32564.5 -45
L32565.9 -45
L32567.2 -45
L32568.6 -45
L32570 -45
L32571.4 -45
L32572.8 -45
L32574.1 -45
L32575.5 -45
L32576.9 -45
L32578.3 -45
L32579.6 -45
L32581 -45
L32582.4 -45
L32583.8 -45
L32585.2 -45
L32586.5 -45
L32587.9 -45
L32589.3 -45
L32590.7 -45
L32592 -45
L32593.4 -45
L32594.8 -45
L32596.2 -45
L32597.6 -45
L32598.9 -45
L32600.3 -45
L32601.7 -45
L32603.1 -45
L32604.4 -45
L32605.8 -45
L32607.2 -45
L32608.6 -45
L32610 -45
L32611.3 -45
L32612.7 -45
L32614.1 -45
L32615.5 -45
L32616.8 -45
L32618.2 -45
L32619.6 -45
L32621 -45
L32622.4 -45
L32623.7 -45
L32625.1 -45
L32626.5 -45
L32627.9 -45
L32629.2 -45
L32630.6 -45
L32632 -45
L32633.4 -45
L32634.8 -45
L32636.1 -45
L32637.5 -45
L32638.9 -45
L32640.3 -45
L32641.6 -45
L32643 -45
L32644.4 -45
L32645.8 -45
L32647.2 -45
L32648.5 -45
L32649.9 -45
L32651.3 -45
L32652.7 -45
L32654 -45
L32655.4 -45
L32656.8 -45
L32658.2 -45
L32659.6 -45
L32660.9 -45
L32662.3 -45
L32663.7 -45
L32665.1 -45
L32666.4 -45
L32667.8 -45
L32669.2 -45
L32670.6 -45
L32672 -45
L32673.3 -45
L32674.7 -45
L32676.1 -45
L32677.5 -45
L32678.8 -45
L32680.2 -45
L32681.6 -45
L32683 -45
L32684.4 -45
L32685.7 -45
L32687.1 -45
L32688.5 -45
L32689.9 -45
L32691.2 -45
L32692.6 -45
L32694 -45
L32695.4 -45
L32696.8 -45
L32698.1 -45
L32699.5 -45
L32700.9 -45
L32702.3 -45
L32703.6 -45
L32705 -45
L32706.4 -45
L32707.8 -45
L32709.2 -45
L32710.5 -45
L32711.9 -45
L32713.3 -45
L32714.7 -45
L32716 -45
L32717.4 -45
L32718.8 -45
L32720.2 -45
L32721.6 -45
L32722.9 -45
L32724.3 -45
L32725.7 -45
L32727.1 -45
L32728.4 -45
L32729.8 -45
L32731.2 -45
L32732.6 -45
L32734 -45
L32735.3 -45
L32736.7 -45
L32738.1 -45
L32739.5 -45
L32740.8 -45
L32742.2 -45
L32743.6 -45
L32745 -45
L32746.4 -45
L32747.7 -45
L32749.1 -45
L32750.5 -45
L32751.9 -45
L32753.2 -45
L32754.6 -45
L32756 -45
L32757.4 -45
L32758.8 -45
L32760.1 -45
L32761.5 -45
L32762.9 -45
L32764.3 -45
L32765.6 -45
L32767 -45
L32768.4 -45
L32769.8 -45
L32771.2 -45
L32772.5 -45
L32773.9 -45
L32775.3 -45
L32776.7 -45
L32778 -45
L32779.4 -45
L32780.8 -45
L32782.2 -45
L32783.6 -45
L32784.9 -45
L32786.3 -45
L32787.7 -45
L32789.1 -45
L32790.4 -45
L32791.8 -45
L32793.2 -45
L32794.6 -45
L32796 -45
L32797.3 -45
L32798.7 -45
L32800.1 -45
L32801.5 -45
L32802.8 -45
L32804.2 -45
L32805.6 -45
L32807 -45
L32808.4 -45
L32809.7 -45
L32811.1 -45
L32812.5 -45
L32813.9 -45
L32815.2 -45
L32816.6 -45
L32818 -45
L32819.4 -45
L32820.8 -45
L32822.1 -45
L32823.5 -45
L32824.9 -45
L32826.3 -45
L32827.6 -45
L32829 -45
L32830.4 -45
L32831.8 -45
L32833.2 -45
L32834.5 -45
L32835.9 -45
L32837.3 -45
L32838.7 -45
L32840 -45
L32841.4 -45
L32842.8 -45
L32844.2 -45
L32845.6 -45
L32846.9 -45
L32848.3 -45
L32849.7 -45
L32851.1 -45
L32852.4 -45
L32853.8 -45
L32855.2 -45
L32856.6 -45
L32858 -45
L32859.3 -45
L32860.7 -45
L32862.1 -45
L32863.5 -45
L32864.8 -45
L32866.2 -45
L32867.6 -45
L32869 -45
L32870.4 -45
L32871.7 -45
L32873.1 -45
L32874.5 -45
L32875.9 -45
L32877.2 -45
L32878.6 -45
L32880 -45
L32881.4 -45
L32882.8 -45
L32884.1 -45
L32885.5 -45
L32886.9 -45
L32888.3 -45
L32889.6 -45
L32891 -45
L32892.4 -45
L32893.8 -45
L32895.2 -45
L32896.5 -45
L32897.9 -45
L32899.3 -45
L32900.7 -45
L32902 -45
L32903.4 -45
L32904.8 -45
L32906.2 -45
L32907.6 -45
L32908.9 -45
L32910.3 -45
L32911.7 -45
L32913.1 -45
L32914.4 -45
L32915.8 -45
L32917.2 -45
L32918.6 -45
L32920 -45
L32921.3 -45
L32922.7 -45
L32924.1 -45
L32925.5 -45
L32926.8 -45
L32928.2 -45
L32929.6 -45
L32931 -45
L32932.4 -45
L32933.7 -45
L32935.1 -45
L32936.5 -45
L32937.9 -45
L32939.2 -45
L32940.6 -45
L32942 -45
L32943.4 -45
L32944.8 -45
L32946.1 -45
L32947.5 -45
L32948.9 -45
L32950.3 -45
L32951.6 -45
L32953 -45
L32954.4 -45
L32955.8 -45
L32957.2 -45
L32958.5 -45
L32959.9 -45
L32961.3 -45
L32962.7 -45
L32964 -45
L32965.4 -45
L32966.8 -45
L32968.2 -45
L32969.6 -45
L32970.9 -45
L32972.3 -45
L32973.7 -45
L32975.1 -45
L32976.4 -45
L32977.8 -45
L32979.2 -45
L32980.6 -45
L32982 -45
L32983.3 -45
L32984.7 -45
L32986.1 -45
L32987.5 -45
L32988.8 -45
L32990.2 -45
L32991.6 -45
L32993 -45
L32994.4 -45
L32995.7 -45
L32997.1 -45
L32998.5 -45
L32999.9 -45
L33001.2 -45
L33002.6 -45
L33004 -45
L33005.4 -45
L33006.8 -45
L33008.1 -45
L33009.5 -45
L33010.9 -45
L33012.3 -45
L33013.6 -45
L33015 -45
L33016.4 -45
L33017.8 -45
L33019.2 -45
L33020.5 -45
L33021.9 -45
L33023.3 -45
L33024.7 -45
L33026 -45
L33027.4 -45
L33028.8 -45
L33030.2 -45
L33031.6 -45
L33032.9 -45
L33034.3 -45
L33035.7 -45
L33037.1 -45
L33038.4 -45
L33039.8 -45
L33041.2 -45
L33042.6 -45
L33044 -45
L33045.3 -45
L33046.7 -45
L33048.1 -45
L33049.5 -45
L33050.8 -45
L33052.2 -45
L33053.6 -45
L33055 -45
L33056.4 -45
L33057.7 -45
L33059.1 -45
L33060.5 -45
L33061.9 -45
L33063.2 -45
L33064.6 -45
L33066 -45
L33067.4 -45
L33068.8 -45
L33070.1 -45
L33071.5 -45
L33072.9 -45
L33074.3 -45
L33075.6 -45
L33077 -45
L33078.4 -45
L33079.8 -45
L33081.2 -45
L33082.5 -45
L33083.9 -45
L33085.3 -45
L33086.7 -45
L33088 -45
L33089.4 -45
L33090.8 -45
L33092.2 -45
L33093.6 -45
L33094.9 -45
L33096.3 -45
L33097.7 -45
L33099.1 -45
L33100.4 -45
L33101.8 -45
L33103.2 -45
L33104.6 -45
L33106 -45
L33107.3 -45
L33108.7 -45
L33110.1 -45
L33111.5 -45
L33112.8 -45
L33114.2 -45
L33115.6 -45
L33117 -45
L33118.4 -45
L33119.7 -45
L33121.1 -45
L33122.5 -45
L33123.9 -45
L33125.2 -45
L33126.6 -45
L33128 -45
L33129.4 -45
L33130.8 -45
L33132.1 -45
L33133.5 -45
L33134.9 -45
L33136.3 -45
L33137.6 -45
L33139 -45
L33140.4 -45
L33141.8 -45
L33143.2 -45
L33144.5 -45
L33145.9 -45
L33147.3 -45
L33148.7 -45
L33150 -45
L33151.4 -45
L33152.8 -45
L33154.2 -45
L33155.6 -45
L33156.9 -45
L33158.3 -45
L33159.7 -45
L33161.1 -45
L33162.4 -45
L33163.8 -45
L33165.2 -45
L33166.6 -45
L33168 -45
L33169.3 -45
L33170.7 -45
L33172.1 -45
L33173.5 -45
L33174.8 -45
L33176.2 -45
L33177.6 -45
L33179 -45
L33180.4 -45
L33181.7 -45
L33183.1 -45
L33184.5 -45
L33185.9 -45
L33187.2 -45
L33188.6 -45
L33190 -45
L33191.4 -45
L33192.8 -45
L33194.1 -45
L33195.5 -45
L33196.9 -45
L33198.3 -45
L33199.6 -45
L33201 -45
L33202.4 -45
L33203.8 -45
L33205.2 -45
L33206.5 -45
L33207.9 -45
L33209.3 -45
L33210.7 -45
L33212 -45
L33213.4 -45
L33214.8 -45
L33216.2 -45
L33217.6 -45
L33218.9 -45
L33220.3 -45
L33221.7 -45
L33223.1 -45
L33224.4 -45
L33225.8 -45
L33227.2 -45
L33228.6 -45
L33230 -45
L33231.3 -45
L33232.7 -45
L33234.1 -45
L33235.5 -45
L33236.8 -45
L33238.2 -45
L33239.6 -45
L33241 -45
L33242.4 -45
L33243.7 -45
L33245.1 -45
L33246.5 -45
L33247.9 -45
L33249.2 -45
L33250.6 -45
L33252 -45
L33253.4 -45
L33254.8 -45
L33256.1 -45
L33257.5 -45
L33258.9 -45
L33260.3 -45
L33261.6 -45
L33263 -45
L33264.4 -45
L33265.8 -45
L33267.2 -45
L33268.5 -45
L33269.9 -45
L33271.3 -45
L33272.7 -45
L33274 -45
L33275.4 -45
L33276.8 -45
L33278.2 -45
L33279.6 -45
L33280.9 -45
L33282.3 -45
L33283.7 -45
L33285.1 -45
L33286.4 -45
L33287.8 -45
L33289.2 -45
L33290.6 -45
L33292 -45
L33293.3 -45
L33294.7 -45
L33296.1 -45
L33297.5 -45
L33298.8 -45
L33300.2 -45
L33301.6 -45
L33303 -45
L33304.4 -45
L33305.7 -45
L33307.1 -45
L33308.5 -45
L33309.9 -45
L33311.2 -45
L33312.6 -45
L33314 -45
L33315.4 -45
L33316.8 -45
L33318.1 -45
L33319.5 -45
L33320.9 -45
L33322.3 -45
L33323.6 -45
L33325 -45
L33326.4 -45
L33327.8 -45
L33329.2 -45
L33330.5 -45
L33331.9 -45
L33333.3 -45
L33334.7 -45
L33336 -45
L33337.4 -45
L33338.8 -45
L33340.2 -45
L33341.6 -45
L33342.9 -45
L33344.3 -45
L33345.7 -45
L33347.1 -45
L33348.4 -45
L33349.8 -45
L33351.2 -45
L33352.6 -45
L33354 -45
L33355.3 -45
L33356.7 -45
L33358.1 -45
L33359.5 -45
L33360.8 -45
L33362.2 -45
L33363.6 -45
L33365 -45
L33366.4 -45
L33367.7 -45
L33369.1 -45
L33370.5 -45
L33371.9 -45
L33373.2 -45
L33374.6 -45
L33376 -45
L33377.4 -45
L33378.8 -45
L33380.1 -45
L33381.5 -45
L33382.9 -45
L33384.3 -45
L33385.6 -45
L33387 -45
L33388.4 -45
L33389.8 -45
L33391.2 -45
L33392.5 -45
L33393.9 -45
L33395.3 -45
L33396.7 -45
L33398 -45
L33399.4 -45
L33400.8 -45
L33402.2 -45
L33403.6 -45
L33404.9 -45
L33406.3 -45
L33407.7 -45
L33409.1 -45
L33410.4 -45
L33411.8 -45
L33413.2 -45
L33414.6 -45
L33416 -45
L33417.3 -45
L33418.7 -45
L33420.1 -45
L33421.5 -45
L33422.8 -45
L33424.2 -45
L33425.6 -45
L33427 -45
L33428.4 -45
L33429.7 -45
L33431.1 -45
L33432.5 -45
L33433.9 -45
L33435.2 -45
L33436.6 -45
L33438 -45
L33439.4 -45
L33440.8 -45
L33442.1 -45
L33443.5 -45
L33444.9 -45
L33446.3 -45
L33447.6 -45
L33449 -45
L33450.4 -45
L33451.8 -45
L33453.2 -45
L33453.2 -45
L33453.2 -45
L33451.8 -45
L33450.4 -45
L33449 -45
L33447.6 -45
L33446.3 -45
L33444.9 -45
L33443.5 -45
L33442.1 -45
L33440.8 -45
L33439.4 -45
L33438 -45
L33436.6 -45
L33435.2 -45
L33433.9 -45
L33432.5 -45
L33431.1 -45
L33429.7 -45
L33428.4 -45
L33427 -45
L33425.6 -45
L33424.2 -45
L33422.8 -45
L33421.5 -45
L33420.1 -45
L33418.7 -45
L33417.3 -45
L33416 -45
L33414.6 -45
L33413.2 -45
L33411.8 -45
L33410.4 -45
L33409.1 -45
L33407.7 -45
L33406.3 -45
L33404.9 -45
L33403.6 -45
L33402.2 -45
L33400.8 -45
L33399.4 -45
L33398 -45
L33396.7 -45
L33395.3 -45
L33393.9 -45
L33392.5 -45
L33391.2 -45
L33389.8 -45
L33388.4 -45
L33387 -45
L33385.6 -45
L33384.3 -45
L33382.9 -45
L33381.5 -45
L33380.1 -45
L33378.8 -45
L33377.4 -45
L33376 -45
L33374.6 -45
L33373.2 -45
L33371.9 -45
L33370.5 -45
L33369.1 -45
L33367.7 -324
L33366.4 -324
L33365 -324
L33363.6 -324
L33362.2 -324
L33360.8 -324
L33359.5 -324
L33358.1 -324
L33356.7 -324
L33355.3 -324
L33354 -324
L33352.6 -324
L33351.2 -324
L33349.8 -324
L33348.4 -324
L33347.1 -324
L33345.7 -324
L33344.3 -324
L33342.9 -45
L33341.6 -45
L33340.2 -45
L33338.8 -45
L33337.4 -45
L33336 -45
L33334.7 -45
L33333.3 -45
L33331.9 -45
L33330.5 -45
L33329.2 -45
L33327.8 -45
L33326.4 -45
L33325 -45
L33323.6 -45
L33322.3 -45
L33320.9 -45
L33319.5 -45
L33318.1 -45
L33316.8 -45
L33315.4 -45
L33314 -45
L33312.6 -45
L33311.2 -45
L33309.9 -45
L33308.5 -45
L33307.1 -45
L33305.7 -45
L33304.4 -45
L33303 -45
L33301.6 -45
L33300.2 -45
L33298.8 -45
L33297.5 -45
L33296.1 -45
L33294.7 -45
L33293.3 -45
L33292 -45
L33290.6 -45
L33289.2 -45
L33287.8 -45
L33286.4 -45
L33285.1 -45
L33283.7 -45
L33282.3 -45
L33280.9 -45
L33279.6 -45
L33278.2 -45
L33276.8 -45
L33275.4 -45
L33274 -45
L33272.7 -45
L33271.3 -45
L33269.9 -45
L33268.5 -45
L33267.2 -45
L33265.8 -45
L33264.4 -45
L33263 -45
L33261.6 -45
L33260.3 -45
L33258.9 -45
L33257.5 -45
L33256.1 -45
L33254.8 -45
L33253.4 -45
L33252 -45
L33250.6 -45
L33249.2 -45
L33247.9 -45
L33246.5 -45
L33245.1 -45
L33243.7 -45
L33242.4 -324
L33241 -324
L33239.6 -324
L33238.2 -324
L33236.8 -324
L33235.5 -324
L33234.1 -324
L33232.7 -324
L33231.3 -45
L33230 -45
L33228.6 -45
L33227.2 -45
L33225.8 -45
L33224.4 -45
L33223.1 -45
L33221.7 -45
L33220.3 -45
L33218.9 -45
L33217.6 -45
L33216.2 -45
L33214.8 -45
L33213.4 -45
L33212 -45
L33210.7 -45
L33209.3 -45
L33207.9 -45
L33206.5 -45
L33205.2 -45
L33203.8 -45
L33202.4 -45
L33201 -45
L33199.6 -45
L33198.3 -45
L33196.9 -45
L33195.5 -45
L33194.1 -45
L33192.8 -45
L33191.4 -45
L33190 -45
L33188.6 -45
L33187.2 -45
L33185.9 -45
L33184.5 -45
L33183.1 -45
L33181.7 -45
L33180.4 -45
L33179 -45
L33177.6 -45
L33176.2 -45
L33174.8 -45
L33173.5 -45
L33172.1 -45
L33170.7 -45
L33169.3 -45
L33168 -45
L33166.6 -45
L33165.2 -45
L33163.8 -45
L33162.4 -45
L33161.1 -45
L33159.7 -45
L33158.3 -45
L33156.9 -45
L33155.6 -45
L33154.2 -45
L33152.8 -45
L33151.4 -45
L33150 -45
L33148.7 -45
L33147.3 -45
L33145.9 -45
L33144.5 -45
L33143.2 -45
L33141.8 -45
L33140.4 -45
L33139 -45
L33137.6 -45
L33136.3 -45
L33134.9 -45
L33133.5 -45
L33132.1 -45
L33130.8 -45
L33129.4 -45
L33128 -45
L33126.6 -45
L33125.2 -45
L33123.9 -45
L33122.5 -45
L33121.1 -45
L33119.7 -45
L33118.4 -45
L33117 -45
L33115.6 -45
L33114.2 -45
L33112.8 -45
L33111.5 -45
L33110.1 -45
L33108.7 -45
L33107.3 -45
L33106 -45
L33104.6 -45
L33103.2 -45
L33101.8 -45
L33100.4 -45
L33099.1 -45
L33097.7 -45
L33096.3 -45
L33094.9 -45
L33093.6 -45
L33092.2 -45
L33090.8 -45
L33089.4 -45
L33088 -45
L33086.7 -45
L33085.3 -45
L33083.9 -45
L33082.5 -45
L33081.2 -45
L33079.8 -45
L33078.4 -45
L33077 -45
L33075.6 -45
L33074.3 -45
L33072.9 -45
L33071.5 -45
L33070.1 -45
L33068.8 -45
L33067.4 -45
L33066 -324
L33064.6 -324
L33063.2 -324
L33061.9 -324
L33060.5 -324
L33059.1 -324
L33057.7 -324
L33056.4 -324
L33055 -45
L33053.6 -45
L33052.2 -45
L33050.8 -45
L33049.5 -45
L33048.1 -45
L33046.7 -45
L33045.3 -45
L33044 -45
L33042.6 -45
L33041.2 -45
L33039.8 -45
L33038.4 -45
L33037.1 -45
L33035.7 -45
L33034.3 -45
L33032.9 -45
L33031.6 -45
L33030.2 -45
L33028.8 -45
L33027.4 -45
L33026 -45
L33024.7 -45
L33023.3 -45
L33021.9 -45
L33020.5 -45
L33019.2 -45
L33017.8 -45
L33016.4 -45
L33015 -45
L33013.6 -45
L33012.3 -45
L33010.9 -45
L33009.5 -45
L33008.1 -45
L33006.8 -45
L33005.4 -45
L33004 -45
L33002.6 -45
L33001.2 -45
L32999.9 -45
L32998.5 -45
L32997.1 -45
L32995.7 -45
L32994.4 -45
L32993 -45
L32991.6 -45
L32990.2 -45
L32988.8 -45
L32987.5 -45
L32986.1 -45
L32984.7 -45
L32983.3 -45
L32982 -45
L32980.6 -45
L32979.2 -45
L32977.8 -45
L32976.4 -45
L32975.1 -45
L32973.7 -45
L32972.3 -45
L32970.9 -45
L32969.6 -45
L32968.2 -45
L32966.8 -45
L32965.4 -45
L32964 -45
L32962.7 -45
L32961.3 -45
L32959.9 -45
L32958.5 -45
L32957.2 -45
L32955.8 -45
L32954.4 -45
L32953 -45
L32951.6 -45
L32950.3 -45
L32948.9 -45
L32947.5 -45
L32946.1 -45
L32944.8 -45
L32943.4 -45
L32942 -45
L32940.6 -45
L32939.2 -45
L32937.9 -45
L32936.5 -45
L32935.1 -45
L32933.7 -45
L32932.4 -45
L32931 -45
L32929.6 -45
L32928.2 -324
L32926.8 -324
L32925.5 -324
L32924.1 -324
L32922.7 -324
L32921.3 -324
L32920 -324
L32918.6 -324
L32917.2 -324
L32915.8 -324
L32914.4 -324
L32913.1 -324
L32911.7 -324
L32910.3 -324
L32908.9 -324
L32907.6 -324
L32906.2 -45
L32904.8 -45
L32903.4 -45
L32902 -45
L32900.7 -45
L32899.3 -45
L32897.9 -45
L32896.5 -45
L32895.2 -45
L32893.8 -45
L32892.4 -45
L32891 -45
L32889.6 -324
L32888.3 -324
L32886.9 -324
L32885.5 -324
L32884.1 -324
L32882.8 -324
L32881.4 -45
L32880 -45
L32878.6 -45
L32877.2 -45
L32875.9 -45
L32874.5 -45
L32873.1 -45
L32871.7 -45
L32870.4 -45
L32869 -45
L32867.6 -45
L32866.2 -45
L32864.8 -45
L32863.5 -45
L32862.1 -45
L32860.7 -45
L32859.3 -45
L32858 -45
L32856.6 -45
L32855.2 -45
L32853.8 -45
L32852.4 -45
L32851.1 -45
L32849.7 -45
L32848.3 -45
L32846.9 -45
L32845.6 -45
L32844.2 -45
L32842.8 -45
L32841.4 -45
L32840 -45
L32838.7 -45
L32837.3 -45
L32835.9 -45
L32834.5 -45
L32833.2 -45
L32831.8 -45
L32830.4 -45
L32829 -45
L32827.6 -45
L32826.3 -45
L32824.9 -45
L32823.5 -45
L32822.1 -45
L32820.8 -45
L32819.4 -45
L32818 -45
L32816.6 -45
L32815.2 -45
L32813.9 -45
L32812.5 -45
L32811.1 -45
L32809.7 -45
L32808.4 -45
L32807 -45
L32805.6 -45
L32804.2 -45
L32802.8 -45
L32801.5 -324
L32800.1 -324
L32798.7 -324
L32797.3 -324
L32796 -324
L32794.6 -324
L32793.2 -324
L32791.8 -324
L32790.4 -324
L32789.1 -324
L32787.7 -324
L32786.3 -324
L32784.9 -324
L32783.6 -324
L32782.2 -324
L32780.8 -324
L32779.4 -45
L32778 -45
L32776.7 -45
L32775.3 -45
L32773.9 -45
L32772.5 -45
L32771.2 -45
L32769.8 -45
L32768.4 -45
L32767 -45
L32765.6 -45
L32764.3 -45
L32762.9 -45
L32761.5 -45
L32760.1 -45
L32758.8 -45
L32757.4 -45
L32756 -45
L32754.6 -45
L32753.2 -45
L32751.9 -45
L32750.5 -45
L32749.1 -45
L32747.7 -45
L32746.4 -45
L32745 -45
L32743.6 -45
L32742.2 -45
L32740.8 -45
L32739.5 -45
L32738.1 -45
L32736.7 -45
L32735.3 -45
L32734 -45
L32732.6 -45
L32731.2 -45
L32729.8 -324
L32728.4 -324
L32727.1 -324
L32725.7 -324
L32724.3 -324
L32722.9 -324
L32721.6 -324
L32720.2 -324
L32718.8 -324
L32717.4 -324
L32716 -324
L32714.7 -45
L32713.3 -45
L32711.9 -45
L32710.5 -45
L32709.2 -45
L32707.8 -45
L32706.4 -45
L32705 -45
L32703.6 -45
L32702.3 -45
L32700.9 -45
L32699.5 -45
L32698.1 -45
L32696.8 -45
L32695.4 -45
L32694 -45
L32692.6 -45
L32691.2 -45
L32689.9 -45
L32688.5 -45
L32687.1 -45
L32685.7 -45
L32684.4 -45
L32683 -45
L32681.6 -45
L32680.2 -45
L32678.8 -45
L32677.5 -45
L32676.1 -45
L32674.7 -45
L32673.3 -45
L32672 -45
L32670.6 -45
L32669.2 -45
L32667.8 -45
L32666.4 -45
L32665.1 -45
L32663.7 -45
L32662.3 -45
L32660.9 -45
L32659.6 -45
L32658.2 -45
L32656.8 -45
L32655.4 -45
L32654 -45
L32652.7 -45
L32651.3 -45
L32649.9 -45
L32648.5 -45
L32647.2 -45
L32645.8 -45
L32644.4 -45
L32643 -45
L32641.6 -45
L32640.3 -45
L32638.9 -45
L32637.5 -45
L32636.1 -45
L32634.8 -45
L32633.4 -45
L32632 -45
L32630.6 -45
L32629.2 -45
L32627.9 -45
L32626.5 -45
L32625.1 -45
L32623.7 -45
L32622.4 -45
L32621 -45
L32619.6 -45
L32618.2 -45
L32616.8 -45
L32615.5 -45
L32614.1 -45
L32612.7 -45
L32611.3 -45
L32610 -45
L32608.6 -45
L32607.2 -45
L32605.8 -45
L32604.4 -45
L32603.1 -45
L32601.7 -45
L32600.3 -45
L32598.9 -45
L32597.6 -45
L32596.2 -45
L32594.8 -45
L32593.4 -45
L32592 -45
L32590.7 -45
L32589.3 -45
L32587.9 -45
L32586.5 -45
L32585.2 -45
L32583.8 -45
L32582.4 -45
L32581 -45
L32579.6 -45
L32578.3 -45
L32576.9 -45
L32575.5 -45
L32574.1 -45
L32572.8 -45
L32571.4 -45
L32570 -45
L32568.6 -324
L32567.2 -324
L32565.9 -324
L32564.5 -324
L32563.1 -324
L32561.7 -324
L32560.4 -324
L32559 -324
L32557.6 -324
L32556.2 -324
L32554.8 -45
L32553.5 -45
L32552.1 -45
L32550.7 -45
L32549.3 -45
L32548 -45
L32546.6 -45
L32545.2 -45
L32543.8 -45
L32542.4 -45
L32541.1 -45
L32539.7 -45
L32538.3 -45
L32536.9 -45
L32535.6 -45
L32534.2 -45
L32532.8 -45
L32531.4 -45
L32530 -45
L32528.7 -45
L32527.3 -45
L32525.9 -45
L32524.5 -45
L32523.2 -45
L32521.8 -324
L32520.4 -324
L32519 -324
L32517.6 -324
L32516.3 -324
L32514.9 -324
L32513.5 -324
L32512.1 -324
L32510.8 -45
L32509.4 -45
L32508 -45
L32506.6 -45
L32505.2 -45
L32503.9 -45
L32502.5 -45
L32501.1 -45
L32499.7 -45
L32498.4 -45
L32497 -45
L32495.6 -45
L32494.2 -45
L32492.8 -45
L32491.5 -45
L32490.1 -45
L32488.7 -45
L32487.3 -45
L32486 -45
L32484.6 -45
L32483.2 -45
L32481.8 -45
L32480.4 -45
L32479.1 -45
L32477.7 -45
L32476.3 -45
L32474.9 -45
L32473.6 -45
L32472.2 -45
L32470.8 -45
L32469.4 -45
L32468 -45
L32466.7 -45
L32465.3 -45
L32463.9 -45
L32462.5 -45
L32461.2 -45
L32459.8 -45
L32458.4 -45
L32457 -324
L32455.6 -324
L32454.3 -324
L32452.9 -324
L32451.5 -324
L32450.1 -324
L32448.8 -324
L32447.4 -324
L32446 -324
L32444.6 -324
L32443.2 -45
L32441.9 -45
L32440.5 -45
L32439.1 -45
L32437.7 -45
L32436.4 -45
L32435 -45
L32433.6 -45
L32432.2 -45
L32430.8 -45
L32429.5 -45
L32428.1 -45
L32426.7 -45
L32425.3 -45
L32424 -45
L32422.6 -45
L32421.2 -45
L32419.8 -45
L32418.4 -45
L32417.1 -45
L32415.7 -45
L32414.3 -45
L32412.9 -45
L32411.6 -45
L32410.2 -45
L32408.8 -45
L32407.4 -45
L32406 -45
L32404.7 -45
L32403.3 -45
L32401.9 -45
L32400.5 -45
L32399.2 -45
L32397.8 -45
L32396.4 -45
L32395 -45
L32393.6 -45
L32392.3 -45
L32390.9 -45
L32389.5 -45
L32388.1 -45
L32386.8 -45
L32385.4 -45
L32384 -45
L32382.6 -45
L32381.2 -324
L32379.9 -324
L32378.5 -324
L32377.1 -324
L32375.7 -324
L32374.4 -324
L32373 -324
L32371.6 -324
L32370.2 -324
L32368.8 -324
L32367.5 -324
L32366.1 -45
L32364.7 -45
L32363.3 -45
L32362 -45
L32360.6 -45
L32359.2 -45
L32357.8 -45
L32356.4 -45
L32355.1 -45
L32353.7 -45
L32352.3 -45
L32350.9 -45
L32349.6 -45
L32348.2 -45
L32346.8 -45
L32345.4 -45
L32344 -45
L32342.7 -45
L32341.3 -45
L32339.9 -45
L32338.5 -45
L32337.2 -45
L32335.8 -45
L32334.4 -45
L32333 -45
L32331.6 -45
L32330.3 -45
L32328.9 -45
L32327.5 -45
L32326.1 -45
L32324.8 -45
L32323.4 -45
L32322 -45
L32320.6 -45
L32319.2 -45
L32317.9 -45
L32316.5 -45
L32315.1 -324
L32313.7 -324
L32312.4 -324
L32311 -324
L32309.6 -324
L32308.2 -324
L32306.8 -324
L32305.5 -324
L32304.1 -45
L32302.7 -45
L32301.3 -45
L32300 -45
L32298.6 -45
L32297.2 -45
L32295.8 -45
L32294.4 -45
L32293.1 -45
L32291.7 -45
L32290.3 -45
L32288.9 -45
L32287.6 -45
L32286.2 -45
L32284.8 -45
L32283.4 -45
L32282 -45
L32280.7 -45
L32279.3 -45
L32277.9 -45
L32276.5 -45
L32275.2 -45
L32273.8 -45
L32272.4 -45
L32271 -45
L32269.6 -45
L32268.3 -45
L32266.9 -45
L32265.5 -45
L32264.1 -45
L32262.8 -45
L32261.4 -45
L32260 -45
L32258.6 -45
L32257.2 -45
L32255.9 -45
L32254.5 -45
L32253.1 -45
L32251.7 -45
L32250.4 -45
L32249 -45
L32247.6 -45
L32246.2 -45
L32244.8 -45
L32243.5 -45
L32242.1 -45
L32240.7 -45
L32239.3 -45
L32238 -45
L32236.6 -45
L32235.2 -45
L32233.8 -45
L32232.4 -45
L32231.1 -45
L32229.7 -45
L32228.3 -45
L32226.9 -45
L32225.6 -45
L32224.2 -45
L32222.8 -45
L32221.4 -45
L32220 -45
L32218.7 -45
L32217.3 -45
L32215.9 -45
L32214.5 -45
L32213.2 -45
L32211.8 -45
L32210.4 -45
L32209 -45
L32207.6 -45
L32206.3 -45
L32204.9 -45
L32203.5 -45
L32202.1 -45
L32200.8 -45
L32199.4 -45
L32198 -45
L32196.6 -45
L32195.2 -45
L32193.9 -324
L32192.5 -324
L32191.1 -324
L32189.7 -324
L32188.4 -324
L32187 -324
L32185.6 -324
L32184.2 -324
L32182.8 -324
L32181.5 -324
L32180.1 -324
L32178.7 -324
L32177.3 -324
L32176 -45
L32174.6 -45
L32173.2 -45
L32171.8 -45
L32170.4 -45
L32169.1 -45
L32167.7 -45
L32166.3 -45
L32164.9 -45
L32163.6 -45
L32162.2 -45
L32160.8 -45
L32159.4 -45
L32158 -45
L32156.7 -45
L32155.3 -45
L32153.9 -45
L32152.5 -45
L32151.2 -45
L32149.8 -45
L32148.4 -45
L32147 -45
L32145.6 -45
L32144.3 -45
L32142.9 -45
L32141.5 -45
L32140.1 -45
L32138.8 -45
L32137.4 -45
L32136 -45
L32134.6 -45
L32133.2 -45
L32131.9 -45
L32130.5 -45
L32129.1 -45
L32127.7 -45
L32126.4 -45
L32125 -45
L32123.6 -45
L32122.2 -45
L32120.8 -45
L32119.5 -45
L32118.1 -45
L32116.7 -45
L32115.3 -45
L32114 -45
L32112.6 -45
L32111.2 -45
L32109.8 -45
L32108.4 -45
L32107.1 -324
L32105.7 -324
L32104.3 -324
L32102.9 -324
L32101.6 -324
L32100.2 -324
L32098.8 -324
L32097.4 -324
L32096 -324
L32094.7 -324
L32093.3 -324
L32091.9 -324
L32090.5 -324
L32089.2 -324
L32087.8 -324
L32086.4 -324
L32085 -324
L32083.6 -324
L32082.3 -324
L32080.9 -324
L32079.5 -324
L32078.1 -324
L32076.8 -324
L32075.4 -324
L32074 -324
L32072.6 -324
L32071.2 -324
L32069.9 -324
L32068.5 -324
L32067.1 -324
L32065.7 -324
L32064.4 -324
L32063 -324
L32061.6 -324
L32060.2 -324
L32058.8 -324
L32057.5 -324
L32056.1 -324
L32054.7 -324
L32053.3 -324
L32052 -324
L32050.6 -324
L32049.2 -324
L32047.8 -45
L32046.4 -45
L32045.1 -45
L32043.7 -45
L32042.3 -45
L32040.9 -45
L32039.6 -45
L32038.2 -45
L32036.8 -45
L32035.4 -45
L32034 -45
L32032.7 -45
L32031.3 -45
L32029.9 -45
L32028.5 -45
L32027.2 -45
L32025.8 -45
L32024.4 -45
L32023 -45
L32021.6 -45
L32020.3 -45
L32018.9 -324
L32017.5 -324
L32016.1 -324
L32014.8 -324
L32013.4 -324
L32012 -324
L32010.6 -324
L32009.2 -324
L32007.9 -324
L32006.5 -324
L32005.1 -324
L32003.7 -324
L32002.4 -324
L32001 -45
L31999.6 -45
L31998.2 -45
L31996.8 -45
L31995.5 -45
L31994.1 -45
L31992.7 -45
L31991.3 -45
L31990 -45
L31988.6 -45
L31987.2 -45
L31985.8 -45
L31984.4 -45
L31983.1 -45
L31981.7 -45
L31980.3 -45
L31978.9 -45
L31977.6 -45
L31976.2 -45
L31974.8 -45
L31973.4 -45
L31972 -45
L31970.7 -45
L31969.3 -45
L31967.9 -45
L31966.5 -45
L31965.2 -45
L31963.8 -324
L31962.4 -324
L31961 -324
L31959.6 -324
L31958.3 -324
L31956.9 -324
L31955.5 -324
L31954.1 -324
L31952.8 -324
L31951.4 -324
L31950 -324
L31948.6 -324
L31947.2 -324
L31945.9 -324
L31944.5 -45
L31943.1 -45
L31941.7 -45
L31940.4 -45
L31939 -45
L31937.6 -45
L31936.2 -45
L31934.8 -45
L31933.5 -45
L31932.1 -45
L31930.7 -45
L31929.3 -45
L31928 -45
L31926.6 -45
L31925.2 -45
L31923.8 -45
L31922.4 -45
L31921.1 -45
L31919.7 -45
L31918.3 -45
L31916.9 -45
L31915.6 -45
L31914.2 -324
L31912.8 -324
L31911.4 -324
L31910 -324
L31908.7 -324
L31907.3 -324
L31905.9 -324
L31904.5 -324
L31903.2 -324
L31901.8 -324
L31900.4 -324
L31899 -324
L31897.6 -324
L31896.3 -324
L31894.9 -324
L31893.5 -324
L31892.1 -324
L31890.8 -324
L31889.4 -45
L31888 -45
L31886.6 -45
L31885.2 -45
L31883.9 -45
L31882.5 -45
L31881.1 -45
L31879.7 -45
L31878.4 -45
L31877 -45
L31875.6 -324
L31874.2 -324
L31872.8 -324
L31871.5 -324
L31870.1 -324
L31868.7 -324
L31867.3 -324
L31866 -45
L31864.6 -45
L31863.2 -45
L31861.8 -45
L31860.4 -45
L31859.1 -45
L31857.7 -45
L31856.3 -45
L31854.9 -45
L31853.6 -45
L31852.2 -45
L31850.8 -45
L31849.4 -45
L31848 -45
L31846.7 -45
L31845.3 -45
L31843.9 -45
L31842.5 -45
L31841.2 -45
L31839.8 -45
L31838.4 -45
L31837 -45
L31835.6 -45
L31834.3 -45
L31832.9 -45
L31831.5 -45
L31830.1 -45
L31828.8 -45
L31827.4 -45
L31826 -45
L31824.6 -45
L31823.2 -45
L31821.9 -45
L31820.5 -45
L31819.1 -45
L31817.7 -45
L31816.4 -45
L31815 -45
L31813.6 -45
L31812.2 -45
L31810.8 -45
L31809.5 -45
L31808.1 -45
L31806.7 -45
L31805.3 -324
L31804 -324
L31802.6 -324
L31801.2 -324
L31799.8 -324
L31798.4 -324
L31797.1 -324
L31795.7 -324
L31794.3 -324
L31792.9 -324
L31791.6 -324
L31790.2 -324
L31788.8 -324
L31787.4 -324
L31786 -324
L31784.7 -324
L31783.3 -324
L31781.9 -324
L31780.5 -324
L31779.2 -324
L31777.8 -324
L31776.4 -324
L31775 -324
L31773.6 -45
L31772.3 -45
L31770.9 -45
L31769.5 -45
L31768.1 -45
L31766.8 -45
L31765.4 -45
L31764 -45
L31762.6 -45
L31761.2 -45
L31759.9 -45
L31758.5 -45
L31757.1 -324
L31755.7 -324
L31754.4 -324
L31753 -324
L31751.6 -324
L31750.2 -324
L31748.8 -324
L31747.5 -324
L31746.1 -324
L31744.7 -324
L31743.3 -324
L31742 -324
L31740.6 -324
L31739.2 -324
L31737.8 -324
L31736.4 -324
L31735.1 -324
L31733.7 -324
L31732.3 -324
L31730.9 -324
L31729.6 -324
L31728.2 -324
L31726.8 -324
L31725.4 -324
L31724 -45
L31722.7 -45
L31721.3 -45
L31719.9 -45
L31718.5 -45
L31717.2 -45
L31715.8 -45
L31714.4 -45
L31713 -45
L31711.6 -45
L31710.3 -45
L31708.9 -45
L31707.5 -45
L31706.1 -45
L31704.8 -45
L31703.4 -45
L31702 -45
L31700.6 -45
L31699.2 -45
L31697.9 -324
L31696.5 -324
L31695.1 -324
L31693.7 -324
L31692.4 -324
L31691 -324
L31689.6 -324
L31688.2 -324
L31686.8 -324
L31685.5 -324
L31684.1 -324
L31682.7 -324
L31681.3 -324
L31680 -45
L31678.6 -45
L31677.2 -45
L31675.8 -45
L31674.4 -45
L31673.1 -45
L31671.7 -45
L31670.3 -45
L31668.9 -45
L31667.6 -45
L31666.2 -45
L31664.8 -45
L31663.4 -45
L31662 -45
L31660.7 -45
L31659.3 -45
L31657.9 -45
L31656.5 -45
L31655.2 -45
L31653.8 -45
L31652.4 -45
L31651 -45
L31649.6 -45
L31648.3 -45
L31646.9 -45
L31645.5 -45
L31644.1 -45
L31642.8 -45
L31641.4 -45
L31640 -45
L31638.6 -45
L31637.2 -45
L31635.9 -45
L31634.5 -324
L31633.1 -324
L31631.7 -324
L31630.4 -324
L31629 -324
L31627.6 -324
L31626.2 -324
L31624.8 -324
L31623.5 -324
L31622.1 -324
L31620.7 -324
L31619.3 -324
L31618 -324
L31616.6 -324
L31615.2 -324
L31613.8 -324
L31612.4 -324
L31611.1 -324
L31609.7 -324
L31608.3 -324
L31606.9 -324
L31605.6 -324
L31604.2 -324
L31602.8 -45
L31601.4 -45
L31600 -45
L31598.7 -45
L31597.3 -45
L31595.9 -45
L31594.5 -45
L31593.2 -45
L31591.8 -45
L31590.4 -45
L31589 -45
L31587.6 -45
L31586.3 -45
L31584.9 -45
L31583.5 -45
L31582.1 -45
L31580.8 -45
L31579.4 -45
L31578 -45
L31576.6 -45
L31575.2 -45
L31573.9 -324
L31572.5 -324
L31571.1 -324
L31569.7 -324
L31568.4 -324
L31567 -324
L31565.6 -324
L31564.2 -324
L31562.8 -324
L31561.5 -324
L31558.7 -324
L31557.3 -324
L31557.3 -324
L31556 -324
L31554.6 -324
L31553.2 -324
L31551.8 -324
L31550.4 -324
L31549.1 -45
L31547.7 -45
L31546.3 -45
L31544.9 -45
L31543.6 -45
L31542.2 -45
L31540.8 -45
L31539.4 -45
L31538 -45
L31536.7 -45
L31535.3 -45
L31533.9 -45
L31532.5 -45
L31531.2 -45
L31529.8 -45
L31528.4 -45
L31527 -45
L31525.6 -45
L31524.3 -45
L31522.9 -45
L31521.5 -45
L31520.1 -45
L31518.8 -45
L31517.4 -45
L31516 -324
L31514.6 -324
L31513.2 -324
L31511.9 -324
L31510.5 -324
L31509.1 -324
L31507.7 -324
L31506.4 -324
L31505 -324
L31503.6 -324
L31502.2 -324
L31500.8 -324
L31499.5 -324
L31498.1 -324
L31496.7 -324
L31495.3 -324
L31494 -324
L31492.6 -324
L31491.2 -45
L31489.8 -45
L31488.4 -45
L31487.1 -45
L31485.7 -45
L31484.3 -45
L31482.9 -45
L31481.6 -45
L31480.2 -45
L31478.8 -45
L31477.4 -45
L31476 -45
L31474.7 -45
L31473.3 -45
L31471.9 -45
L31470.5 -45
L31469.2 -45
L31467.8 -45
L31466.4 -324
L31465 -324
L31463.6 -324
L31462.3 -324
L31460.9 -324
L31459.5 -324
L31458.1 -324
L31456.8 -324
L31455.4 -324
L31454 -324
L31452.6 -324
L31451.2 -324
L31449.9 -324
L31448.5 -324
L31447.1 -324
L31445.7 -324
L31444.4 -324
L31443 -45
L31441.6 -45
L31440.2 -45
L31438.8 -45
L31437.5 -45
L31436.1 -45
L31434.7 -45
L31433.3 -45
L31432 -45
L31430.6 -45
L31429.2 -45
L31427.8 -45
L31426.4 -45
L31425.1 -45
L31423.7 -45
L31422.3 -45
L31420.9 -45
L31419.6 -45
L31418.2 -45
L31416.8 -45
L31415.4 -324
L31414 -324
L31412.7 -324
L31411.3 -324
L31409.9 -324
L31408.5 -324
L31407.2 -324
L31405.8 -324
L31404.4 -324
L31403 -324
L31401.6 -45
L31400.3 -45
L31398.9 -45
L31397.5 -45
L31396.1 -45
L31394.8 -45
L31393.4 -45
L31392 -45
L31390.6 -45
L31389.2 -45
L31387.9 -45
L31386.5 -45
L31385.1 -45
L31383.7 -45
L31382.4 -45
L31381 -45
L31379.6 -45
L31378.2 -45
L31376.8 -45
L31375.5 -45
L31374.1 -45
L31372.7 -45
L31371.3 -45
L31370 -45
L31368.6 -45
L31367.2 -45
L31365.8 -45
L31364.4 -324
L31363.1 -324
L31361.7 -324
L31360.3 -324
L31358.9 -324
L31357.6 -324
L31356.2 -324
L31354.8 -324
L31353.4 -324
L31352 -324
L31350.7 -324
L31349.3 -324
L31347.9 -324
L31346.5 -45
L31345.2 -45
L31343.8 -45
L31342.4 -45
L31341 -45
L31339.6 -45
L31338.3 -45
L31336.9 -45
L31335.5 -45
L31334.1 -45
L31332.8 -45
L31331.4 -45
L31330 -45
L31328.6 -45
L31327.2 -45
L31325.9 -45
L31324.5 -45
L31323.1 -45
L31321.7 -45
L31320.4 -45
L31319 -45
L31317.6 -45
L31316.2 -324
L31314.8 -324
L31313.5 -324
L31312.1 -324
L31310.7 -324
L31309.3 -324
L31308 -324
L31306.6 -324
L31305.2 -324
L31303.8 -324
L31302.4 -324
L31301.1 -324
L31299.7 -324
L31298.3 -324
L31296.9 -324
L31295.6 -324
L31294.2 -324
L31292.8 -324
L31291.4 -324
L31290 -324
L31288.7 -324
L31287.3 -324
L31285.9 -324
L31284.5 -324
L31283.2 -324
L31281.8 -324
L31280.4 -324
L31279 -324
L31277.6 -324
L31276.3 -324
L31274.9 -324
L31273.5 -324
L31272.1 -324
L31270.8 -324
L31269.4 -324
L31268 -324
L31266.6 -324
L31265.2 -324
L31263.9 -45
L31262.5 -45
L31261.1 -45
L31259.7 -45
L31258.4 -45
L31257 -45
L31255.6 -45
L31254.2 -45
L31252.8 -45
L31251.5 -45
L31250.1 -45
L31248.7 -45
L31247.3 -45
L31246 -45
L31244.6 -45
L31243.2 -45
L31241.8 -45
L31240.4 -45
L31239.1 -45
L31237.7 -45
L31236.3 -45
L31234.9 -45
L31233.6 -45
L31232.2 -45
L31230.8 -45
L31229.4 -45
L31228 -45
L31226.7 -45
L31225.3 -45
L31223.9 -45
L31222.5 -45
L31221.2 -45
L31219.8 -45
L31218.4 -45
L31217 -45
L31215.6 -45
L31214.3 -324
L31212.9 -324
L31211.5 -324
L31210.1 -324
L31208.8 -324
L31207.4 -324
L31206 -324
L31204.6 -324
L31203.2 -324
L31201.9 -324
L31200.5 -324
L31199.1 -324
L31197.7 -324
L31196.4 -324
L31195 -324
L31193.6 -324
L31192.2 -324
L31190.8 -324
L31189.5 -324
L31188.1 -324
L31186.7 -324
L31185.3 -324
L31184 -324
L31182.6 -324
L31181.2 -324
L31179.8 -324
L31178.4 -324
L31177.1 -324
L31175.7 -324
L31174.3 -324
L31172.9 -324
L31171.6 -324
L31170.2 -324
L31168.8 -324
L31167.4 -324
L31166 -324
L31164.7 -324
L31163.3 -324
L31161.9 -324
L31160.5 -324
L31159.2 -324
L31157.8 -324
L31156.4 -324
L31155 -324
L31153.6 -324
L31152.3 -324
L31150.9 -324
L31149.5 -324
L31148.1 -324
L31146.8 -324
L31145.4 -324
L31144 -324
L31142.6 -324
L31141.2 -324
L31139.9 -324
L31138.5 -324
L31137.1 -324
L31135.7 -324
L31134.4 -324
L31133 -324
L31131.6 -324
L31130.2 -324
L31128.8 -324
L31127.5 -324
L31126.1 -324
L31124.7 -45
L31123.3 -45
L31122 -45
L31120.6 -45
L31119.2 -45
L31117.8 -45
L31116.4 -45
L31115.1 -45
L31113.7 -45
L31112.3 -45
L31110.9 -45
L31109.6 -45
L31108.2 -45
L31106.8 -45
L31105.4 -45
L31104 -45
L31102.7 -45
L31101.3 -45
L31099.9 -45
L31098.5 -45
L31097.2 -45
L31095.8 -45
L31094.4 -45
L31093 -45
L31091.6 -45
L31090.3 -45
L31088.9 -45
L31087.5 -45
L31086.1 -45
L31084.8 -45
L31083.4 -45
L31082 -45
L31080.6 -45
L31079.2 -45
L31077.9 -324
L31076.5 -324
L31075.1 -324
L31073.7 -324
L31072.4 -324
L31071 -324
L31069.6 -324
L31068.2 -324
L31066.8 -324
L31065.5 -324
L31064.1 -324
L31062.7 -324
L31061.3 -324
L31060 -324
L31058.6 -324
L31057.2 -324
L31055.8 -324
L31054.4 -324
L31053.1 -45
L31051.7 -45
L31050.3 -45
L31048.9 -45
L31047.6 -45
L31046.2 -45
L31044.8 -45
L31043.4 -45
L31042 -45
L31040.7 -45
L31039.3 -45
L31037.9 -45
L31036.5 -45
L31035.2 -45
L31033.8 -45
L31032.4 -45
L31031 -45
L31029.6 -45
L31028.3 -324
L31026.9 -324
L31025.5 -324
L31024.1 -324
L31022.8 -324
L31021.4 -324
L31020 -324
L31018.6 -324
L31017.2 -324
L31015.9 -324
L31014.5 -324
L31013.1 -324
L31011.7 -324
L31010.4 -324
L31009 -324
L31007.6 -324
L31006.2 -324
L31004.8 -324
L31003.5 -324
L31002.1 -324
L31000.7 -324
L30999.3 -324
L30998 -324
L30996.6 -324
L30995.2 -324
L30993.8 -324
L30992.4 -324
L30991.1 -324
L30989.7 -324
L30988.3 -324
L30986.9 -324
L30985.6 -324
L30984.2 -45
L30982.8 -45
L30981.4 -45
L30980 -45
L30978.7 -45
L30977.3 -45
L30975.9 -45
L30974.5 -45
L30973.2 -45
L30971.8 -45
L30970.4 -45
L30969 -45
L30967.6 -45
L30966.3 -45
L30964.9 -45
L30963.5 -45
L30962.1 -45
L30960.8 -45
L30959.4 -45
L30958 -45
L30956.6 -45
L30955.2 -45
L30953.9 -45
L30952.5 -45
L30951.1 -45
L30949.7 -45
L30948.4 -45
L30947 -45
L30945.6 -45
L30944.2 -45
L30942.8 -45
L30941.5 -45
L30940.1 -45
L30938.7 -45
L30937.3 -45
L30936 -45
L30934.6 -45
L30933.2 -45
L30931.8 -45
L30930.4 -45
L30929.1 -45
L30927.7 -45
L30926.3 -45
L30924.9 -45
L30923.6 -45
L30922.2 -45
L30920.8 -324
L30919.4 -324
L30918 -324
L30916.7 -324
L30915.3 -324
L30913.9 -324
L30912.5 -324
L30911.2 -324
L30909.8 -45
L30908.4 -45
L30907 -45
L30905.6 -45
L30904.3 -45
L30902.9 -45
L30901.5 -45
L30900.1 -45
L30898.8 -45
L30897.4 -45
L30896 -45
L30894.6 -45
L30893.2 -45
L30891.9 -45
L30890.5 -45
L30889.1 -45
L30887.7 -45
L30886.4 -45
L30885 -45
L30883.6 -45
L30882.2 -45
L30880.8 -45
L30879.5 -324
L30878.1 -324
L30876.7 -324
L30875.3 -324
L30874 -324
L30872.6 -324
L30871.2 -324
L30869.8 -324
L30868.4 -324
L30867.1 -324
L30865.7 -324
L30864.3 -324
L30862.9 -324
L30861.6 -324
L30860.2 -324
L30858.8 -324
L30857.4 -324
L30856 -324
L30854.7 -45
L30853.3 -45
L30851.9 -45
L30850.5 -45
L30849.2 -45
L30847.8 -45
L30846.4 -45
L30845 -45
L30843.6 -45
L30842.3 -45
L30840.9 -45
L30839.5 -45
L30838.1 -45
L30836.8 -45
L30835.4 -45
L30834 -45
L30832.6 -45
L30831.2 -45
L30829.9 -45
L30828.5 -45
L30827.1 -45
L30825.7 -45
L30824.4 -45
L30823 -45
L30821.6 -45
L30820.2 -45
L30818.8 -45
L30817.5 -45
L30816.1 -45
L30814.7 -45
L30813.3 -324
z
" id="m730dbb465b"/>
    </defs>
    <g clip-path="url(#p84497b6040)">
     <use style="fill:#4e4a52;fill-opacity:0.3;" x="0.0" xlink:href="#m730dbb465b" y="360.0"/>
    </g>
   </g>
   <g id="line2d_1">
    <path clip-path="url(#p84497b6040)" d="
M144 167.233
L160.533 168.99
L177.067 170.836
L193.6 170.798
L210.133 172.977
L226.667 175.83
L243.2 178.829
L259.733 183.511
L276.267 185.623
L292.8 185.305
L309.333 188.037
L325.867 192.638
L342.4 193.762
L358.933 199.457
L375.467 204.379
L392 207.051
L408.533 209.843
L425.067 210.097
L441.6 210.86
L458.133 219.475
L474.667 224.431
L491.2 226.331
L507.733 223.517
L524.267 220.82
L540.8 220.512
L557.333 222.321
L573.867 223.869
L590.4 223.276
L606.933 219.934
L623.467 219.555
L640 218.28
L656.533 216.831
L673.067 214.691
L689.6 215.56
L706.133 218.135
L722.667 218.61
L739.2 221.793
L755.733 222.723
L772.267 222.841
L788.8 225.085
L805.333 226.829
L821.867 228.002
L838.4 227.115
L854.933 224.182
L871.467 224.234
L888 222.398
L904.533 221.039
L921.067 221.428
L937.6 219.785
L954.133 218.198
L970.667 213.829
L987.2 215.036
L1003.73 214.625
L1020.27 213.739
L1036.8 214.735" style="fill:none;stroke:#857846;stroke-linecap:square;stroke-width:5;"/>
   </g>
   <g id="line2d_2">
    <path clip-path="url(#p84497b6040)" d="
M144 228.2
L160.533 225.72
L177.067 223.413
L193.6 221.739
L210.133 220.558
L226.667 218.702
L243.2 214.536
L259.733 208.372
L276.267 204.388
L292.8 202.687
L309.333 200.375
L325.867 195.722
L342.4 193.762
L358.933 189.053
L375.467 184.8
L392 184.515
L408.533 180.464
L425.067 179.015
L441.6 178.454
L458.133 172.331
L474.667 170.906
L491.2 171.281
L507.733 177.037
L524.267 183.034
L540.8 187.032
L557.333 188.252
L573.867 188.819
L590.4 189.796
L606.933 191.654
L623.467 192.367
L640 194.166
L656.533 194.071
L673.067 193.234
L689.6 189.837
L706.133 186.773
L722.667 185.946
L739.2 184.615
L755.733 184.538
L772.267 184.395
L788.8 181.643
L805.333 179.669
L821.867 179.059
L838.4 176.717
L854.933 176.097
L871.467 173.504
L888 175.675
L904.533 179.727
L921.067 181.596
L937.6 182.023
L954.133 179.382
L970.667 179.764
L987.2 178.904
L1003.73 180.014
L1020.27 182.023
L1036.8 181.919" style="fill:none;stroke:#465385;stroke-linecap:square;stroke-width:5;"/>
   </g>
   <g id="patch_3">
    <path d="
M144 315
L1036.8 315" style="fill:none;stroke:#000000;stroke-linecap:square;stroke-linejoin:miter;"/>
   </g>
   <g id="patch_4">
    <path d="
M144 315
L144 36" style="fill:none;stroke:#000000;stroke-linecap:square;stroke-linejoin:miter;"/>
   </g>
   <g id="matplotlib.axis_1">
    <g id="xtick_1">
     <g id="line2d_3">
      <defs>
       <path d="
M0 0
L0 -4" id="m93b0483c22" style="stroke:#000000;stroke-width:0.5;"/>
      </defs>
      <g>
       <use style="stroke:#000000;stroke-width:0.5;" x="144.0" xlink:href="#m93b0483c22" y="315.0"/>
      </g>
     </g>
     <g id="text_1">
      <!-- 1959 -->
      <defs>
       <path d="
M10.9844 1.51562
L10.9844 10.5
Q14.7031 8.73438 18.5 7.8125
Q22.3125 6.89062 25.9844 6.89062
Q35.75 6.89062 40.8906 13.4531
Q46.0469 20.0156 46.7812 33.4062
Q43.9531 29.2031 39.5938 26.9531
Q35.25 24.7031 29.9844 24.7031
Q19.0469 24.7031 12.6719 31.3125
Q6.29688 37.9375 6.29688 49.4219
Q6.29688 60.6406 12.9375 67.4219
Q19.5781 74.2188 30.6094 74.2188
Q43.2656 74.2188 49.9219 64.5156
Q56.5938 54.8281 56.5938 36.375
Q56.5938 19.1406 48.4062 8.85938
Q40.2344 -1.42188 26.4219 -1.42188
Q22.7031 -1.42188 18.8906 -0.6875
Q15.0938 0.046875 10.9844 1.51562
M30.6094 32.4219
Q37.25 32.4219 41.125 36.9531
Q45.0156 41.5 45.0156 49.4219
Q45.0156 57.2812 41.125 61.8438
Q37.25 66.4062 30.6094 66.4062
Q23.9688 66.4062 20.0938 61.8438
Q16.2188 57.2812 16.2188 49.4219
Q16.2188 41.5 20.0938 36.9531
Q23.9688 32.4219 30.6094 32.4219" id="BitstreamVeraSans-Roman-39"/>
       <path d="
M12.4062 8.29688
L28.5156 8.29688
L28.5156 63.9219
L10.9844 60.4062
L10.9844 69.3906
L28.4219 72.9062
L38.2812 72.9062
L38.2812 8.29688
L54.3906 8.29688
L54.3906 0
L12.4062 0
z
" id="BitstreamVeraSans-Roman-31"/>
       <path d="
M10.7969 72.9062
L49.5156 72.9062
L49.5156 64.5938
L19.8281 64.5938
L19.8281 46.7344
Q21.9688 47.4688 24.1094 47.8281
Q26.2656 48.1875 28.4219 48.1875
Q40.625 48.1875 47.75 41.5
Q54.8906 34.8125 54.8906 23.3906
Q54.8906 11.625 47.5625 5.09375
Q40.2344 -1.42188 26.9062 -1.42188
Q22.3125 -1.42188 17.5469 -0.640625
Q12.7969 0.140625 7.71875 1.70312
L7.71875 11.625
Q12.1094 9.23438 16.7969 8.0625
Q21.4844 6.89062 26.7031 6.89062
Q35.1562 6.89062 40.0781 11.3281
Q45.0156 15.7656 45.0156 23.3906
Q45.0156 31 40.0781 35.4375
Q35.1562 39.8906 26.7031 39.8906
Q22.75 39.8906 18.8125 39.0156
Q14.8906 38.1406 10.7969 36.2812
z
" id="BitstreamVeraSans-Roman-35"/>
      </defs>
      <g transform="translate(132.17578125 326.5984375)scale(0.1 -0.1)">
       <use xlink:href="#BitstreamVeraSans-Roman-31"/>
       <use x="63.623046875" xlink:href="#BitstreamVeraSans-Roman-39"/>
       <use x="127.24609375" xlink:href="#BitstreamVeraSans-Roman-35"/>
       <use x="190.869140625" xlink:href="#BitstreamVeraSans-Roman-39"/>
      </g>
     </g>
    </g>
    <g id="xtick_2">
     <g id="line2d_4">
      <g>
       <use style="stroke:#000000;stroke-width:0.5;" x="309.333333333" xlink:href="#m93b0483c22" y="315.0"/>
      </g>
     </g>
     <g id="text_2">
      <!-- 1969 -->
      <defs>
       <path d="
M33.0156 40.375
Q26.375 40.375 22.4844 35.8281
Q18.6094 31.2969 18.6094 23.3906
Q18.6094 15.5312 22.4844 10.9531
Q26.375 6.39062 33.0156 6.39062
Q39.6562 6.39062 43.5312 10.9531
Q47.4062 15.5312 47.4062 23.3906
Q47.4062 31.2969 43.5312 35.8281
Q39.6562 40.375 33.0156 40.375
M52.5938 71.2969
L52.5938 62.3125
Q48.875 64.0625 45.0938 64.9844
Q41.3125 65.9219 37.5938 65.9219
Q27.8281 65.9219 22.6719 59.3281
Q17.5312 52.7344 16.7969 39.4062
Q19.6719 43.6562 24.0156 45.9219
Q28.375 48.1875 33.5938 48.1875
Q44.5781 48.1875 50.9531 41.5156
Q57.3281 34.8594 57.3281 23.3906
Q57.3281 12.1562 50.6875 5.35938
Q44.0469 -1.42188 33.0156 -1.42188
Q20.3594 -1.42188 13.6719 8.26562
Q6.98438 17.9688 6.98438 36.375
Q6.98438 53.6562 15.1875 63.9375
Q23.3906 74.2188 37.2031 74.2188
Q40.9219 74.2188 44.7031 73.4844
Q48.4844 72.75 52.5938 71.2969" id="BitstreamVeraSans-Roman-36"/>
      </defs>
      <g transform="translate(297.509114583 326.5984375)scale(0.1 -0.1)">
       <use xlink:href="#BitstreamVeraSans-Roman-31"/>
       <use x="63.623046875" xlink:href="#BitstreamVeraSans-Roman-39"/>
       <use x="127.24609375" xlink:href="#BitstreamVeraSans-Roman-36"/>
       <use x="190.869140625" xlink:href="#BitstreamVeraSans-Roman-39"/>
      </g>
     </g>
    </g>
    <g id="xtick_3">
     <g id="line2d_5">
      <g>
       <use style="stroke:#000000;stroke-width:0.5;" x="474.666666667" xlink:href="#m93b0483c22" y="315.0"/>
      </g>
     </g>
     <g id="text_3">
      <!-- 1979 -->
      <defs>
       <path d="
M8.20312 72.9062
L55.0781 72.9062
L55.0781 68.7031
L28.6094 0
L18.3125 0
L43.2188 64.5938
L8.20312 64.5938
z
" id="BitstreamVeraSans-Roman-37"/>
      </defs>
      <g transform="translate(462.842447917 326.5984375)scale(0.1 -0.1)">
       <use xlink:href="#BitstreamVeraSans-Roman-31"/>
       <use x="63.623046875" xlink:href="#BitstreamVeraSans-Roman-39"/>
       <use x="127.24609375" xlink:href="#BitstreamVeraSans-Roman-37"/>
       <use x="190.869140625" xlink:href="#BitstreamVeraSans-Roman-39"/>
      </g>
     </g>
    </g>
    <g id="xtick_4">
     <g id="line2d_6">
      <g>
       <use style="stroke:#000000;stroke-width:0.5;" x="640.0" xlink:href="#m93b0483c22" y="315.0"/>
      </g>
     </g>
     <g id="text_4">
      <!-- 1989 -->
      <defs>
       <path d="
M31.7812 34.625
Q24.75 34.625 20.7188 30.8594
Q16.7031 27.0938 16.7031 20.5156
Q16.7031 13.9219 20.7188 10.1562
Q24.75 6.39062 31.7812 6.39062
Q38.8125 6.39062 42.8594 10.1719
Q46.9219 13.9688 46.9219 20.5156
Q46.9219 27.0938 42.8906 30.8594
Q38.875 34.625 31.7812 34.625
M21.9219 38.8125
Q15.5781 40.375 12.0312 44.7188
Q8.5 49.0781 8.5 55.3281
Q8.5 64.0625 14.7188 69.1406
Q20.9531 74.2188 31.7812 74.2188
Q42.6719 74.2188 48.875 69.1406
Q55.0781 64.0625 55.0781 55.3281
Q55.0781 49.0781 51.5312 44.7188
Q48 40.375 41.7031 38.8125
Q48.8281 37.1562 52.7969 32.3125
Q56.7812 27.4844 56.7812 20.5156
Q56.7812 9.90625 50.3125 4.23438
Q43.8438 -1.42188 31.7812 -1.42188
Q19.7344 -1.42188 13.25 4.23438
Q6.78125 9.90625 6.78125 20.5156
Q6.78125 27.4844 10.7812 32.3125
Q14.7969 37.1562 21.9219 38.8125
M18.3125 54.3906
Q18.3125 48.7344 21.8438 45.5625
Q25.3906 42.3906 31.7812 42.3906
Q38.1406 42.3906 41.7188 45.5625
Q45.3125 48.7344 45.3125 54.3906
Q45.3125 60.0625 41.7188 63.2344
Q38.1406 66.4062 31.7812 66.4062
Q25.3906 66.4062 21.8438 63.2344
Q18.3125 60.0625 18.3125 54.3906" id="BitstreamVeraSans-Roman-38"/>
      </defs>
      <g transform="translate(628.17578125 326.5984375)scale(0.1 -0.1)">
       <use xlink:href="#BitstreamVeraSans-Roman-31"/>
       <use x="63.623046875" xlink:href="#BitstreamVeraSans-Roman-39"/>
       <use x="127.24609375" xlink:href="#BitstreamVeraSans-Roman-38"/>
       <use x="190.869140625" xlink:href="#BitstreamVeraSans-Roman-39"/>
      </g>
     </g>
    </g>
    <g id="xtick_5">
     <g id="line2d_7">
      <g>
       <use style="stroke:#000000;stroke-width:0.5;" x="805.333333333" xlink:href="#m93b0483c22" y="315.0"/>
      </g>
     </g>
     <g id="text_5">
      <!-- 1999 -->
      <g transform="translate(793.509114583 326.5984375)scale(0.1 -0.1)">
       <use xlink:href="#BitstreamVeraSans-Roman-31"/>
       <use x="63.623046875" xlink:href="#BitstreamVeraSans-Roman-39"/>
       <use x="127.24609375" xlink:href="#BitstreamVeraSans-Roman-39"/>
       <use x="190.869140625" xlink:href="#BitstreamVeraSans-Roman-39"/>
      </g>
     </g>
    </g>
    <g id="xtick_6">
     <g id="line2d_8">
      <g>
       <use style="stroke:#000000;stroke-width:0.5;" x="970.666666667" xlink:href="#m93b0483c22" y="315.0"/>
      </g>
     </g>
     <g id="text_6">
      <!-- 2009 -->
      <defs>
       <path d="
M19.1875 8.29688
L53.6094 8.29688
L53.6094 0
L7.32812 0
L7.32812 8.29688
Q12.9375 14.1094 22.625 23.8906
Q32.3281 33.6875 34.8125 36.5312
Q39.5469 41.8438 41.4219 45.5312
Q43.3125 49.2188 43.3125 52.7812
Q43.3125 58.5938 39.2344 62.25
Q35.1562 65.9219 28.6094 65.9219
Q23.9688 65.9219 18.8125 64.3125
Q13.6719 62.7031 7.8125 59.4219
L7.8125 69.3906
Q13.7656 71.7812 18.9375 73
Q24.125 74.2188 28.4219 74.2188
Q39.75 74.2188 46.4844 68.5469
Q53.2188 62.8906 53.2188 53.4219
Q53.2188 48.9219 51.5312 44.8906
Q49.8594 40.875 45.4062 35.4062
Q44.1875 33.9844 37.6406 27.2188
Q31.1094 20.4531 19.1875 8.29688" id="BitstreamVeraSans-Roman-32"/>
       <path d="
M31.7812 66.4062
Q24.1719 66.4062 20.3281 58.9062
Q16.5 51.4219 16.5 36.375
Q16.5 21.3906 20.3281 13.8906
Q24.1719 6.39062 31.7812 6.39062
Q39.4531 6.39062 43.2812 13.8906
Q47.125 21.3906 47.125 36.375
Q47.125 51.4219 43.2812 58.9062
Q39.4531 66.4062 31.7812 66.4062
M31.7812 74.2188
Q44.0469 74.2188 50.5156 64.5156
Q56.9844 54.8281 56.9844 36.375
Q56.9844 17.9688 50.5156 8.26562
Q44.0469 -1.42188 31.7812 -1.42188
Q19.5312 -1.42188 13.0625 8.26562
Q6.59375 17.9688 6.59375 36.375
Q6.59375 54.8281 13.0625 64.5156
Q19.5312 74.2188 31.7812 74.2188" id="BitstreamVeraSans-Roman-30"/>
      </defs>
      <g transform="translate(958.659635417 326.5984375)scale(0.1 -0.1)">
       <use xlink:href="#BitstreamVeraSans-Roman-32"/>
       <use x="63.623046875" xlink:href="#BitstreamVeraSans-Roman-30"/>
       <use x="127.24609375" xlink:href="#BitstreamVeraSans-Roman-30"/>
       <use x="190.869140625" xlink:href="#BitstreamVeraSans-Roman-39"/>
      </g>
     </g>
    </g>
    <g id="text_7">
     <!-- Year -->
     <defs>
      <path d="
M56.2031 29.5938
L56.2031 25.2031
L14.8906 25.2031
Q15.4844 15.9219 20.4844 11.0625
Q25.4844 6.20312 34.4219 6.20312
Q39.5938 6.20312 44.4531 7.46875
Q49.3125 8.73438 54.1094 11.2812
L54.1094 2.78125
Q49.2656 0.734375 44.1875 -0.34375
Q39.1094 -1.42188 33.8906 -1.42188
Q20.7969 -1.42188 13.1562 6.1875
Q5.51562 13.8125 5.51562 26.8125
Q5.51562 40.2344 12.7656 48.1094
Q20.0156 56 32.3281 56
Q43.3594 56 49.7812 48.8906
Q56.2031 41.7969 56.2031 29.5938
M47.2188 32.2344
Q47.125 39.5938 43.0938 43.9844
Q39.0625 48.3906 32.4219 48.3906
Q24.9062 48.3906 20.3906 44.1406
Q15.875 39.8906 15.1875 32.1719
z
" id="BitstreamVeraSans-Roman-65"/>
      <path d="
M-0.203125 72.9062
L10.4062 72.9062
L30.6094 42.9219
L50.6875 72.9062
L61.2812 72.9062
L35.5 34.7188
L35.5 0
L25.5938 0
L25.5938 34.7188
z
" id="BitstreamVeraSans-Roman-59"/>
      <path d="
M34.2812 27.4844
Q23.3906 27.4844 19.1875 25
Q14.9844 22.5156 14.9844 16.5
Q14.9844 11.7188 18.1406 8.90625
Q21.2969 6.10938 26.7031 6.10938
Q34.1875 6.10938 38.7031 11.4062
Q43.2188 16.7031 43.2188 25.4844
L43.2188 27.4844
z

M52.2031 31.2031
L52.2031 0
L43.2188 0
L43.2188 8.29688
Q40.1406 3.32812 35.5469 0.953125
Q30.9531 -1.42188 24.3125 -1.42188
Q15.9219 -1.42188 10.9531 3.29688
Q6 8.01562 6 15.9219
Q6 25.1406 12.1719 29.8281
Q18.3594 34.5156 30.6094 34.5156
L43.2188 34.5156
L43.2188 35.4062
Q43.2188 41.6094 39.1406 45
Q35.0625 48.3906 27.6875 48.3906
Q23 48.3906 18.5469 47.2656
Q14.1094 46.1406 10.0156 43.8906
L10.0156 52.2031
Q14.9375 54.1094 19.5781 55.0469
Q24.2188 56 28.6094 56
Q40.4844 56 46.3438 49.8438
Q52.2031 43.7031 52.2031 31.2031" id="BitstreamVeraSans-Roman-61"/>
      <path d="
M41.1094 46.2969
Q39.5938 47.1719 37.8125 47.5781
Q36.0312 48 33.8906 48
Q26.2656 48 22.1875 43.0469
Q18.1094 38.0938 18.1094 28.8125
L18.1094 0
L9.07812 0
L9.07812 54.6875
L18.1094 54.6875
L18.1094 46.1875
Q20.9531 51.1719 25.4844 53.5781
Q30.0312 56 36.5312 56
Q37.4531 56 38.5781 55.875
Q39.7031 55.7656 41.0625 55.5156
z
" id="BitstreamVeraSans-Roman-72"/>
     </defs>
     <g transform="translate(579.80234375 341.2765625)scale(0.1 -0.1)">
      <use xlink:href="#BitstreamVeraSans-Roman-59"/>
      <use x="47.833984375" xlink:href="#BitstreamVeraSans-Roman-65"/>
      <use x="109.357421875" xlink:href="#BitstreamVeraSans-Roman-61"/>
      <use x="170.63671875" xlink:href="#BitstreamVeraSans-Roman-72"/>
     </g>
    </g>
   </g>
   <g id="matplotlib.axis_2">
    <g id="ytick_1">
     <g id="line2d_9">
      <defs>
       <path d="
M0 0
L4 0" id="m728421d6d4" style="stroke:#000000;stroke-width:0.5;"/>
      </defs>
      <g>
       <use style="stroke:#000000;stroke-width:0.5;" x="144.0" xlink:href="#m728421d6d4" y="315.0"/>
      </g>
     </g>
     <g id="text_8">
      <!-- 0.0 -->
      <defs>
       <path d="
M10.6875 12.4062
L21 12.4062
L21 0
L10.6875 0
z
" id="BitstreamVeraSans-Roman-2e"/>
      </defs>
      <g transform="translate(125.4203125 317.759375)scale(0.1 -0.1)">
       <use xlink:href="#BitstreamVeraSans-Roman-30"/>
       <use x="63.623046875" xlink:href="#BitstreamVeraSans-Roman-2e"/>
       <use x="95.41015625" xlink:href="#BitstreamVeraSans-Roman-30"/>
      </g>
     </g>
    </g>
    <g id="ytick_2">
     <g id="line2d_10">
      <g>
       <use style="stroke:#000000;stroke-width:0.5;" x="144.0" xlink:href="#m728421d6d4" y="259.2"/>
      </g>
     </g>
     <g id="text_9">
      <!-- 0.2 -->
      <g transform="translate(125.7578125 261.959375)scale(0.1 -0.1)">
       <use xlink:href="#BitstreamVeraSans-Roman-30"/>
       <use x="63.623046875" xlink:href="#BitstreamVeraSans-Roman-2e"/>
       <use x="95.41015625" xlink:href="#BitstreamVeraSans-Roman-32"/>
      </g>
     </g>
    </g>
    <g id="ytick_3">
     <g id="line2d_11">
      <g>
       <use style="stroke:#000000;stroke-width:0.5;" x="144.0" xlink:href="#m728421d6d4" y="203.4"/>
      </g>
     </g>
     <g id="text_10">
      <!-- 0.4 -->
      <defs>
       <path d="
M37.7969 64.3125
L12.8906 25.3906
L37.7969 25.3906
z

M35.2031 72.9062
L47.6094 72.9062
L47.6094 25.3906
L58.0156 25.3906
L58.0156 17.1875
L47.6094 17.1875
L47.6094 0
L37.7969 0
L37.7969 17.1875
L4.89062 17.1875
L4.89062 26.7031
z
" id="BitstreamVeraSans-Roman-34"/>
      </defs>
      <g transform="translate(125.3171875 206.159375)scale(0.1 -0.1)">
       <use xlink:href="#BitstreamVeraSans-Roman-30"/>
       <use x="63.623046875" xlink:href="#BitstreamVeraSans-Roman-2e"/>
       <use x="95.41015625" xlink:href="#BitstreamVeraSans-Roman-34"/>
      </g>
     </g>
    </g>
    <g id="ytick_4">
     <g id="line2d_12">
      <g>
       <use style="stroke:#000000;stroke-width:0.5;" x="144.0" xlink:href="#m728421d6d4" y="147.6"/>
      </g>
     </g>
     <g id="text_11">
      <!-- 0.6 -->
      <g transform="translate(125.3859375 150.359375)scale(0.1 -0.1)">
       <use xlink:href="#BitstreamVeraSans-Roman-30"/>
       <use x="63.623046875" xlink:href="#BitstreamVeraSans-Roman-2e"/>
       <use x="95.41015625" xlink:href="#BitstreamVeraSans-Roman-36"/>
      </g>
     </g>
    </g>
    <g id="ytick_5">
     <g id="line2d_13">
      <g>
       <use style="stroke:#000000;stroke-width:0.5;" x="144.0" xlink:href="#m728421d6d4" y="91.8"/>
      </g>
     </g>
     <g id="text_12">
      <!-- 0.8 -->
      <g transform="translate(125.440625 94.559375)scale(0.1 -0.1)">
       <use xlink:href="#BitstreamVeraSans-Roman-30"/>
       <use x="63.623046875" xlink:href="#BitstreamVeraSans-Roman-2e"/>
       <use x="95.41015625" xlink:href="#BitstreamVeraSans-Roman-38"/>
      </g>
     </g>
    </g>
    <g id="ytick_6">
     <g id="line2d_14">
      <g>
       <use style="stroke:#000000;stroke-width:0.5;" x="144.0" xlink:href="#m728421d6d4" y="36.0"/>
      </g>
     </g>
     <g id="text_13">
      <!-- 1.0 -->
      <g transform="translate(125.859375 38.759375)scale(0.1 -0.1)">
       <use xlink:href="#BitstreamVeraSans-Roman-31"/>
       <use x="63.623046875" xlink:href="#BitstreamVeraSans-Roman-2e"/>
       <use x="95.41015625" xlink:href="#BitstreamVeraSans-Roman-30"/>
      </g>
     </g>
    </g>
    <g id="text_14">
     <!-- Proportion of Total Current Receipts -->
     <defs>
      <path id="BitstreamVeraSans-Roman-20"/>
      <path d="
M8.5 21.5781
L8.5 54.6875
L17.4844 54.6875
L17.4844 21.9219
Q17.4844 14.1562 20.5 10.2656
Q23.5312 6.39062 29.5938 6.39062
Q36.8594 6.39062 41.0781 11.0312
Q45.3125 15.6719 45.3125 23.6875
L45.3125 54.6875
L54.2969 54.6875
L54.2969 0
L45.3125 0
L45.3125 8.40625
Q42.0469 3.42188 37.7188 1
Q33.4062 -1.42188 27.6875 -1.42188
Q18.2656 -1.42188 13.375 4.4375
Q8.5 10.2969 8.5 21.5781" id="BitstreamVeraSans-Roman-75"/>
      <path d="
M64.4062 67.2812
L64.4062 56.8906
Q59.4219 61.5312 53.7812 63.8125
Q48.1406 66.1094 41.7969 66.1094
Q29.2969 66.1094 22.6562 58.4688
Q16.0156 50.8281 16.0156 36.375
Q16.0156 21.9688 22.6562 14.3281
Q29.2969 6.6875 41.7969 6.6875
Q48.1406 6.6875 53.7812 8.98438
Q59.4219 11.2812 64.4062 15.9219
L64.4062 5.60938
Q59.2344 2.09375 53.4375 0.328125
Q47.6562 -1.42188 41.2188 -1.42188
Q24.6562 -1.42188 15.125 8.70312
Q5.60938 18.8438 5.60938 36.375
Q5.60938 53.9531 15.125 64.0781
Q24.6562 74.2188 41.2188 74.2188
Q47.75 74.2188 53.5312 72.4844
Q59.3281 70.75 64.4062 67.2812" id="BitstreamVeraSans-Roman-43"/>
      <path d="
M54.8906 33.0156
L54.8906 0
L45.9062 0
L45.9062 32.7188
Q45.9062 40.4844 42.875 44.3281
Q39.8438 48.1875 33.7969 48.1875
Q26.5156 48.1875 22.3125 43.5469
Q18.1094 38.9219 18.1094 30.9062
L18.1094 0
L9.07812 0
L9.07812 54.6875
L18.1094 54.6875
L18.1094 46.1875
Q21.3438 51.125 25.7031 53.5625
Q30.0781 56 35.7969 56
Q45.2188 56 50.0469 50.1719
Q54.8906 44.3438 54.8906 33.0156" id="BitstreamVeraSans-Roman-6e"/>
      <path d="
M30.6094 48.3906
Q23.3906 48.3906 19.1875 42.75
Q14.9844 37.1094 14.9844 27.2969
Q14.9844 17.4844 19.1562 11.8438
Q23.3438 6.20312 30.6094 6.20312
Q37.7969 6.20312 41.9844 11.8594
Q46.1875 17.5312 46.1875 27.2969
Q46.1875 37.0156 41.9844 42.7031
Q37.7969 48.3906 30.6094 48.3906
M30.6094 56
Q42.3281 56 49.0156 48.375
Q55.7188 40.7656 55.7188 27.2969
Q55.7188 13.875 49.0156 6.21875
Q42.3281 -1.42188 30.6094 -1.42188
Q18.8438 -1.42188 12.1719 6.21875
Q5.51562 13.875 5.51562 27.2969
Q5.51562 40.7656 12.1719 48.375
Q18.8438 56 30.6094 56" id="BitstreamVeraSans-Roman-6f"/>
      <path d="
M9.42188 75.9844
L18.4062 75.9844
L18.4062 0
L9.42188 0
z
" id="BitstreamVeraSans-Roman-6c"/>
      <path d="
M19.6719 64.7969
L19.6719 37.4062
L32.0781 37.4062
Q38.9688 37.4062 42.7188 40.9688
Q46.4844 44.5312 46.4844 51.125
Q46.4844 57.6719 42.7188 61.2344
Q38.9688 64.7969 32.0781 64.7969
z

M9.8125 72.9062
L32.0781 72.9062
Q44.3438 72.9062 50.6094 67.3594
Q56.8906 61.8125 56.8906 51.125
Q56.8906 40.3281 50.6094 34.8125
Q44.3438 29.2969 32.0781 29.2969
L19.6719 29.2969
L19.6719 0
L9.8125 0
z
" id="BitstreamVeraSans-Roman-50"/>
      <path d="
M44.3906 34.1875
Q47.5625 33.1094 50.5625 29.5938
Q53.5625 26.0781 56.5938 19.9219
L66.6094 0
L56 0
L46.6875 18.7031
Q43.0625 26.0312 39.6719 28.4219
Q36.2812 30.8125 30.4219 30.8125
L19.6719 30.8125
L19.6719 0
L9.8125 0
L9.8125 72.9062
L32.0781 72.9062
Q44.5781 72.9062 50.7344 67.6719
Q56.8906 62.4531 56.8906 51.9062
Q56.8906 45.0156 53.6875 40.4688
Q50.4844 35.9375 44.3906 34.1875
M19.6719 64.7969
L19.6719 38.9219
L32.0781 38.9219
Q39.2031 38.9219 42.8438 42.2188
Q46.4844 45.5156 46.4844 51.9062
Q46.4844 58.2969 42.8438 61.5469
Q39.2031 64.7969 32.0781 64.7969
z
" id="BitstreamVeraSans-Roman-52"/>
      <path d="
M9.42188 54.6875
L18.4062 54.6875
L18.4062 0
L9.42188 0
z

M9.42188 75.9844
L18.4062 75.9844
L18.4062 64.5938
L9.42188 64.5938
z
" id="BitstreamVeraSans-Roman-69"/>
      <path d="
M48.7812 52.5938
L48.7812 44.1875
Q44.9688 46.2969 41.1406 47.3438
Q37.3125 48.3906 33.4062 48.3906
Q24.6562 48.3906 19.8125 42.8438
Q14.9844 37.3125 14.9844 27.2969
Q14.9844 17.2812 19.8125 11.7344
Q24.6562 6.20312 33.4062 6.20312
Q37.3125 6.20312 41.1406 7.25
Q44.9688 8.29688 48.7812 10.4062
L48.7812 2.09375
Q45.0156 0.34375 40.9844 -0.53125
Q36.9688 -1.42188 32.4219 -1.42188
Q20.0625 -1.42188 12.7812 6.34375
Q5.51562 14.1094 5.51562 27.2969
Q5.51562 40.6719 12.8594 48.3281
Q20.2188 56 33.0156 56
Q37.1562 56 41.1094 55.1406
Q45.0625 54.2969 48.7812 52.5938" id="BitstreamVeraSans-Roman-63"/>
      <path d="
M-0.296875 72.9062
L61.375 72.9062
L61.375 64.5938
L35.5 64.5938
L35.5 0
L25.5938 0
L25.5938 64.5938
L-0.296875 64.5938
z
" id="BitstreamVeraSans-Roman-54"/>
      <path d="
M18.3125 70.2188
L18.3125 54.6875
L36.8125 54.6875
L36.8125 47.7031
L18.3125 47.7031
L18.3125 18.0156
Q18.3125 11.3281 20.1406 9.42188
Q21.9688 7.51562 27.5938 7.51562
L36.8125 7.51562
L36.8125 0
L27.5938 0
Q17.1875 0 13.2344 3.875
Q9.28125 7.76562 9.28125 18.0156
L9.28125 47.7031
L2.6875 47.7031
L2.6875 54.6875
L9.28125 54.6875
L9.28125 70.2188
z
" id="BitstreamVeraSans-Roman-74"/>
      <path d="
M37.1094 75.9844
L37.1094 68.5
L28.5156 68.5
Q23.6875 68.5 21.7969 66.5469
Q19.9219 64.5938 19.9219 59.5156
L19.9219 54.6875
L34.7188 54.6875
L34.7188 47.7031
L19.9219 47.7031
L19.9219 0
L10.8906 0
L10.8906 47.7031
L2.29688 47.7031
L2.29688 54.6875
L10.8906 54.6875
L10.8906 58.5
Q10.8906 67.625 15.1406 71.7969
Q19.3906 75.9844 28.6094 75.9844
z
" id="BitstreamVeraSans-Roman-66"/>
      <path d="
M44.2812 53.0781
L44.2812 44.5781
Q40.4844 46.5312 36.375 47.5
Q32.2812 48.4844 27.875 48.4844
Q21.1875 48.4844 17.8438 46.4375
Q14.5 44.3906 14.5 40.2812
Q14.5 37.1562 16.8906 35.375
Q19.2812 33.5938 26.5156 31.9844
L29.5938 31.2969
Q39.1562 29.25 43.1875 25.5156
Q47.2188 21.7812 47.2188 15.0938
Q47.2188 7.46875 41.1875 3.01562
Q35.1562 -1.42188 24.6094 -1.42188
Q20.2188 -1.42188 15.4531 -0.5625
Q10.6875 0.296875 5.42188 2
L5.42188 11.2812
Q10.4062 8.6875 15.2344 7.39062
Q20.0625 6.10938 24.8125 6.10938
Q31.1562 6.10938 34.5625 8.28125
Q37.9844 10.4531 37.9844 14.4062
Q37.9844 18.0625 35.5156 20.0156
Q33.0625 21.9688 24.7031 23.7812
L21.5781 24.5156
Q13.2344 26.2656 9.51562 29.9062
Q5.8125 33.5469 5.8125 39.8906
Q5.8125 47.6094 11.2812 51.7969
Q16.75 56 26.8125 56
Q31.7812 56 36.1719 55.2656
Q40.5781 54.5469 44.2812 53.0781" id="BitstreamVeraSans-Roman-73"/>
      <path d="
M18.1094 8.20312
L18.1094 -20.7969
L9.07812 -20.7969
L9.07812 54.6875
L18.1094 54.6875
L18.1094 46.3906
Q20.9531 51.2656 25.2656 53.625
Q29.5938 56 35.5938 56
Q45.5625 56 51.7812 48.0938
Q58.0156 40.1875 58.0156 27.2969
Q58.0156 14.4062 51.7812 6.48438
Q45.5625 -1.42188 35.5938 -1.42188
Q29.5938 -1.42188 25.2656 0.953125
Q20.9531 3.32812 18.1094 8.20312
M48.6875 27.2969
Q48.6875 37.2031 44.6094 42.8438
Q40.5312 48.4844 33.4062 48.4844
Q26.2656 48.4844 22.1875 42.8438
Q18.1094 37.2031 18.1094 27.2969
Q18.1094 17.3906 22.1875 11.75
Q26.2656 6.10938 33.4062 6.10938
Q40.5312 6.10938 44.6094 11.75
Q48.6875 17.3906 48.6875 27.2969" id="BitstreamVeraSans-Roman-70"/>
     </defs>
     <g transform="translate(118.2375 263.9609375)rotate(-90.0)scale(0.1 -0.1)">
      <use xlink:href="#BitstreamVeraSans-Roman-50"/>
      <use x="58.552734375" xlink:href="#BitstreamVeraSans-Roman-72"/>
      <use x="97.416015625" xlink:href="#BitstreamVeraSans-Roman-6f"/>
      <use x="158.59765625" xlink:href="#BitstreamVeraSans-Roman-70"/>
      <use x="222.07421875" xlink:href="#BitstreamVeraSans-Roman-6f"/>
      <use x="283.255859375" xlink:href="#BitstreamVeraSans-Roman-72"/>
      <use x="324.369140625" xlink:href="#BitstreamVeraSans-Roman-74"/>
      <use x="363.578125" xlink:href="#BitstreamVeraSans-Roman-69"/>
      <use x="391.361328125" xlink:href="#BitstreamVeraSans-Roman-6f"/>
      <use x="452.54296875" xlink:href="#BitstreamVeraSans-Roman-6e"/>
      <use x="515.921875" xlink:href="#BitstreamVeraSans-Roman-20"/>
      <use x="547.708984375" xlink:href="#BitstreamVeraSans-Roman-6f"/>
      <use x="608.890625" xlink:href="#BitstreamVeraSans-Roman-66"/>
      <use x="644.095703125" xlink:href="#BitstreamVeraSans-Roman-20"/>
      <use x="675.8828125" xlink:href="#BitstreamVeraSans-Roman-54"/>
      <use x="719.966796875" xlink:href="#BitstreamVeraSans-Roman-6f"/>
      <use x="781.1484375" xlink:href="#BitstreamVeraSans-Roman-74"/>
      <use x="820.357421875" xlink:href="#BitstreamVeraSans-Roman-61"/>
      <use x="881.63671875" xlink:href="#BitstreamVeraSans-Roman-6c"/>
      <use x="909.419921875" xlink:href="#BitstreamVeraSans-Roman-20"/>
      <use x="941.20703125" xlink:href="#BitstreamVeraSans-Roman-43"/>
      <use x="1011.03125" xlink:href="#BitstreamVeraSans-Roman-75"/>
      <use x="1074.41015625" xlink:href="#BitstreamVeraSans-Roman-72"/>
      <use x="1113.7734375" xlink:href="#BitstreamVeraSans-Roman-72"/>
      <use x="1152.63671875" xlink:href="#BitstreamVeraSans-Roman-65"/>
      <use x="1214.16015625" xlink:href="#BitstreamVeraSans-Roman-6e"/>
      <use x="1277.5390625" xlink:href="#BitstreamVeraSans-Roman-74"/>
      <use x="1316.74804688" xlink:href="#BitstreamVeraSans-Roman-20"/>
      <use x="1348.53515625" xlink:href="#BitstreamVeraSans-Roman-52"/>
      <use x="1413.51757812" xlink:href="#BitstreamVeraSans-Roman-65"/>
      <use x="1475.04101562" xlink:href="#BitstreamVeraSans-Roman-63"/>
      <use x="1530.02148438" xlink:href="#BitstreamVeraSans-Roman-65"/>
      <use x="1591.54492188" xlink:href="#BitstreamVeraSans-Roman-69"/>
      <use x="1619.328125" xlink:href="#BitstreamVeraSans-Roman-70"/>
      <use x="1682.8046875" xlink:href="#BitstreamVeraSans-Roman-74"/>
      <use x="1722.01367188" xlink:href="#BitstreamVeraSans-Roman-73"/>
     </g>
    </g>
   </g>
   <g id="legend_1">
    <g id="patch_5">
     <path d="
M913.601 80.8275
L1030.8 80.8275
L1030.8 42
L913.601 42
z
" style="fill:#ffffff;stroke:#000000;stroke-linejoin:miter;"/>
    </g>
    <g id="line2d_15">
     <path d="
M922.001 51.7181
L938.801 51.7181" style="fill:none;stroke:#857846;stroke-linecap:square;stroke-width:5;"/>
    </g>
    <g id="line2d_16"/>
    <g id="text_15">
     <!-- Property Tax -->
     <defs>
      <path d="
M54.8906 54.6875
L35.1094 28.0781
L55.9062 0
L45.3125 0
L29.3906 21.4844
L13.4844 0
L2.875 0
L24.125 28.6094
L4.6875 54.6875
L15.2812 54.6875
L29.7812 35.2031
L44.2812 54.6875
z
" id="BitstreamVeraSans-Roman-78"/>
      <path d="
M32.1719 -5.07812
Q28.375 -14.8438 24.75 -17.8125
Q21.1406 -20.7969 15.0938 -20.7969
L7.90625 -20.7969
L7.90625 -13.2812
L13.1875 -13.2812
Q16.8906 -13.2812 18.9375 -11.5156
Q21 -9.76562 23.4844 -3.21875
L25.0938 0.875
L2.98438 54.6875
L12.5 54.6875
L29.5938 11.9219
L46.6875 54.6875
L56.2031 54.6875
z
" id="BitstreamVeraSans-Roman-79"/>
     </defs>
     <g transform="translate(952.00125 55.918125)scale(0.12 -0.12)">
      <use xlink:href="#BitstreamVeraSans-Roman-50"/>
      <use x="58.552734375" xlink:href="#BitstreamVeraSans-Roman-72"/>
      <use x="97.416015625" xlink:href="#BitstreamVeraSans-Roman-6f"/>
      <use x="158.59765625" xlink:href="#BitstreamVeraSans-Roman-70"/>
      <use x="222.07421875" xlink:href="#BitstreamVeraSans-Roman-65"/>
      <use x="283.59765625" xlink:href="#BitstreamVeraSans-Roman-72"/>
      <use x="324.7109375" xlink:href="#BitstreamVeraSans-Roman-74"/>
      <use x="363.919921875" xlink:href="#BitstreamVeraSans-Roman-79"/>
      <use x="423.099609375" xlink:href="#BitstreamVeraSans-Roman-20"/>
      <use x="454.88671875" xlink:href="#BitstreamVeraSans-Roman-54"/>
      <use x="499.470703125" xlink:href="#BitstreamVeraSans-Roman-61"/>
      <use x="560.75" xlink:href="#BitstreamVeraSans-Roman-78"/>
     </g>
    </g>
    <g id="line2d_17">
     <path d="
M922.001 69.3319
L938.801 69.3319" style="fill:none;stroke:#465385;stroke-linecap:square;stroke-width:5;"/>
    </g>
    <g id="line2d_18"/>
    <g id="text_16">
     <!-- Transfers -->
     <g transform="translate(952.00125 73.531875)scale(0.12 -0.12)">
      <use xlink:href="#BitstreamVeraSans-Roman-54"/>
      <use x="46.333984375" xlink:href="#BitstreamVeraSans-Roman-72"/>
      <use x="87.447265625" xlink:href="#BitstreamVeraSans-Roman-61"/>
      <use x="148.7265625" xlink:href="#BitstreamVeraSans-Roman-6e"/>
      <use x="212.10546875" xlink:href="#BitstreamVeraSans-Roman-73"/>
      <use x="264.205078125" xlink:href="#BitstreamVeraSans-Roman-66"/>
      <use x="299.41015625" xlink:href="#BitstreamVeraSans-Roman-65"/>
      <use x="360.93359375" xlink:href="#BitstreamVeraSans-Roman-72"/>
      <use x="402.046875" xlink:href="#BitstreamVeraSans-Roman-73"/>
     </g>
    </g>
   </g>
  </g>
 </g>
 <defs>
  <clipPath id="p84497b6040">
   <rect height="279.0" width="892.8" x="144.0" y="36.0"/>
  </clipPath>
 </defs>
</svg>
