<?xml version="1.0" encoding="utf-8" standalone="no"?>
<!DOCTYPE svg PUBLIC "-//W3C//DTD SVG 1.1//EN"
  "http://www.w3.org/Graphics/SVG/1.1/DTD/svg11.dtd">
<!-- Created with matplotlib (http://matplotlib.org/) -->
<svg height="288pt" version="1.1" viewBox="0 0 1080 288" width="1080pt" xmlns="http://www.w3.org/2000/svg" xmlns:xlink="http://www.w3.org/1999/xlink">
 <defs>
  <style type="text/css">
*{stroke-linecap:butt;stroke-linejoin:round;}
  </style>
 </defs>
 <g id="figure_1">
  <g id="patch_1">
   <path d="
M0 288
L1080 288
L1080 0
L0 0
z
" style="fill:#ffffff;"/>
  </g>
  <g id="axes_1">
   <g id="PolyCollection_1">
    <defs>
     <path d="
M135 -36
L135 -110.4
L217.059 -110.4
L217.059 -36
L135 -36
z
" id="C0_0_8a22ee251a"/>
     <path d="
M217.059 -36
L217.059 -110.4
L299.118 -110.4
L299.118 -36
L217.059 -36
z
" id="C0_1_d6f46cd70f"/>
     <path d="
M299.118 -36
L299.118 -110.4
L381.176 -110.4
L381.176 -36
L299.118 -36
z
" id="C0_2_351710870e"/>
     <path d="
M135 -110.4
L135 -184.8
L217.059 -184.8
L217.059 -110.4
L135 -110.4
z
" id="C0_3_d5a9e51bd9"/>
     <path d="
M217.059 -110.4
L217.059 -184.8
L299.118 -184.8
L299.118 -110.4
L217.059 -110.4
z
" id="C0_4_d769524030"/>
     <path d="
M299.118 -110.4
L299.118 -184.8
L381.176 -184.8
L381.176 -110.4
L299.118 -110.4
z
" id="C0_5_e84f29d172"/>
     <path d="
M135 -184.8
L135 -259.2
L217.059 -259.2
L217.059 -184.8
L135 -184.8
z
" id="C0_6_65f7cebc24"/>
     <path d="
M217.059 -184.8
L217.059 -259.2
L299.118 -259.2
L299.118 -184.8
L217.059 -184.8
z
" id="C0_7_5bf15a96c4"/>
     <path d="
M299.118 -184.8
L299.118 -259.2
L381.176 -259.2
L381.176 -184.8
L299.118 -184.8
z
" id="C0_8_7617c3d0dc"/>
    </defs>
    <g clip-path="url(#p3a3481835f)">
     <use style="fill:#f7fbff;stroke:#ffffff;stroke-width:0.25;" x="0.0" xlink:href="#C0_0_8a22ee251a" y="288.0"/>
    </g>
    <g clip-path="url(#p3a3481835f)">
     <use style="fill:#08306b;stroke:#ffffff;stroke-width:0.25;" x="0.0" xlink:href="#C0_1_d6f46cd70f" y="288.0"/>
    </g>
    <g clip-path="url(#p3a3481835f)">
     <use style="fill:#f7fbff;stroke:#ffffff;stroke-width:0.25;" x="0.0" xlink:href="#C0_2_351710870e" y="288.0"/>
    </g>
    <g clip-path="url(#p3a3481835f)">
     <use style="fill:#08306b;stroke:#ffffff;stroke-width:0.25;" x="0.0" xlink:href="#C0_3_d5a9e51bd9" y="288.0"/>
    </g>
    <g clip-path="url(#p3a3481835f)">
     <use style="fill:#f7fbff;stroke:#ffffff;stroke-width:0.25;" x="0.0" xlink:href="#C0_4_d769524030" y="288.0"/>
    </g>
    <g clip-path="url(#p3a3481835f)">
     <use style="fill:#08306b;stroke:#ffffff;stroke-width:0.25;" x="0.0" xlink:href="#C0_5_e84f29d172" y="288.0"/>
    </g>
    <g clip-path="url(#p3a3481835f)">
     <use style="fill:#f7fbff;stroke:#ffffff;stroke-width:0.25;" x="0.0" xlink:href="#C0_6_65f7cebc24" y="288.0"/>
    </g>
    <g clip-path="url(#p3a3481835f)">
     <use style="fill:#08306b;stroke:#ffffff;stroke-width:0.25;" x="0.0" xlink:href="#C0_7_5bf15a96c4" y="288.0"/>
    </g>
    <g clip-path="url(#p3a3481835f)">
     <use style="fill:#f7fbff;stroke:#ffffff;stroke-width:0.25;" x="0.0" xlink:href="#C0_8_7617c3d0dc" y="288.0"/>
    </g>
   </g>
   <g id="text_1">
    <!-- Central -->
    <defs>
     <path d="
M54.8906 33.0156
L54.8906 0
L45.9062 0
L45.9062 32.7188
Q45.9062 40.4844 42.875 44.3281
Q39.8438 48.1875 33.7969 48.1875
Q26.5156 48.1875 22.3125 43.5469
Q18.1094 38.9219 18.1094 30.9062
L18.1094 0
L9.07812 0
L9.07812 54.6875
L18.1094 54.6875
L18.1094 46.1875
Q21.3438 51.125 25.7031 53.5625
Q30.0781 56 35.7969 56
Q45.2188 56 50.0469 50.1719
Q54.8906 44.3438 54.8906 33.0156" id="BitstreamVeraSans-Roman-6e"/>
     <path d="
M34.2812 27.4844
Q23.3906 27.4844 19.1875 25
Q14.9844 22.5156 14.9844 16.5
Q14.9844 11.7188 18.1406 8.90625
Q21.2969 6.10938 26.7031 6.10938
Q34.1875 6.10938 38.7031 11.4062
Q43.2188 16.7031 43.2188 25.4844
L43.2188 27.4844
z

M52.2031 31.2031
L52.2031 0
L43.2188 0
L43.2188 8.29688
Q40.1406 3.32812 35.5469 0.953125
Q30.9531 -1.42188 24.3125 -1.42188
Q15.9219 -1.42188 10.9531 3.29688
Q6 8.01562 6 15.9219
Q6 25.1406 12.1719 29.8281
Q18.3594 34.5156 30.6094 34.5156
L43.2188 34.5156
L43.2188 35.4062
Q43.2188 41.6094 39.1406 45
Q35.0625 48.3906 27.6875 48.3906
Q23 48.3906 18.5469 47.2656
Q14.1094 46.1406 10.0156 43.8906
L10.0156 52.2031
Q14.9375 54.1094 19.5781 55.0469
Q24.2188 56 28.6094 56
Q40.4844 56 46.3438 49.8438
Q52.2031 43.7031 52.2031 31.2031" id="BitstreamVeraSans-Roman-61"/>
     <path d="
M9.42188 75.9844
L18.4062 75.9844
L18.4062 0
L9.42188 0
z
" id="BitstreamVeraSans-Roman-6c"/>
     <path d="
M64.4062 67.2812
L64.4062 56.8906
Q59.4219 61.5312 53.7812 63.8125
Q48.1406 66.1094 41.7969 66.1094
Q29.2969 66.1094 22.6562 58.4688
Q16.0156 50.8281 16.0156 36.375
Q16.0156 21.9688 22.6562 14.3281
Q29.2969 6.6875 41.7969 6.6875
Q48.1406 6.6875 53.7812 8.98438
Q59.4219 11.2812 64.4062 15.9219
L64.4062 5.60938
Q59.2344 2.09375 53.4375 0.328125
Q47.6562 -1.42188 41.2188 -1.42188
Q24.6562 -1.42188 15.125 8.70312
Q5.60938 18.8438 5.60938 36.375
Q5.60938 53.9531 15.125 64.0781
Q24.6562 74.2188 41.2188 74.2188
Q47.75 74.2188 53.5312 72.4844
Q59.3281 70.75 64.4062 67.2812" id="BitstreamVeraSans-Roman-43"/>
     <path d="
M56.2031 29.5938
L56.2031 25.2031
L14.8906 25.2031
Q15.4844 15.9219 20.4844 11.0625
Q25.4844 6.20312 34.4219 6.20312
Q39.5938 6.20312 44.4531 7.46875
Q49.3125 8.73438 54.1094 11.2812
L54.1094 2.78125
Q49.2656 0.734375 44.1875 -0.34375
Q39.1094 -1.42188 33.8906 -1.42188
Q20.7969 -1.42188 13.1562 6.1875
Q5.51562 13.8125 5.51562 26.8125
Q5.51562 40.2344 12.7656 48.1094
Q20.0156 56 32.3281 56
Q43.3594 56 49.7812 48.8906
Q56.2031 41.7969 56.2031 29.5938
M47.2188 32.2344
Q47.125 39.5938 43.0938 43.9844
Q39.0625 48.3906 32.4219 48.3906
Q24.9062 48.3906 20.3906 44.1406
Q15.875 39.8906 15.1875 32.1719
z
" id="BitstreamVeraSans-Roman-65"/>
     <path d="
M18.3125 70.2188
L18.3125 54.6875
L36.8125 54.6875
L36.8125 47.7031
L18.3125 47.7031
L18.3125 18.0156
Q18.3125 11.3281 20.1406 9.42188
Q21.9688 7.51562 27.5938 7.51562
L36.8125 7.51562
L36.8125 0
L27.5938 0
Q17.1875 0 13.2344 3.875
Q9.28125 7.76562 9.28125 18.0156
L9.28125 47.7031
L2.6875 47.7031
L2.6875 54.6875
L9.28125 54.6875
L9.28125 70.2188
z
" id="BitstreamVeraSans-Roman-74"/>
     <path d="
M41.1094 46.2969
Q39.5938 47.1719 37.8125 47.5781
Q36.0312 48 33.8906 48
Q26.2656 48 22.1875 43.0469
Q18.1094 38.0938 18.1094 28.8125
L18.1094 0
L9.07812 0
L9.07812 54.6875
L18.1094 54.6875
L18.1094 46.1875
Q20.9531 51.1719 25.4844 53.5781
Q30.0312 56 36.5312 56
Q37.4531 56 38.5781 55.875
Q39.7031 55.7656 41.0625 55.5156
z
" id="BitstreamVeraSans-Roman-72"/>
    </defs>
    <g transform="translate(237.573529412 140.3621875)scale(0.1 -0.1)">
     <use xlink:href="#BitstreamVeraSans-Roman-43"/>
     <use x="69.82421875" xlink:href="#BitstreamVeraSans-Roman-65"/>
     <use x="131.34765625" xlink:href="#BitstreamVeraSans-Roman-6e"/>
     <use x="194.7265625" xlink:href="#BitstreamVeraSans-Roman-74"/>
     <use x="233.935546875" xlink:href="#BitstreamVeraSans-Roman-72"/>
     <use x="275.048828125" xlink:href="#BitstreamVeraSans-Roman-61"/>
     <use x="336.328125" xlink:href="#BitstreamVeraSans-Roman-6c"/>
    </g>
    <!-- County -->
    <defs>
     <path d="
M8.5 21.5781
L8.5 54.6875
L17.4844 54.6875
L17.4844 21.9219
Q17.4844 14.1562 20.5 10.2656
Q23.5312 6.39062 29.5938 6.39062
Q36.8594 6.39062 41.0781 11.0312
Q45.3125 15.6719 45.3125 23.6875
L45.3125 54.6875
L54.2969 54.6875
L54.2969 0
L45.3125 0
L45.3125 8.40625
Q42.0469 3.42188 37.7188 1
Q33.4062 -1.42188 27.6875 -1.42188
Q18.2656 -1.42188 13.375 4.4375
Q8.5 10.2969 8.5 21.5781" id="BitstreamVeraSans-Roman-75"/>
     <path d="
M30.6094 48.3906
Q23.3906 48.3906 19.1875 42.75
Q14.9844 37.1094 14.9844 27.2969
Q14.9844 17.4844 19.1562 11.8438
Q23.3438 6.20312 30.6094 6.20312
Q37.7969 6.20312 41.9844 11.8594
Q46.1875 17.5312 46.1875 27.2969
Q46.1875 37.0156 41.9844 42.7031
Q37.7969 48.3906 30.6094 48.3906
M30.6094 56
Q42.3281 56 49.0156 48.375
Q55.7188 40.7656 55.7188 27.2969
Q55.7188 13.875 49.0156 6.21875
Q42.3281 -1.42188 30.6094 -1.42188
Q18.8438 -1.42188 12.1719 6.21875
Q5.51562 13.875 5.51562 27.2969
Q5.51562 40.7656 12.1719 48.375
Q18.8438 56 30.6094 56" id="BitstreamVeraSans-Roman-6f"/>
     <path d="
M32.1719 -5.07812
Q28.375 -14.8438 24.75 -17.8125
Q21.1406 -20.7969 15.0938 -20.7969
L7.90625 -20.7969
L7.90625 -13.2812
L13.1875 -13.2812
Q16.8906 -13.2812 18.9375 -11.5156
Q21 -9.76562 23.4844 -3.21875
L25.0938 0.875
L2.98438 54.6875
L12.5 54.6875
L29.5938 11.9219
L46.6875 54.6875
L56.2031 54.6875
z
" id="BitstreamVeraSans-Roman-79"/>
    </defs>
    <g transform="translate(237.573529412 151.56)scale(0.1 -0.1)">
     <use xlink:href="#BitstreamVeraSans-Roman-43"/>
     <use x="69.82421875" xlink:href="#BitstreamVeraSans-Roman-6f"/>
     <use x="131.005859375" xlink:href="#BitstreamVeraSans-Roman-75"/>
     <use x="194.384765625" xlink:href="#BitstreamVeraSans-Roman-6e"/>
     <use x="257.763671875" xlink:href="#BitstreamVeraSans-Roman-74"/>
     <use x="296.97265625" xlink:href="#BitstreamVeraSans-Roman-79"/>
    </g>
   </g>
   <g id="text_2">
    <!-- Rook -->
    <defs>
     <path d="
M44.3906 34.1875
Q47.5625 33.1094 50.5625 29.5938
Q53.5625 26.0781 56.5938 19.9219
L66.6094 0
L56 0
L46.6875 18.7031
Q43.0625 26.0312 39.6719 28.4219
Q36.2812 30.8125 30.4219 30.8125
L19.6719 30.8125
L19.6719 0
L9.8125 0
L9.8125 72.9062
L32.0781 72.9062
Q44.5781 72.9062 50.7344 67.6719
Q56.8906 62.4531 56.8906 51.9062
Q56.8906 45.0156 53.6875 40.4688
Q50.4844 35.9375 44.3906 34.1875
M19.6719 64.7969
L19.6719 38.9219
L32.0781 38.9219
Q39.2031 38.9219 42.8438 42.2188
Q46.4844 45.5156 46.4844 51.9062
Q46.4844 58.2969 42.8438 61.5469
Q39.2031 64.7969 32.0781 64.7969
z
" id="BitstreamVeraSans-Roman-52"/>
     <path d="
M9.07812 75.9844
L18.1094 75.9844
L18.1094 31.1094
L44.9219 54.6875
L56.3906 54.6875
L27.3906 29.1094
L57.625 0
L45.9062 0
L18.1094 26.7031
L18.1094 0
L9.07812 0
z
" id="BitstreamVeraSans-Roman-6b"/>
    </defs>
    <g transform="translate(239.274485294 23.8)scale(0.16 -0.16)">
     <use xlink:href="#BitstreamVeraSans-Roman-52"/>
     <use x="64.982421875" xlink:href="#BitstreamVeraSans-Roman-6f"/>
     <use x="126.1640625" xlink:href="#BitstreamVeraSans-Roman-6f"/>
     <use x="187.345703125" xlink:href="#BitstreamVeraSans-Roman-6b"/>
    </g>
   </g>
  </g>
  <g id="axes_2">
   <g id="PolyCollection_2">
    <defs>
     <path d="
M430.412 -36
L430.412 -110.4
L512.471 -110.4
L512.471 -36
L430.412 -36
z
" id="C1_0_4a1eef441d"/>
     <path d="
M512.471 -36
L512.471 -110.4
L594.529 -110.4
L594.529 -36
L512.471 -36
z
" id="C1_1_2e1e4a8cf2"/>
     <path d="
M594.529 -36
L594.529 -110.4
L676.588 -110.4
L676.588 -36
L594.529 -36
z
" id="C1_2_7c01735732"/>
     <path d="
M430.412 -110.4
L430.412 -184.8
L512.471 -184.8
L512.471 -110.4
L430.412 -110.4
z
" id="C1_3_26b15eb11f"/>
     <path d="
M512.471 -110.4
L512.471 -184.8
L594.529 -184.8
L594.529 -110.4
L512.471 -110.4
z
" id="C1_4_d68bba89eb"/>
     <path d="
M594.529 -110.4
L594.529 -184.8
L676.588 -184.8
L676.588 -110.4
L594.529 -110.4
z
" id="C1_5_94fc570d1b"/>
     <path d="
M430.412 -184.8
L430.412 -259.2
L512.471 -259.2
L512.471 -184.8
L430.412 -184.8
z
" id="C1_6_ce5ee57158"/>
     <path d="
M512.471 -184.8
L512.471 -259.2
L594.529 -259.2
L594.529 -184.8
L512.471 -184.8
z
" id="C1_7_692165ae8f"/>
     <path d="
M594.529 -184.8
L594.529 -259.2
L676.588 -259.2
L676.588 -184.8
L594.529 -184.8
z
" id="C1_8_1cc3888543"/>
    </defs>
    <g clip-path="url(#p59e0a9c5ca)">
     <use style="fill:#08306b;stroke:#ffffff;stroke-width:0.25;" x="0.0" xlink:href="#C1_0_4a1eef441d" y="288.0"/>
    </g>
    <g clip-path="url(#p59e0a9c5ca)">
     <use style="fill:#08306b;stroke:#ffffff;stroke-width:0.25;" x="0.0" xlink:href="#C1_1_2e1e4a8cf2" y="288.0"/>
    </g>
    <g clip-path="url(#p59e0a9c5ca)">
     <use style="fill:#08306b;stroke:#ffffff;stroke-width:0.25;" x="0.0" xlink:href="#C1_2_7c01735732" y="288.0"/>
    </g>
    <g clip-path="url(#p59e0a9c5ca)">
     <use style="fill:#08306b;stroke:#ffffff;stroke-width:0.25;" x="0.0" xlink:href="#C1_3_26b15eb11f" y="288.0"/>
    </g>
    <g clip-path="url(#p59e0a9c5ca)">
     <use style="fill:#f7fbff;stroke:#ffffff;stroke-width:0.25;" x="0.0" xlink:href="#C1_4_d68bba89eb" y="288.0"/>
    </g>
    <g clip-path="url(#p59e0a9c5ca)">
     <use style="fill:#08306b;stroke:#ffffff;stroke-width:0.25;" x="0.0" xlink:href="#C1_5_94fc570d1b" y="288.0"/>
    </g>
    <g clip-path="url(#p59e0a9c5ca)">
     <use style="fill:#08306b;stroke:#ffffff;stroke-width:0.25;" x="0.0" xlink:href="#C1_6_ce5ee57158" y="288.0"/>
    </g>
    <g clip-path="url(#p59e0a9c5ca)">
     <use style="fill:#08306b;stroke:#ffffff;stroke-width:0.25;" x="0.0" xlink:href="#C1_7_692165ae8f" y="288.0"/>
    </g>
    <g clip-path="url(#p59e0a9c5ca)">
     <use style="fill:#08306b;stroke:#ffffff;stroke-width:0.25;" x="0.0" xlink:href="#C1_8_1cc3888543" y="288.0"/>
    </g>
   </g>
   <g id="text_3">
    <!-- Central -->
    <g transform="translate(532.985294118 140.3621875)scale(0.1 -0.1)">
     <use xlink:href="#BitstreamVeraSans-Roman-43"/>
     <use x="69.82421875" xlink:href="#BitstreamVeraSans-Roman-65"/>
     <use x="131.34765625" xlink:href="#BitstreamVeraSans-Roman-6e"/>
     <use x="194.7265625" xlink:href="#BitstreamVeraSans-Roman-74"/>
     <use x="233.935546875" xlink:href="#BitstreamVeraSans-Roman-72"/>
     <use x="275.048828125" xlink:href="#BitstreamVeraSans-Roman-61"/>
     <use x="336.328125" xlink:href="#BitstreamVeraSans-Roman-6c"/>
    </g>
    <!-- County -->
    <g transform="translate(532.985294118 151.56)scale(0.1 -0.1)">
     <use xlink:href="#BitstreamVeraSans-Roman-43"/>
     <use x="69.82421875" xlink:href="#BitstreamVeraSans-Roman-6f"/>
     <use x="131.005859375" xlink:href="#BitstreamVeraSans-Roman-75"/>
     <use x="194.384765625" xlink:href="#BitstreamVeraSans-Roman-6e"/>
     <use x="257.763671875" xlink:href="#BitstreamVeraSans-Roman-74"/>
     <use x="296.97265625" xlink:href="#BitstreamVeraSans-Roman-79"/>
    </g>
   </g>
   <g id="text_4">
    <!-- Queen -->
    <defs>
     <path d="
M39.4062 66.2188
Q28.6562 66.2188 22.3281 58.2031
Q16.0156 50.2031 16.0156 36.375
Q16.0156 22.6094 22.3281 14.5938
Q28.6562 6.59375 39.4062 6.59375
Q50.1406 6.59375 56.4219 14.5938
Q62.7031 22.6094 62.7031 36.375
Q62.7031 50.2031 56.4219 58.2031
Q50.1406 66.2188 39.4062 66.2188
M53.2188 1.3125
L66.2188 -12.8906
L54.2969 -12.8906
L43.5 -1.21875
Q41.8906 -1.3125 41.0312 -1.35938
Q40.1875 -1.42188 39.4062 -1.42188
Q24.0312 -1.42188 14.8125 8.85938
Q5.60938 19.1406 5.60938 36.375
Q5.60938 53.6562 14.8125 63.9375
Q24.0312 74.2188 39.4062 74.2188
Q54.7344 74.2188 63.9062 63.9375
Q73.0938 53.6562 73.0938 36.375
Q73.0938 23.6875 67.9844 14.6406
Q62.8906 5.60938 53.2188 1.3125" id="BitstreamVeraSans-Roman-51"/>
    </defs>
    <g transform="translate(528.345 23.8)scale(0.16 -0.16)">
     <use xlink:href="#BitstreamVeraSans-Roman-51"/>
     <use x="78.7109375" xlink:href="#BitstreamVeraSans-Roman-75"/>
     <use x="142.08984375" xlink:href="#BitstreamVeraSans-Roman-65"/>
     <use x="203.61328125" xlink:href="#BitstreamVeraSans-Roman-65"/>
     <use x="265.13671875" xlink:href="#BitstreamVeraSans-Roman-6e"/>
    </g>
   </g>
  </g>
  <g id="axes_3">
   <g id="PolyCollection_3">
    <defs>
     <path d="
M725.824 -36
L725.824 -110.4
L807.882 -110.4
L807.882 -36
L725.824 -36
z
" id="C2_0_741326376c"/>
     <path d="
M807.882 -36
L807.882 -110.4
L889.941 -110.4
L889.941 -36
L807.882 -36
z
" id="C2_1_bc0a08857a"/>
     <path d="
M889.941 -36
L889.941 -110.4
L972 -110.4
L972 -36
L889.941 -36
z
" id="C2_2_8dcebec8a4"/>
     <path d="
M725.824 -110.4
L725.824 -184.8
L807.882 -184.8
L807.882 -110.4
L725.824 -110.4
z
" id="C2_3_246b7b034c"/>
     <path d="
M807.882 -110.4
L807.882 -184.8
L889.941 -184.8
L889.941 -110.4
L807.882 -110.4
z
" id="C2_4_f3005dda14"/>
     <path d="
M889.941 -110.4
L889.941 -184.8
L972 -184.8
L972 -110.4
L889.941 -110.4
z
" id="C2_5_da185fddef"/>
     <path d="
M725.824 -184.8
L725.824 -259.2
L807.882 -259.2
L807.882 -184.8
L725.824 -184.8
z
" id="C2_6_844bdaaee6"/>
     <path d="
M807.882 -184.8
L807.882 -259.2
L889.941 -259.2
L889.941 -184.8
L807.882 -184.8
z
" id="C2_7_e7f0dc6721"/>
     <path d="
M889.941 -184.8
L889.941 -259.2
L972 -259.2
L972 -184.8
L889.941 -184.8
z
" id="C2_8_2a82a568c8"/>
    </defs>
    <g clip-path="url(#p81045cb02f)">
     <use style="fill:#08306b;stroke:#ffffff;stroke-width:0.25;" x="0.0" xlink:href="#C2_0_741326376c" y="288.0"/>
    </g>
    <g clip-path="url(#p81045cb02f)">
     <use style="fill:#08306b;stroke:#ffffff;stroke-width:0.25;" x="0.0" xlink:href="#C2_1_bc0a08857a" y="288.0"/>
    </g>
    <g clip-path="url(#p81045cb02f)">
     <use style="fill:#08306b;stroke:#ffffff;stroke-width:0.25;" x="0.0" xlink:href="#C2_2_8dcebec8a4" y="288.0"/>
    </g>
    <g clip-path="url(#p81045cb02f)">
     <use style="fill:#08306b;stroke:#ffffff;stroke-width:0.25;" x="0.0" xlink:href="#C2_3_246b7b034c" y="288.0"/>
    </g>
    <g clip-path="url(#p81045cb02f)">
     <use style="fill:#f7fbff;stroke:#ffffff;stroke-width:0.25;" x="0.0" xlink:href="#C2_4_f3005dda14" y="288.0"/>
    </g>
    <g clip-path="url(#p81045cb02f)">
     <use style="fill:#08306b;stroke:#ffffff;stroke-width:0.25;" x="0.0" xlink:href="#C2_5_da185fddef" y="288.0"/>
    </g>
    <g clip-path="url(#p81045cb02f)">
     <use style="fill:#08306b;stroke:#ffffff;stroke-width:0.25;" x="0.0" xlink:href="#C2_6_844bdaaee6" y="288.0"/>
    </g>
    <g clip-path="url(#p81045cb02f)">
     <use style="fill:#08306b;stroke:#ffffff;stroke-width:0.25;" x="0.0" xlink:href="#C2_7_e7f0dc6721" y="288.0"/>
    </g>
    <g clip-path="url(#p81045cb02f)">
     <use style="fill:#08306b;stroke:#ffffff;stroke-width:0.25;" x="0.0" xlink:href="#C2_8_2a82a568c8" y="288.0"/>
    </g>
   </g>
   <g id="PatchCollection_1">
    <defs>
     <path d="
M848.912 -58.32
C875.026 -58.32 900.075 -67.7271 918.541 -84.4695
C937.007 -101.212 947.382 -123.923 947.382 -147.6
C947.382 -171.277 937.007 -193.988 918.541 -210.73
C900.075 -227.473 875.026 -236.88 848.912 -236.88
C822.797 -236.88 797.748 -227.473 779.283 -210.73
C760.817 -193.988 750.441 -171.277 750.441 -147.6
C750.441 -123.923 760.817 -101.212 779.283 -84.4695
C797.748 -67.7271 822.797 -58.32 848.912 -58.32
z
" id="C3_0_483f5b3bf4"/>
    </defs>
    <g clip-path="url(#p81045cb02f)">
     <use style="fill:#8d2300;fill-opacity:0.5;" x="0.0" xlink:href="#C3_0_483f5b3bf4" y="288.0"/>
    </g>
   </g>
   <g id="text_5">
    <!-- Central -->
    <g transform="translate(828.397058824 140.3621875)scale(0.1 -0.1)">
     <use xlink:href="#BitstreamVeraSans-Roman-43"/>
     <use x="69.82421875" xlink:href="#BitstreamVeraSans-Roman-65"/>
     <use x="131.34765625" xlink:href="#BitstreamVeraSans-Roman-6e"/>
     <use x="194.7265625" xlink:href="#BitstreamVeraSans-Roman-74"/>
     <use x="233.935546875" xlink:href="#BitstreamVeraSans-Roman-72"/>
     <use x="275.048828125" xlink:href="#BitstreamVeraSans-Roman-61"/>
     <use x="336.328125" xlink:href="#BitstreamVeraSans-Roman-6c"/>
    </g>
    <!-- County -->
    <g transform="translate(828.397058824 151.56)scale(0.1 -0.1)">
     <use xlink:href="#BitstreamVeraSans-Roman-43"/>
     <use x="69.82421875" xlink:href="#BitstreamVeraSans-Roman-6f"/>
     <use x="131.005859375" xlink:href="#BitstreamVeraSans-Roman-75"/>
     <use x="194.384765625" xlink:href="#BitstreamVeraSans-Roman-6e"/>
     <use x="257.763671875" xlink:href="#BitstreamVeraSans-Roman-74"/>
     <use x="296.97265625" xlink:href="#BitstreamVeraSans-Roman-79"/>
    </g>
   </g>
   <g id="text_6">
    <!-- Distance -->
    <defs>
     <path d="
M19.6719 64.7969
L19.6719 8.10938
L31.5938 8.10938
Q46.6875 8.10938 53.6875 14.9375
Q60.6875 21.7812 60.6875 36.5312
Q60.6875 51.1719 53.6875 57.9844
Q46.6875 64.7969 31.5938 64.7969
z

M9.8125 72.9062
L30.0781 72.9062
Q51.2656 72.9062 61.1719 64.0938
Q71.0938 55.2812 71.0938 36.5312
Q71.0938 17.6719 61.125 8.82812
Q51.1719 0 30.0781 0
L9.8125 0
z
" id="BitstreamVeraSans-Roman-44"/>
     <path d="
M9.42188 54.6875
L18.4062 54.6875
L18.4062 0
L9.42188 0
z

M9.42188 75.9844
L18.4062 75.9844
L18.4062 64.5938
L9.42188 64.5938
z
" id="BitstreamVeraSans-Roman-69"/>
     <path d="
M44.2812 53.0781
L44.2812 44.5781
Q40.4844 46.5312 36.375 47.5
Q32.2812 48.4844 27.875 48.4844
Q21.1875 48.4844 17.8438 46.4375
Q14.5 44.3906 14.5 40.2812
Q14.5 37.1562 16.8906 35.375
Q19.2812 33.5938 26.5156 31.9844
L29.5938 31.2969
Q39.1562 29.25 43.1875 25.5156
Q47.2188 21.7812 47.2188 15.0938
Q47.2188 7.46875 41.1875 3.01562
Q35.1562 -1.42188 24.6094 -1.42188
Q20.2188 -1.42188 15.4531 -0.5625
Q10.6875 0.296875 5.42188 2
L5.42188 11.2812
Q10.4062 8.6875 15.2344 7.39062
Q20.0625 6.10938 24.8125 6.10938
Q31.1562 6.10938 34.5625 8.28125
Q37.9844 10.4531 37.9844 14.4062
Q37.9844 18.0625 35.5156 20.0156
Q33.0625 21.9688 24.7031 23.7812
L21.5781 24.5156
Q13.2344 26.2656 9.51562 29.9062
Q5.8125 33.5469 5.8125 39.8906
Q5.8125 47.6094 11.2812 51.7969
Q16.75 56 26.8125 56
Q31.7812 56 36.1719 55.2656
Q40.5781 54.5469 44.2812 53.0781" id="BitstreamVeraSans-Roman-73"/>
     <path d="
M48.7812 52.5938
L48.7812 44.1875
Q44.9688 46.2969 41.1406 47.3438
Q37.3125 48.3906 33.4062 48.3906
Q24.6562 48.3906 19.8125 42.8438
Q14.9844 37.3125 14.9844 27.2969
Q14.9844 17.2812 19.8125 11.7344
Q24.6562 6.20312 33.4062 6.20312
Q37.3125 6.20312 41.1406 7.25
Q44.9688 8.29688 48.7812 10.4062
L48.7812 2.09375
Q45.0156 0.34375 40.9844 -0.53125
Q36.9688 -1.42188 32.4219 -1.42188
Q20.0625 -1.42188 12.7812 6.34375
Q5.51562 14.1094 5.51562 27.2969
Q5.51562 40.6719 12.8594 48.3281
Q20.2188 56 33.0156 56
Q37.1562 56 41.1094 55.1406
Q45.0625 54.2969 48.7812 52.5938" id="BitstreamVeraSans-Roman-63"/>
    </defs>
    <g transform="translate(815.143014706 23.8)scale(0.16 -0.16)">
     <use xlink:href="#BitstreamVeraSans-Roman-44"/>
     <use x="77.001953125" xlink:href="#BitstreamVeraSans-Roman-69"/>
     <use x="104.78515625" xlink:href="#BitstreamVeraSans-Roman-73"/>
     <use x="156.884765625" xlink:href="#BitstreamVeraSans-Roman-74"/>
     <use x="196.09375" xlink:href="#BitstreamVeraSans-Roman-61"/>
     <use x="257.373046875" xlink:href="#BitstreamVeraSans-Roman-6e"/>
     <use x="320.751953125" xlink:href="#BitstreamVeraSans-Roman-63"/>
     <use x="375.732421875" xlink:href="#BitstreamVeraSans-Roman-65"/>
    </g>
   </g>
  </g>
 </g>
 <defs>
  <clipPath id="p3a3481835f">
   <rect height="223.2" width="246.176470588" x="135.0" y="28.8"/>
  </clipPath>
  <clipPath id="p59e0a9c5ca">
   <rect height="223.2" width="246.176470588" x="430.411764706" y="28.8"/>
  </clipPath>
  <clipPath id="p81045cb02f">
   <rect height="223.2" width="246.176470588" x="725.823529412" y="28.8"/>
  </clipPath>
 </defs>
</svg>
